<svg xmlns="http://www.w3.org/2000/svg" xmlns:xlink="http://www.w3.org/1999/xlink" width="1920" zoomAndPan="magnify" viewBox="0 0 1440 675.000002" height="900" preserveAspectRatio="xMidYMid meet" version="1.2"><defs><clipPath id="7438c15822"><path d="M 1.066406 0 L 1438.933594 0 L 1438.933594 674 L 1.066406 674 Z M 1.066406 0 "/></clipPath></defs><g id="92f968be77"><g clip-rule="nonzero" clip-path="url(#7438c15822)"><path style=" stroke:none;fill-rule:nonzero;fill:#ffffff;fill-opacity:1;" d="M 1.066406 0 L 1438.933594 0 L 1438.933594 674 L 1.066406 674 Z M 1.066406 0 "/><path style=" stroke:none;fill-rule:nonzero;fill:#ffffff;fill-opacity:1;" d="M 1.066406 0 L 1438.933594 0 L 1438.933594 674 L 1.066406 674 Z M 1.066406 0 "/></g><path style=" stroke:none;fill-rule:nonzero;fill:#44403d;fill-opacity:1;" d="M 1187.503906 212.5625 C 1187.636719 212.5625 1187.636719 212.5625 1187.769531 212.5625 C 1187.871094 212.5625 1187.972656 212.5625 1188.078125 212.5625 C 1188.25 212.5625 1188.25 212.5625 1188.421875 212.5625 C 1188.542969 212.5625 1188.664062 212.5625 1188.785156 212.5625 C 1189.121094 212.5625 1189.457031 212.5625 1189.792969 212.5625 C 1190.15625 212.5625 1190.519531 212.5625 1190.882812 212.5625 C 1191.523438 212.5625 1192.160156 212.5625 1192.800781 212.5625 C 1193.75 212.566406 1194.699219 212.566406 1195.648438 212.5625 C 1197.246094 212.5625 1198.84375 212.566406 1200.441406 212.566406 C 1202.023438 212.566406 1203.605469 212.566406 1205.1875 212.566406 C 1205.289062 212.566406 1205.386719 212.566406 1205.488281 212.566406 C 1205.984375 212.566406 1206.484375 212.566406 1206.984375 212.566406 C 1210.523438 212.566406 1214.058594 212.566406 1217.597656 212.566406 C 1221.035156 212.570312 1224.472656 212.570312 1227.910156 212.570312 C 1228.015625 212.570312 1228.121094 212.570312 1228.230469 212.570312 C 1229.292969 212.570312 1230.355469 212.570312 1231.421875 212.570312 C 1233.585938 212.570312 1235.753906 212.570312 1237.921875 212.570312 C 1238.070312 212.570312 1238.070312 212.570312 1238.222656 212.570312 C 1244.878906 212.570312 1251.535156 212.574219 1258.191406 212.574219 C 1258.25 212.792969 1258.304688 213.007812 1258.363281 213.222656 C 1258.378906 213.285156 1258.394531 213.34375 1258.414062 213.40625 C 1258.546875 213.910156 1258.675781 214.410156 1258.800781 214.914062 C 1259.835938 219.054688 1260.992188 223.160156 1262.292969 227.230469 C 1262.363281 227.453125 1262.433594 227.675781 1262.503906 227.898438 C 1263.953125 232.464844 1265.601562 236.960938 1267.277344 241.445312 C 1268.078125 243.597656 1268.847656 245.757812 1269.625 247.917969 C 1269.828125 248.476562 1270.027344 249.039062 1270.230469 249.597656 C 1270.296875 249.78125 1270.363281 249.964844 1270.429688 250.148438 C 1270.476562 250.285156 1270.476562 250.285156 1270.527344 250.421875 C 1270.625 250.695312 1270.722656 250.972656 1270.824219 251.246094 C 1271.351562 252.71875 1271.886719 254.195312 1272.417969 255.671875 C 1272.4375 255.726562 1272.457031 255.785156 1272.480469 255.84375 C 1272.800781 256.730469 1273.117188 257.617188 1273.4375 258.5 C 1273.777344 259.445312 1274.117188 260.386719 1274.460938 261.332031 C 1274.480469 261.390625 1274.5 261.445312 1274.523438 261.507812 C 1275.132812 263.199219 1275.742188 264.890625 1276.351562 266.582031 C 1276.914062 268.148438 1277.480469 269.714844 1278.042969 271.28125 C 1278.066406 271.339844 1278.085938 271.398438 1278.109375 271.457031 C 1278.300781 271.988281 1278.492188 272.519531 1278.683594 273.046875 C 1278.976562 273.867188 1279.269531 274.683594 1279.566406 275.5 C 1279.585938 275.558594 1279.605469 275.613281 1279.628906 275.671875 C 1279.792969 276.132812 1279.960938 276.59375 1280.125 277.050781 C 1280.269531 277.457031 1280.417969 277.859375 1280.5625 278.261719 C 1280.582031 278.316406 1280.601562 278.375 1280.625 278.433594 C 1280.917969 279.253906 1281.214844 280.070312 1281.511719 280.890625 C 1282.332031 283.167969 1283.15625 285.449219 1283.976562 287.730469 C 1284.539062 289.296875 1285.101562 290.863281 1285.667969 292.429688 C 1285.6875 292.488281 1285.710938 292.542969 1285.730469 292.605469 C 1286.050781 293.488281 1286.371094 294.375 1286.691406 295.257812 C 1287.03125 296.203125 1287.371094 297.148438 1287.710938 298.089844 C 1287.730469 298.148438 1287.753906 298.207031 1287.773438 298.265625 C 1288.382812 299.957031 1288.992188 301.648438 1289.601562 303.339844 C 1290.167969 304.90625 1290.730469 306.472656 1291.296875 308.039062 C 1291.316406 308.097656 1291.335938 308.15625 1291.359375 308.214844 C 1291.679688 309.101562 1291.996094 309.984375 1292.316406 310.871094 C 1292.65625 311.8125 1292.996094 312.757812 1293.339844 313.703125 C 1293.359375 313.757812 1293.378906 313.816406 1293.402344 313.875 C 1294.011719 315.566406 1294.621094 317.257812 1295.230469 318.949219 C 1295.792969 320.519531 1296.359375 322.085938 1296.921875 323.652344 C 1296.953125 323.738281 1296.953125 323.738281 1296.988281 323.828125 C 1297.179688 324.355469 1297.367188 324.886719 1297.558594 325.417969 C 1297.855469 326.234375 1298.148438 327.050781 1298.445312 327.871094 C 1298.464844 327.925781 1298.484375 327.984375 1298.507812 328.042969 C 1298.671875 328.503906 1298.839844 328.960938 1299.003906 329.421875 C 1299.148438 329.824219 1299.296875 330.226562 1299.441406 330.628906 C 1299.460938 330.6875 1299.480469 330.746094 1299.503906 330.804688 C 1299.796875 331.621094 1300.09375 332.441406 1300.390625 333.261719 C 1301.210938 335.539062 1302.03125 337.820312 1302.851562 340.097656 C 1303.417969 341.664062 1303.980469 343.230469 1304.546875 344.800781 C 1304.566406 344.855469 1304.589844 344.914062 1304.609375 344.972656 C 1304.929688 345.859375 1305.25 346.746094 1305.566406 347.628906 C 1305.910156 348.574219 1306.25 349.515625 1306.589844 350.460938 C 1306.609375 350.519531 1306.632812 350.574219 1306.652344 350.636719 C 1307.261719 352.328125 1307.871094 354.019531 1308.480469 355.710938 C 1309.042969 357.277344 1309.609375 358.84375 1310.175781 360.410156 C 1310.207031 360.496094 1310.207031 360.496094 1310.238281 360.585938 C 1310.429688 361.117188 1310.621094 361.648438 1310.8125 362.175781 C 1311.105469 362.996094 1311.402344 363.8125 1311.695312 364.628906 C 1311.714844 364.6875 1311.738281 364.742188 1311.757812 364.800781 C 1311.925781 365.261719 1312.089844 365.722656 1312.257812 366.179688 C 1312.402344 366.582031 1312.546875 366.988281 1312.691406 367.390625 C 1312.710938 367.445312 1312.734375 367.503906 1312.753906 367.5625 C 1313.050781 368.382812 1313.34375 369.199219 1313.640625 370.019531 C 1314.460938 372.296875 1315.285156 374.578125 1316.105469 376.859375 C 1316.667969 378.425781 1317.234375 379.992188 1317.796875 381.558594 C 1317.820312 381.617188 1317.839844 381.671875 1317.863281 381.734375 C 1318.179688 382.617188 1318.5 383.503906 1318.820312 384.386719 C 1319.160156 385.332031 1319.5 386.277344 1319.839844 387.21875 C 1319.863281 387.277344 1319.882812 387.335938 1319.902344 387.394531 C 1320.515625 389.085938 1321.125 390.777344 1321.730469 392.46875 C 1322.296875 394.035156 1322.859375 395.601562 1323.425781 397.167969 C 1323.457031 397.253906 1323.457031 397.253906 1323.488281 397.34375 C 1323.679688 397.875 1323.871094 398.40625 1324.0625 398.9375 C 1324.398438 399.867188 1324.734375 400.800781 1325.070312 401.734375 C 1325.257812 402.25 1325.445312 402.769531 1325.632812 403.285156 C 1325.734375 403.574219 1325.839844 403.859375 1325.945312 404.148438 C 1325.964844 404.207031 1325.984375 404.261719 1326.003906 404.320312 C 1326.300781 405.140625 1326.59375 405.957031 1326.890625 406.773438 C 1327.898438 409.585938 1328.921875 412.390625 1329.972656 415.1875 C 1330.152344 415.664062 1330.328125 416.136719 1330.503906 416.613281 C 1331.859375 420.257812 1333.25 423.886719 1334.714844 427.488281 C 1334.796875 427.691406 1334.878906 427.894531 1334.960938 428.097656 C 1336.152344 431.035156 1337.375 433.96875 1338.699219 436.851562 C 1338.765625 436.996094 1338.765625 436.996094 1338.832031 437.144531 C 1338.871094 437.226562 1338.90625 437.308594 1338.945312 437.390625 C 1339.09375 437.75 1339.210938 438.117188 1339.332031 438.484375 C 1318.335938 438.484375 1297.339844 438.484375 1275.707031 438.484375 C 1275.125 435.160156 1275.125 435.160156 1274.527344 431.765625 C 1274.203125 430.039062 1273.875 428.316406 1273.527344 426.59375 C 1273.507812 426.492188 1273.488281 426.394531 1273.46875 426.292969 C 1271.84375 418.246094 1269.589844 410.414062 1267.085938 402.605469 C 1266.65625 401.261719 1266.230469 399.917969 1265.808594 398.574219 C 1265.21875 396.707031 1264.625 394.839844 1264.03125 392.972656 C 1263.921875 392.636719 1263.816406 392.300781 1263.707031 391.960938 C 1263.6875 391.898438 1263.667969 391.832031 1263.644531 391.765625 C 1262.683594 388.75 1262.683594 388.75 1262.402344 387.859375 C 1262.355469 387.714844 1262.308594 387.570312 1262.261719 387.421875 C 1262.203125 387.230469 1262.140625 387.039062 1262.078125 386.847656 C 1262.03125 386.691406 1262.03125 386.691406 1261.980469 386.53125 C 1261.910156 386.292969 1261.910156 386.292969 1261.910156 386.113281 C 1223.679688 386.15625 1223.679688 386.15625 1184.671875 386.203125 C 1183.65625 389.359375 1182.636719 392.515625 1181.640625 395.675781 C 1181.214844 397.039062 1180.78125 398.398438 1180.347656 399.757812 C 1180.289062 399.949219 1180.226562 400.136719 1180.167969 400.324219 C 1179.800781 401.472656 1179.4375 402.621094 1179.070312 403.769531 C 1178.988281 404.027344 1178.90625 404.285156 1178.824219 404.542969 C 1178.804688 404.605469 1178.785156 404.671875 1178.761719 404.734375 C 1178.421875 405.804688 1178.082031 406.871094 1177.742188 407.941406 C 1177.566406 408.496094 1177.390625 409.054688 1177.210938 409.609375 C 1174.347656 418.5625 1172.097656 427.65625 1170.796875 436.972656 C 1170.777344 437.105469 1170.777344 437.105469 1170.757812 437.238281 C 1170.734375 437.40625 1170.714844 437.570312 1170.691406 437.734375 C 1170.613281 438.28125 1170.613281 438.28125 1170.511719 438.484375 C 1149.515625 438.484375 1128.519531 438.484375 1106.890625 438.484375 C 1107.707031 436.757812 1107.707031 436.757812 1108.070312 435.992188 C 1111.804688 428.179688 1114.675781 419.984375 1119.410156 406.691406 C 1119.980469 405.0625 1120.5625 403.429688 1121.152344 401.804688 C 1121.554688 400.695312 1121.953125 399.582031 1122.351562 398.472656 C 1122.421875 398.28125 1122.488281 398.089844 1122.558594 397.902344 C 1123.445312 395.425781 1124.335938 392.945312 1125.222656 390.46875 C 1125.503906 389.6875 1125.78125 388.90625 1126.0625 388.125 C 1126.097656 388.027344 1126.132812 387.929688 1126.167969 387.832031 C 1126.796875 386.078125 1127.425781 384.324219 1128.058594 382.570312 C 1128.679688 380.839844 1129.300781 379.113281 1129.917969 377.382812 C 1129.972656 377.234375 1129.972656 377.234375 1130.027344 377.085938 C 1130.269531 376.402344 1130.515625 375.722656 1130.757812 375.039062 C 1131.039062 374.257812 1131.320312 373.476562 1131.597656 372.695312 C 1131.632812 372.597656 1131.667969 372.5 1131.707031 372.402344 C 1132.332031 370.648438 1132.964844 368.894531 1133.59375 367.140625 C 1134.214844 365.410156 1134.835938 363.683594 1135.457031 361.953125 C 1135.492188 361.855469 1135.527344 361.757812 1135.5625 361.65625 C 1135.808594 360.972656 1136.050781 360.292969 1136.296875 359.609375 C 1136.574219 358.828125 1136.855469 358.046875 1137.136719 357.265625 C 1137.171875 357.167969 1137.207031 357.070312 1137.242188 356.972656 C 1137.871094 355.21875 1138.5 353.464844 1139.132812 351.710938 C 1139.753906 349.980469 1140.375 348.253906 1140.992188 346.523438 C 1141.027344 346.425781 1141.0625 346.328125 1141.097656 346.226562 C 1141.34375 345.546875 1141.589844 344.863281 1141.832031 344.179688 C 1142.113281 343.398438 1142.390625 342.617188 1142.671875 341.835938 C 1142.707031 341.738281 1142.742188 341.640625 1142.777344 341.542969 C 1143.40625 339.789062 1144.039062 338.035156 1144.667969 336.28125 C 1145.289062 334.550781 1145.910156 332.824219 1146.53125 331.09375 C 1146.566406 330.996094 1146.597656 330.898438 1146.636719 330.796875 C 1146.878906 330.117188 1147.125 329.433594 1147.367188 328.75 C 1147.648438 327.96875 1147.929688 327.1875 1148.207031 326.40625 C 1148.242188 326.308594 1148.277344 326.210938 1148.316406 326.113281 C 1148.945312 324.359375 1149.574219 322.605469 1150.203125 320.851562 C 1150.824219 319.121094 1151.445312 317.394531 1152.066406 315.664062 C 1152.101562 315.566406 1152.136719 315.46875 1152.171875 315.367188 C 1152.417969 314.6875 1152.660156 314.003906 1152.90625 313.320312 C 1153.183594 312.539062 1153.464844 311.757812 1153.746094 310.976562 C 1153.796875 310.832031 1153.796875 310.832031 1153.851562 310.683594 C 1154.480469 308.929688 1155.109375 307.175781 1155.742188 305.421875 C 1156.363281 303.691406 1156.984375 301.964844 1157.601562 300.234375 C 1157.636719 300.136719 1157.671875 300.039062 1157.707031 299.9375 C 1157.953125 299.257812 1158.199219 298.574219 1158.441406 297.890625 C 1158.722656 297.109375 1159 296.328125 1159.28125 295.550781 C 1159.335938 295.402344 1159.335938 295.402344 1159.386719 295.253906 C 1160.015625 293.5 1160.648438 291.746094 1161.277344 289.992188 C 1161.898438 288.261719 1162.519531 286.535156 1163.140625 284.804688 C 1163.175781 284.707031 1163.210938 284.609375 1163.246094 284.507812 C 1163.488281 283.828125 1163.734375 283.144531 1163.980469 282.460938 C 1164.257812 281.679688 1164.539062 280.898438 1164.816406 280.121094 C 1164.871094 279.972656 1164.871094 279.972656 1164.925781 279.824219 C 1165.554688 278.070312 1166.183594 276.316406 1166.8125 274.5625 C 1167.433594 272.832031 1168.054688 271.105469 1168.675781 269.375 C 1168.710938 269.277344 1168.746094 269.179688 1168.78125 269.078125 C 1169.027344 268.398438 1169.269531 267.714844 1169.515625 267.03125 C 1169.792969 266.25 1170.074219 265.46875 1170.355469 264.691406 C 1170.40625 264.542969 1170.40625 264.542969 1170.460938 264.394531 C 1171.089844 262.640625 1171.71875 260.886719 1172.351562 259.132812 C 1172.972656 257.402344 1173.59375 255.675781 1174.210938 253.945312 C 1174.246094 253.847656 1174.28125 253.75 1174.316406 253.648438 C 1174.5625 252.96875 1174.808594 252.285156 1175.050781 251.601562 C 1175.625 250 1176.199219 248.394531 1176.777344 246.792969 C 1176.796875 246.734375 1176.816406 246.679688 1176.839844 246.617188 C 1177.148438 245.753906 1177.457031 244.890625 1177.769531 244.023438 C 1177.835938 243.835938 1177.90625 243.648438 1177.972656 243.460938 C 1178.457031 242.105469 1178.949219 240.75 1179.441406 239.398438 C 1181.878906 232.742188 1184.191406 226.007812 1185.851562 219.109375 C 1185.875 219.007812 1185.875 219.007812 1185.902344 218.90625 C 1186.320312 217.171875 1186.6875 215.429688 1187.015625 213.671875 C 1187.03125 213.605469 1187.042969 213.539062 1187.054688 213.46875 C 1187.089844 213.289062 1187.121094 213.105469 1187.15625 212.925781 C 1187.234375 212.578125 1187.234375 212.578125 1187.503906 212.5625 Z M 1222.792969 259.316406 C 1222.769531 259.386719 1222.75 259.457031 1222.726562 259.527344 C 1221.8125 262.484375 1220.898438 265.4375 1219.980469 268.394531 C 1219.382812 270.320312 1218.785156 272.246094 1218.1875 274.175781 C 1218.164062 274.242188 1218.144531 274.308594 1218.125 274.378906 C 1217.804688 275.410156 1217.484375 276.4375 1217.164062 277.46875 C 1216.824219 278.570312 1216.484375 279.667969 1216.144531 280.765625 C 1216.125 280.832031 1216.101562 280.902344 1216.082031 280.96875 C 1215.472656 282.933594 1214.863281 284.898438 1214.253906 286.863281 C 1213.6875 288.683594 1213.125 290.507812 1212.558594 292.328125 C 1212.539062 292.394531 1212.515625 292.460938 1212.496094 292.53125 C 1212.175781 293.5625 1211.859375 294.59375 1211.539062 295.621094 C 1211.199219 296.722656 1210.859375 297.820312 1210.515625 298.917969 C 1210.496094 298.984375 1210.476562 299.054688 1210.453125 299.121094 C 1209.84375 301.085938 1209.234375 303.050781 1208.625 305.015625 C 1208.0625 306.835938 1207.496094 308.660156 1206.933594 310.480469 C 1206.910156 310.546875 1206.890625 310.613281 1206.867188 310.683594 C 1206.550781 311.714844 1206.230469 312.746094 1205.910156 313.773438 C 1205.570312 314.875 1205.230469 315.972656 1204.890625 317.070312 C 1204.867188 317.136719 1204.847656 317.207031 1204.828125 317.273438 C 1204.21875 319.238281 1203.609375 321.203125 1203 323.167969 C 1202.347656 325.261719 1201.703125 327.351562 1201.054688 329.441406 C 1200.96875 329.714844 1200.886719 329.984375 1200.800781 330.257812 C 1200.78125 330.324219 1200.757812 330.390625 1200.738281 330.460938 C 1200.425781 331.46875 1200.113281 332.476562 1199.800781 333.484375 C 1199.664062 333.921875 1199.527344 334.363281 1199.390625 334.800781 C 1199.285156 335.152344 1199.175781 335.5 1199.066406 335.847656 C 1198.804688 336.691406 1198.546875 337.53125 1198.285156 338.371094 C 1198.257812 338.46875 1198.226562 338.566406 1198.195312 338.667969 C 1198.117188 338.929688 1198.035156 339.1875 1197.957031 339.445312 C 1197.933594 339.519531 1197.914062 339.59375 1197.890625 339.667969 C 1197.808594 339.941406 1197.742188 340.171875 1197.742188 340.460938 C 1214.515625 340.460938 1231.289062 340.460938 1248.570312 340.460938 C 1248.367188 339.707031 1248.367188 339.707031 1248.144531 338.960938 C 1248.117188 338.871094 1248.089844 338.785156 1248.0625 338.699219 C 1248.03125 338.605469 1248.003906 338.515625 1247.972656 338.421875 C 1247.925781 338.277344 1247.925781 338.277344 1247.878906 338.125 C 1247.777344 337.800781 1247.671875 337.476562 1247.570312 337.152344 C 1247.496094 336.921875 1247.425781 336.691406 1247.351562 336.460938 C 1247.199219 335.976562 1247.046875 335.496094 1246.894531 335.011719 C 1246.671875 334.316406 1246.453125 333.621094 1246.234375 332.925781 C 1245.910156 331.90625 1245.585938 330.886719 1245.265625 329.871094 C 1244.90625 328.734375 1244.542969 327.597656 1244.183594 326.457031 C 1244.003906 325.890625 1243.824219 325.324219 1243.644531 324.757812 C 1243.574219 324.53125 1243.5 324.304688 1243.429688 324.078125 C 1243.394531 323.964844 1243.359375 323.851562 1243.320312 323.734375 C 1236.207031 301.273438 1236.207031 301.273438 1227.371094 273.363281 C 1227.296875 273.136719 1227.226562 272.910156 1227.15625 272.683594 C 1226.976562 272.117188 1226.796875 271.550781 1226.617188 270.984375 C 1226.289062 269.949219 1225.960938 268.914062 1225.632812 267.882812 C 1225.503906 267.472656 1225.375 267.0625 1225.242188 266.652344 C 1225.152344 266.363281 1225.0625 266.074219 1224.96875 265.789062 C 1224.597656 264.609375 1224.222656 263.429688 1223.859375 262.246094 C 1223.816406 262.101562 1223.816406 262.101562 1223.769531 261.953125 C 1223.628906 261.5 1223.492188 261.046875 1223.355469 260.589844 C 1223.304688 260.433594 1223.257812 260.277344 1223.210938 260.121094 C 1223.1875 260.046875 1223.167969 259.976562 1223.144531 259.902344 C 1223.09375 259.734375 1223.035156 259.570312 1222.972656 259.410156 C 1222.914062 259.378906 1222.855469 259.347656 1222.792969 259.316406 Z M 1222.792969 259.316406 "/><path style=" stroke:none;fill-rule:nonzero;fill:#ffae6c;fill-opacity:1;" d="M 697.1875 212.574219 C 715.578125 212.574219 733.96875 212.574219 752.914062 212.574219 C 752.703125 214.28125 752.496094 215.988281 752.277344 217.75 C 752.097656 219.402344 752.097656 219.402344 751.933594 221.058594 C 751.925781 221.152344 751.914062 221.246094 751.90625 221.34375 C 751.441406 226.558594 751.171875 231.789062 750.996094 237.019531 C 750.992188 237.121094 750.988281 237.226562 750.988281 237.335938 C 750.960938 238.058594 750.941406 238.78125 750.921875 239.503906 C 750.917969 239.714844 750.910156 239.921875 750.90625 240.128906 C 750.816406 243.421875 750.8125 246.714844 750.816406 250.007812 C 750.816406 250.828125 750.816406 251.652344 750.8125 252.476562 C 750.8125 254.011719 750.8125 255.546875 750.8125 257.085938 C 750.8125 258.636719 750.8125 260.191406 750.8125 261.746094 C 750.8125 261.894531 750.8125 261.894531 750.8125 262.046875 C 750.8125 262.449219 750.8125 262.847656 750.8125 263.25 C 750.8125 267.429688 750.8125 271.609375 750.8125 275.789062 C 750.8125 276.238281 750.8125 276.6875 750.8125 277.136719 C 750.8125 277.246094 750.8125 277.359375 750.8125 277.472656 C 750.8125 279.949219 750.8125 282.425781 750.8125 284.902344 C 750.8125 285.925781 750.8125 286.949219 750.8125 287.96875 C 750.8125 288.082031 750.8125 288.195312 750.8125 288.3125 C 750.808594 294.777344 750.808594 301.246094 750.808594 307.710938 C 750.808594 307.953125 750.808594 308.195312 750.808594 308.4375 C 750.808594 309.585938 750.808594 310.738281 750.808594 311.890625 C 750.808594 312.253906 750.808594 312.621094 750.808594 312.984375 C 750.808594 313.289062 750.808594 313.59375 750.808594 313.898438 C 750.808594 319.640625 750.808594 325.386719 750.808594 331.128906 C 750.808594 331.191406 750.808594 331.25 750.808594 331.3125 C 750.808594 333.199219 750.808594 335.089844 750.808594 336.976562 C 750.808594 338.914062 750.808594 340.851562 750.808594 342.789062 C 750.808594 342.90625 750.808594 343.027344 750.808594 343.148438 C 750.808594 346.835938 750.804688 350.519531 750.804688 354.203125 C 750.804688 354.316406 750.804688 354.433594 750.804688 354.554688 C 750.804688 357.097656 750.804688 359.640625 750.804688 362.183594 C 750.804688 363.09375 750.804688 364.007812 750.804688 364.917969 C 750.804688 365.144531 750.804688 365.371094 750.804688 365.597656 C 750.804688 369.191406 750.804688 372.78125 750.804688 376.375 C 750.804688 380 750.804688 383.625 750.804688 387.25 C 750.804688 387.753906 750.804688 388.257812 750.804688 388.761719 C 750.804688 388.859375 750.804688 388.957031 750.804688 389.058594 C 750.804688 390.605469 750.804688 392.152344 750.804688 393.699219 C 750.804688 395.230469 750.804688 396.761719 750.804688 398.292969 C 750.804688 399.105469 750.804688 399.921875 750.804688 400.734375 C 750.800781 404.035156 750.828125 407.335938 750.910156 410.636719 C 750.914062 410.710938 750.914062 410.785156 750.917969 410.859375 C 750.957031 412.457031 751.007812 414.050781 751.070312 415.648438 C 751.070312 415.710938 751.074219 415.773438 751.078125 415.835938 C 751.257812 420.523438 751.570312 425.207031 751.996094 429.878906 C 752.003906 429.984375 752.015625 430.089844 752.023438 430.195312 C 752.277344 432.964844 752.609375 435.722656 752.914062 438.484375 C 735.242188 438.484375 717.570312 438.484375 699.363281 438.484375 C 699.363281 425.867188 699.363281 425.867188 699.457031 424.050781 C 699.222656 424.25 699.222656 424.25 698.984375 424.449219 C 698.457031 424.890625 697.914062 425.3125 697.367188 425.730469 C 697.160156 425.886719 696.953125 426.046875 696.746094 426.207031 C 695.929688 426.832031 695.109375 427.453125 694.269531 428.050781 C 693.9375 428.292969 693.601562 428.53125 693.269531 428.773438 C 692.304688 429.480469 691.320312 430.152344 690.316406 430.808594 C 690.242188 430.855469 690.167969 430.90625 690.089844 430.957031 C 688.898438 431.738281 687.703125 432.496094 686.476562 433.21875 C 686.339844 433.300781 686.339844 433.300781 686.203125 433.378906 C 684.714844 434.261719 683.199219 435.082031 681.652344 435.855469 C 681.484375 435.941406 681.316406 436.027344 681.152344 436.109375 C 674.417969 439.511719 667.160156 441.496094 637.828125 443.203125 C 637.746094 443.195312 637.664062 443.191406 637.578125 443.183594 C 629.84375 442.621094 622.277344 441.1875 602.792969 433.128906 C 602.703125 433.074219 602.609375 433.023438 602.515625 432.96875 C 601.09375 432.132812 599.707031 431.246094 598.347656 430.3125 C 598.238281 430.238281 598.238281 430.238281 598.125 430.164062 C 597.210938 429.53125 596.320312 428.867188 595.441406 428.1875 C 595.269531 428.050781 595.097656 427.917969 594.925781 427.789062 C 594.222656 427.242188 593.546875 426.675781 592.875 426.09375 C 592.722656 425.960938 592.566406 425.828125 592.410156 425.699219 C 591.050781 424.554688 589.789062 423.308594 588.53125 422.054688 C 588.472656 421.996094 588.417969 421.941406 588.359375 421.882812 C 587.765625 421.289062 587.179688 420.699219 586.636719 420.058594 C 586.492188 419.898438 586.34375 419.734375 586.195312 419.574219 C 585.824219 419.167969 585.46875 418.75 585.125 418.320312 C 584.941406 418.09375 584.75 417.871094 584.558594 417.648438 C 583.535156 416.457031 582.609375 415.183594 581.695312 413.902344 C 581.5625 413.714844 581.425781 413.527344 581.289062 413.339844 C 580.03125 411.59375 578.902344 409.761719 577.832031 407.894531 C 577.757812 407.765625 577.757812 407.765625 577.679688 407.632812 C 576.261719 405.148438 574.988281 402.617188 573.839844 400 C 573.8125 399.941406 573.789062 399.882812 573.761719 399.824219 C 571.886719 395.542969 570.382812 391.089844 569.210938 386.566406 C 569.195312 386.5 569.175781 386.4375 569.160156 386.367188 C 567.023438 378.113281 565.960938 369.664062 565.582031 361.152344 C 565.578125 361.078125 565.574219 361 565.570312 360.921875 C 565.527344 359.910156 565.5 358.898438 565.488281 357.886719 C 565.488281 357.757812 565.488281 357.757812 565.488281 357.628906 C 565.382812 348.207031 566.0625 338.773438 577.652344 303.882812 C 577.75 303.714844 577.847656 303.546875 577.941406 303.378906 C 578.925781 301.6875 579.96875 300.035156 581.101562 298.4375 C 581.144531 298.375 581.1875 298.3125 581.234375 298.246094 C 582.476562 296.496094 583.785156 294.792969 585.175781 293.15625 C 585.449219 292.835938 585.714844 292.511719 585.980469 292.183594 C 586.253906 291.847656 586.535156 291.535156 586.847656 291.234375 C 587.007812 291.078125 587.15625 290.910156 587.300781 290.738281 C 587.625 290.363281 587.972656 290.019531 588.324219 289.671875 C 588.511719 289.480469 588.6875 289.285156 588.859375 289.082031 C 589.164062 288.730469 589.5 288.429688 589.847656 288.121094 C 590.09375 287.902344 590.320312 287.675781 590.550781 287.441406 C 590.867188 287.121094 591.191406 286.816406 591.535156 286.527344 C 591.746094 286.34375 591.949219 286.15625 592.15625 285.96875 C 592.542969 285.617188 592.941406 285.285156 593.347656 284.957031 C 593.546875 284.792969 593.75 284.628906 593.949219 284.464844 C 595.898438 282.859375 597.953125 281.390625 600.070312 280.011719 C 600.136719 279.96875 600.203125 279.925781 600.273438 279.878906 C 606.714844 275.695312 613.820312 272.75 621.21875 270.753906 C 621.328125 270.722656 621.433594 270.695312 621.546875 270.664062 C 625.738281 269.542969 630.0625 268.820312 634.378906 268.394531 C 634.472656 268.382812 634.472656 268.382812 634.570312 268.375 C 638.367188 268 642.183594 267.886719 645.996094 267.941406 C 646.09375 267.941406 646.09375 267.941406 646.195312 267.941406 C 654.199219 268.050781 662.285156 269.046875 677.492188 274.203125 C 677.582031 274.242188 677.671875 274.28125 677.761719 274.320312 C 678.28125 274.546875 678.792969 274.78125 679.304688 275.019531 C 679.429688 275.078125 679.429688 275.078125 679.554688 275.136719 C 681.859375 276.214844 684.125 277.367188 686.304688 278.675781 C 686.570312 278.832031 686.835938 278.988281 687.101562 279.144531 C 688.664062 280.0625 690.167969 281.0625 691.671875 282.082031 C 691.816406 282.179688 691.960938 282.277344 692.105469 282.375 C 693.652344 283.417969 695.15625 284.515625 696.636719 285.652344 C 697.050781 285.96875 697.464844 286.28125 697.882812 286.589844 C 698.417969 286.988281 698.941406 287.394531 699.457031 287.816406 C 699.464844 287.222656 699.457031 286.632812 699.421875 286.042969 C 699.347656 284.726562 699.347656 283.410156 699.347656 282.089844 C 699.347656 281.742188 699.347656 281.390625 699.34375 281.039062 C 699.34375 280.429688 699.34375 279.824219 699.339844 279.214844 C 699.339844 278.324219 699.335938 277.433594 699.335938 276.542969 C 699.332031 275.078125 699.328125 273.617188 699.324219 272.15625 C 699.324219 272.070312 699.324219 271.980469 699.324219 271.890625 C 699.324219 271.539062 699.320312 271.1875 699.320312 270.832031 C 699.3125 267.855469 699.308594 264.878906 699.300781 261.902344 C 699.300781 261.820312 699.300781 261.738281 699.296875 261.652344 C 699.285156 257.230469 699.269531 252.808594 699.234375 248.382812 C 699.230469 248.050781 699.226562 247.71875 699.226562 247.386719 C 699.15625 239.117188 698.914062 230.851562 697.3125 214.25 C 697.304688 214.1875 697.292969 214.128906 697.285156 214.0625 C 697.261719 213.90625 697.238281 213.75 697.21875 213.59375 C 697.179688 213.253906 697.1875 212.914062 697.1875 212.574219 Z M 632.425781 318.109375 C 632.300781 318.222656 632.175781 318.332031 632.050781 318.441406 C 631.535156 318.882812 631.050781 319.355469 630.574219 319.832031 C 630.4375 319.96875 630.300781 320.101562 630.164062 320.238281 C 629.59375 320.808594 629.074219 321.402344 628.570312 322.035156 C 628.472656 322.152344 628.375 322.269531 628.277344 322.386719 C 622.570312 329.242188 619.808594 338.136719 618.503906 362.421875 C 619.203125 369.90625 621.058594 377.238281 631.835938 392.558594 C 631.910156 392.625 631.984375 392.695312 632.058594 392.765625 C 632.757812 393.414062 633.523438 393.984375 634.289062 394.554688 C 634.339844 394.59375 634.394531 394.632812 634.449219 394.675781 C 640.964844 399.542969 649.511719 402.007812 657.613281 401.816406 C 657.683594 401.8125 657.757812 401.8125 657.828125 401.8125 C 663.890625 401.703125 669.933594 400.265625 675.316406 397.460938 C 675.507812 397.359375 675.703125 397.261719 675.894531 397.164062 C 678.929688 395.625 681.671875 393.546875 684.160156 391.234375 C 684.300781 391.101562 684.445312 390.972656 684.589844 390.839844 C 685.242188 390.25 685.851562 389.632812 686.441406 388.976562 C 686.5625 388.84375 686.683594 388.707031 686.808594 388.574219 C 689.566406 385.582031 691.75 382.125 693.554688 378.488281 C 693.601562 378.398438 693.644531 378.3125 693.691406 378.21875 C 696.449219 372.722656 697.933594 366.617188 698.546875 360.519531 C 698.558594 360.417969 698.566406 360.320312 698.578125 360.222656 C 698.863281 357.378906 698.902344 354.472656 698.730469 351.625 C 698.722656 351.53125 698.722656 351.53125 698.71875 351.4375 C 698.226562 343.347656 696.015625 335.246094 687.476562 322.851562 C 687.429688 322.804688 687.386719 322.753906 687.34375 322.703125 C 686.765625 322.058594 686.160156 321.4375 685.546875 320.820312 C 685.476562 320.753906 685.410156 320.683594 685.339844 320.613281 C 684.917969 320.191406 684.480469 319.792969 684.027344 319.402344 C 683.894531 319.289062 683.894531 319.289062 683.761719 319.167969 C 681.667969 317.367188 679.367188 315.820312 676.945312 314.5 C 676.867188 314.457031 676.789062 314.414062 676.707031 314.367188 C 671.78125 311.648438 666.199219 310.167969 660.609375 309.691406 C 660.464844 309.679688 660.464844 309.679688 660.320312 309.664062 C 651.582031 308.972656 642.585938 310.792969 632.425781 318.109375 Z M 632.425781 318.109375 "/><path style=" stroke:none;fill-rule:nonzero;fill:#ffae6c;fill-opacity:1;" d="M 890.875 270.84375 C 890.9375 270.863281 891 270.886719 891.066406 270.90625 C 896.375 272.632812 901.511719 274.972656 906.304688 277.832031 C 906.390625 277.882812 906.476562 277.933594 906.566406 277.988281 C 910.339844 280.222656 913.925781 282.867188 917.171875 285.816406 C 917.351562 285.976562 917.53125 286.136719 917.710938 286.289062 C 918.773438 287.222656 919.78125 288.214844 920.78125 289.210938 C 920.835938 289.269531 920.890625 289.324219 920.949219 289.378906 C 922.03125 290.457031 922.03125 290.457031 922.511719 291.023438 C 922.710938 291.257812 922.921875 291.480469 923.128906 291.703125 C 923.515625 292.121094 923.882812 292.554688 924.242188 293 C 924.441406 293.246094 924.648438 293.484375 924.855469 293.726562 C 925.363281 294.3125 925.847656 294.914062 926.316406 295.535156 C 926.472656 295.742188 926.632812 295.945312 926.789062 296.152344 C 927.542969 297.125 928.261719 298.113281 928.945312 299.136719 C 929.082031 299.34375 929.222656 299.546875 929.363281 299.753906 C 930.910156 302.054688 932.316406 304.429688 933.621094 306.878906 C 933.667969 306.957031 933.710938 307.039062 933.753906 307.125 C 936.03125 311.390625 937.878906 315.828125 939.433594 320.402344 C 939.453125 320.464844 939.476562 320.53125 939.5 320.597656 C 940.304688 322.957031 940.984375 325.34375 941.609375 327.753906 C 941.632812 327.835938 941.652344 327.917969 941.675781 328.003906 C 943.851562 336.359375 944.796875 344.945312 946.210938 366.488281 C 946.230469 367.449219 946.289062 368.402344 946.359375 369.359375 C 946.367188 369.464844 946.375 369.566406 946.382812 369.675781 C 946.394531 369.808594 946.394531 369.808594 946.40625 369.949219 C 946.421875 370.28125 946.421875 370.621094 946.421875 370.957031 C 906.136719 370.957031 865.851562 370.957031 824.34375 370.957031 C 825.199219 376.371094 826.308594 381.769531 828.878906 386.660156 C 828.984375 386.855469 829.082031 387.050781 829.183594 387.25 C 830.195312 389.238281 831.429688 391.128906 832.875 392.828125 C 832.984375 392.960938 832.984375 392.960938 833.09375 393.097656 C 833.695312 393.828125 834.347656 394.503906 835.015625 395.171875 C 835.058594 395.214844 835.101562 395.261719 835.148438 395.304688 C 835.75 395.914062 836.378906 396.472656 837.050781 397.003906 C 837.148438 397.082031 837.242188 397.160156 837.339844 397.238281 C 843.539062 402.097656 851.621094 404.347656 859.425781 404.375 C 859.550781 404.375 859.671875 404.375 859.792969 404.375 C 860.179688 404.378906 860.570312 404.378906 860.957031 404.378906 C 861.023438 404.378906 861.089844 404.378906 861.15625 404.378906 C 863.117188 404.378906 865.058594 404.359375 867.003906 404.082031 C 867.132812 404.066406 867.265625 404.046875 867.394531 404.03125 C 871.386719 403.484375 875.328125 402.4375 878.984375 400.726562 C 879.144531 400.652344 879.304688 400.578125 879.46875 400.503906 C 881.957031 399.363281 884.273438 397.878906 886.425781 396.1875 C 886.515625 396.117188 886.605469 396.046875 886.699219 395.972656 C 887.242188 395.539062 887.753906 395.078125 888.261719 394.601562 C 888.460938 394.417969 888.664062 394.242188 888.871094 394.066406 C 889.660156 393.378906 890.390625 392.628906 891.039062 391.804688 C 891.25 391.542969 891.464844 391.289062 891.683594 391.035156 C 893.976562 388.28125 895.363281 384.746094 896.359375 381.347656 C 896.386719 381.257812 896.414062 381.171875 896.441406 381.078125 C 896.464844 381.003906 896.488281 380.925781 896.511719 380.84375 C 896.535156 380.785156 896.5625 380.726562 896.59375 380.667969 C 896.9375 380.550781 897.164062 380.636719 897.5 380.738281 C 897.566406 380.753906 897.632812 380.773438 897.699219 380.792969 C 897.917969 380.855469 898.132812 380.917969 898.351562 380.980469 C 898.507812 381.023438 898.660156 381.066406 898.816406 381.113281 C 899.148438 381.207031 899.480469 381.300781 899.8125 381.398438 C 900.339844 381.546875 900.867188 381.699219 901.394531 381.847656 C 902.023438 382.027344 902.652344 382.207031 903.28125 382.386719 C 904.683594 382.785156 906.085938 383.179688 907.488281 383.574219 C 907.882812 383.6875 908.277344 383.796875 908.667969 383.90625 C 908.734375 383.925781 908.800781 383.945312 908.867188 383.960938 C 908.996094 384 909.128906 384.035156 909.261719 384.074219 C 909.519531 384.148438 909.78125 384.21875 910.042969 384.292969 C 910.90625 384.535156 911.765625 384.78125 912.628906 385.023438 C 912.730469 385.050781 912.730469 385.050781 912.832031 385.078125 C 913.167969 385.175781 913.503906 385.269531 913.839844 385.363281 C 914.445312 385.535156 915.050781 385.703125 915.65625 385.875 C 915.992188 385.96875 916.324219 386.0625 916.660156 386.160156 C 916.796875 386.195312 916.929688 386.234375 917.066406 386.273438 C 921.628906 387.558594 926.195312 388.84375 930.757812 390.128906 C 930.824219 390.148438 930.890625 390.167969 930.960938 390.1875 C 931.09375 390.222656 931.226562 390.261719 931.363281 390.300781 C 931.699219 390.394531 932.035156 390.488281 932.371094 390.582031 C 932.972656 390.753906 933.570312 390.921875 934.171875 391.089844 C 934.503906 391.183594 934.835938 391.277344 935.167969 391.371094 C 935.230469 391.390625 935.296875 391.40625 935.367188 391.425781 C 936.296875 391.6875 937.226562 391.949219 938.15625 392.210938 C 938.679688 392.359375 939.203125 392.503906 939.726562 392.652344 C 940.15625 392.773438 940.585938 392.890625 941.011719 393.011719 C 941.277344 393.085938 941.539062 393.160156 941.804688 393.234375 C 941.925781 393.269531 942.046875 393.300781 942.167969 393.335938 C 942.78125 393.507812 943.378906 393.683594 943.96875 393.917969 C 943.734375 394.707031 943.390625 395.4375 943.046875 396.183594 C 942.980469 396.324219 942.914062 396.464844 942.851562 396.605469 C 942.683594 396.96875 942.511719 397.335938 942.34375 397.699219 C 942.25 397.902344 942.15625 398.105469 942.0625 398.308594 C 940.816406 401 939.53125 403.679688 938.070312 406.261719 C 938.019531 406.351562 937.96875 406.445312 937.914062 406.539062 C 936.15625 409.644531 934.230469 412.648438 931.988281 415.429688 C 931.921875 415.515625 931.851562 415.601562 931.78125 415.6875 C 931.039062 416.597656 930.289062 417.496094 929.492188 418.359375 C 929.3125 418.558594 929.132812 418.757812 928.957031 418.960938 C 928.019531 420.035156 927.011719 421.050781 926.003906 422.058594 C 925.953125 422.113281 925.898438 422.167969 925.84375 422.222656 C 925.324219 422.742188 924.804688 423.261719 924.246094 423.738281 C 924.011719 423.9375 923.789062 424.148438 923.566406 424.359375 C 923.144531 424.746094 922.714844 425.113281 922.269531 425.472656 C 922.027344 425.667969 921.792969 425.867188 921.5625 426.070312 C 920.863281 426.675781 920.140625 427.242188 919.402344 427.796875 C 919.183594 427.960938 918.96875 428.125 918.75 428.289062 C 917.164062 429.496094 915.515625 430.605469 913.835938 431.675781 C 913.761719 431.722656 913.6875 431.773438 913.609375 431.820312 C 911.742188 433.003906 909.8125 434.070312 907.847656 435.074219 C 907.660156 435.171875 907.476562 435.265625 907.289062 435.363281 C 900.25 439.007812 892.542969 441.410156 869.636719 444.835938 C 869.503906 444.84375 869.503906 444.84375 869.371094 444.851562 C 864.367188 445.160156 859.296875 445.148438 854.296875 444.835938 C 854.203125 444.832031 854.113281 444.824219 854.015625 444.820312 C 845.140625 444.261719 836.367188 442.75 819.804688 436.617188 C 819.527344 436.484375 819.25 436.351562 818.96875 436.222656 C 815.488281 434.585938 812.144531 432.628906 809.007812 430.40625 C 808.941406 430.359375 808.878906 430.316406 808.816406 430.269531 C 807.328125 429.214844 805.867188 428.125 804.46875 426.957031 C 804.300781 426.820312 804.132812 426.683594 803.964844 426.546875 C 803.554688 426.214844 803.164062 425.867188 802.773438 425.515625 C 802.582031 425.34375 802.390625 425.171875 802.199219 425.003906 C 800.980469 423.941406 799.800781 422.84375 798.660156 421.703125 C 798.585938 421.632812 798.515625 421.5625 798.441406 421.488281 C 798.066406 421.109375 797.703125 420.722656 797.355469 420.320312 C 797.121094 420.050781 796.875 419.789062 796.628906 419.53125 C 796.199219 419.074219 795.792969 418.601562 795.402344 418.113281 C 795.210938 417.882812 795.015625 417.664062 794.8125 417.441406 C 794.355469 416.9375 793.9375 416.402344 793.519531 415.863281 C 793.398438 415.707031 793.277344 415.554688 793.152344 415.398438 C 787.699219 408.542969 783.484375 400.691406 774.972656 342.195312 C 775.960938 333.667969 777.914062 325.230469 786.707031 305.679688 C 786.847656 305.441406 786.992188 305.203125 787.132812 304.964844 C 788.164062 303.21875 789.246094 301.511719 790.449219 299.882812 C 790.613281 299.664062 790.769531 299.441406 790.925781 299.222656 C 791.804688 297.976562 792.75 296.78125 793.714844 295.601562 C 793.835938 295.457031 793.957031 295.308594 794.074219 295.160156 C 794.46875 294.675781 794.871094 294.207031 795.289062 293.746094 C 795.460938 293.558594 795.632812 293.367188 795.800781 293.171875 C 796.921875 291.890625 798.085938 290.652344 799.289062 289.445312 C 799.367188 289.363281 799.449219 289.285156 799.53125 289.203125 C 799.925781 288.804688 800.332031 288.421875 800.757812 288.054688 C 801.042969 287.808594 801.316406 287.542969 801.589844 287.285156 C 802.058594 286.847656 802.53125 286.429688 803.027344 286.03125 C 803.277344 285.828125 803.523438 285.617188 803.761719 285.402344 C 804.484375 284.769531 805.230469 284.183594 805.996094 283.609375 C 806.1875 283.460938 806.378906 283.316406 806.570312 283.167969 C 812.980469 278.191406 820.316406 274.394531 857.34375 266.347656 C 857.441406 266.34375 857.441406 266.34375 857.542969 266.339844 C 865.6875 266.113281 873.863281 266.742188 890.875 270.84375 Z M 855.292969 307.058594 C 855.128906 307.074219 855.128906 307.074219 854.960938 307.09375 C 846.984375 307.921875 839.652344 310.785156 832.875 317.585938 C 832.835938 317.636719 832.792969 317.683594 832.75 317.734375 C 829.328125 321.828125 827.035156 326.648438 825.542969 331.746094 C 825.511719 331.847656 825.511719 331.847656 825.480469 331.949219 C 825.253906 332.652344 825.253906 332.652344 825.160156 333.378906 C 848.132812 333.378906 871.109375 333.378906 894.777344 333.378906 C 894.347656 331.554688 894.347656 331.554688 893.847656 329.753906 C 893.8125 329.640625 893.777344 329.527344 893.742188 329.410156 C 892.382812 324.992188 890.214844 320.792969 887.152344 317.316406 C 887.089844 317.242188 887.03125 317.171875 886.964844 317.097656 C 885.976562 315.964844 884.902344 314.867188 883.703125 313.957031 C 883.585938 313.863281 883.464844 313.769531 883.347656 313.679688 C 878.617188 309.984375 872.953125 308.003906 867.039062 307.21875 C 866.933594 307.203125 866.832031 307.191406 866.726562 307.175781 C 864.664062 306.921875 862.597656 306.84375 860.519531 306.855469 C 860.40625 306.855469 860.292969 306.855469 860.175781 306.855469 C 858.542969 306.859375 856.921875 306.882812 855.292969 307.058594 Z M 855.292969 307.058594 "/><path style=" stroke:none;fill-rule:nonzero;fill:#ffae6c;fill-opacity:1;" d="M 238.5625 270.664062 C 238.625 270.675781 238.691406 270.691406 238.753906 270.707031 C 246.855469 272.527344 254.726562 276.015625 262.015625 282.246094 C 262.140625 282.359375 262.265625 282.476562 262.394531 282.585938 C 262.988281 283.089844 263.535156 283.640625 264.082031 284.191406 C 264.253906 284.363281 264.425781 284.53125 264.59375 284.703125 C 265.132812 285.242188 265.664062 285.78125 266.15625 286.363281 C 266.242188 286.464844 266.328125 286.566406 266.417969 286.664062 C 267.898438 288.378906 269.289062 290.171875 270.511719 292.082031 C 270.578125 292.1875 270.578125 292.1875 270.648438 292.292969 C 271.414062 293.496094 272.117188 294.722656 272.78125 295.984375 C 272.824219 296.070312 272.871094 296.15625 272.914062 296.242188 C 276.789062 303.636719 278.449219 312.121094 279.105469 321.5 C 279.113281 321.628906 279.113281 321.628906 279.121094 321.761719 C 279.277344 324.210938 279.328125 326.65625 279.328125 329.113281 C 279.328125 329.507812 279.328125 329.902344 279.328125 330.296875 C 279.328125 330.988281 279.332031 331.675781 279.332031 332.367188 C 279.332031 333.394531 279.332031 334.417969 279.332031 335.445312 C 279.335938 337.171875 279.335938 338.902344 279.335938 340.628906 C 279.335938 343.105469 279.339844 345.582031 279.339844 348.058594 C 279.34375 349.054688 279.34375 350.050781 279.34375 351.050781 C 279.34375 351.160156 279.34375 351.269531 279.34375 351.382812 C 279.347656 354.019531 279.347656 356.652344 279.351562 359.285156 C 279.351562 359.398438 279.351562 359.515625 279.351562 359.632812 C 279.351562 362.3125 279.355469 364.992188 279.355469 367.671875 C 279.355469 367.785156 279.355469 367.898438 279.355469 368.019531 C 279.355469 368.597656 279.359375 369.175781 279.359375 369.753906 C 279.359375 369.871094 279.359375 369.984375 279.359375 370.101562 C 279.359375 370.332031 279.359375 370.5625 279.359375 370.796875 C 279.359375 374.632812 279.363281 378.46875 279.367188 382.308594 C 279.367188 382.851562 279.367188 383.398438 279.371094 383.941406 C 279.371094 384.050781 279.371094 384.15625 279.371094 384.265625 C 279.371094 385.972656 279.371094 387.679688 279.371094 389.390625 C 279.375 391.113281 279.375 392.839844 279.375 394.5625 C 279.378906 395.496094 279.378906 396.425781 279.378906 397.355469 C 279.378906 401.015625 279.402344 404.671875 279.492188 408.328125 C 279.492188 408.40625 279.496094 408.484375 279.496094 408.5625 C 279.539062 410.21875 279.585938 411.878906 279.648438 413.535156 C 279.652344 413.632812 279.652344 413.632812 279.65625 413.730469 C 279.921875 420.929688 280.433594 428.121094 281.191406 435.285156 C 281.199219 435.351562 281.207031 435.414062 281.210938 435.480469 C 281.242188 435.777344 281.273438 436.074219 281.308594 436.371094 C 281.324219 436.527344 281.324219 436.527344 281.339844 436.691406 C 281.355469 436.824219 281.355469 436.824219 281.371094 436.964844 C 281.417969 437.46875 281.453125 437.976562 281.492188 438.484375 C 262.832031 438.484375 244.171875 438.484375 224.949219 438.484375 C 225.007812 437.671875 225.070312 436.867188 225.167969 436.0625 C 225.195312 435.835938 225.21875 435.613281 225.246094 435.390625 C 225.257812 435.273438 225.273438 435.15625 225.285156 435.035156 C 226.125 427.757812 226.578125 420.449219 226.855469 412.796875 C 226.859375 412.707031 226.859375 412.613281 226.863281 412.519531 C 227.039062 407.605469 227.050781 402.6875 227.050781 397.773438 C 227.050781 397 227.050781 396.226562 227.050781 395.453125 C 227.050781 393.851562 227.050781 392.25 227.050781 390.652344 C 227.050781 389.414062 227.050781 388.179688 227.050781 386.941406 C 227.050781 386.582031 227.050781 386.222656 227.050781 385.863281 C 227.050781 385.730469 227.050781 385.730469 227.050781 385.59375 C 227.050781 383.089844 227.054688 380.589844 227.054688 378.085938 C 227.054688 377.992188 227.054688 377.898438 227.054688 377.804688 C 227.054688 377.328125 227.054688 376.851562 227.050781 376.378906 C 227.050781 376.285156 227.050781 376.1875 227.050781 376.09375 C 227.050781 375.902344 227.050781 375.710938 227.050781 375.519531 C 227.050781 372.546875 227.054688 369.578125 227.054688 366.605469 C 227.054688 363.25 227.058594 359.894531 227.058594 356.539062 C 227.058594 356.183594 227.058594 355.824219 227.058594 355.464844 C 227.058594 355.375 227.058594 355.289062 227.058594 355.199219 C 227.058594 353.789062 227.058594 352.378906 227.058594 350.96875 C 227.058594 349.550781 227.058594 348.132812 227.058594 346.714844 C 227.058594 345.949219 227.058594 345.183594 227.058594 344.414062 C 227.28125 331.59375 227.28125 331.59375 221.136719 319.945312 C 221.074219 319.878906 221.011719 319.808594 220.945312 319.738281 C 217.519531 316.113281 211.820312 314.488281 206.988281 314.308594 C 206.726562 314.304688 206.464844 314.300781 206.203125 314.300781 C 206.105469 314.300781 206.011719 314.300781 205.914062 314.300781 C 205.601562 314.296875 205.292969 314.296875 204.984375 314.296875 C 204.878906 314.296875 204.773438 314.296875 204.667969 314.296875 C 203.058594 314.296875 201.488281 314.339844 199.898438 314.59375 C 199.796875 314.609375 199.699219 314.621094 199.59375 314.640625 C 196.320312 315.164062 193.148438 316.097656 190.136719 317.484375 C 189.929688 317.578125 189.722656 317.671875 189.515625 317.761719 C 185.335938 319.640625 181.542969 322.5 178.195312 325.601562 C 178.027344 325.761719 177.855469 325.917969 177.679688 326.074219 C 177.105469 326.59375 176.546875 327.128906 176 327.679688 C 175.929688 327.746094 175.863281 327.816406 175.792969 327.882812 C 175.421875 328.253906 175.066406 328.636719 174.726562 329.03125 C 174.488281 329.304688 174.242188 329.5625 173.996094 329.824219 C 173.574219 330.273438 173.171875 330.734375 172.789062 331.214844 C 172.589844 331.460938 172.386719 331.699219 172.179688 331.933594 C 171.671875 332.523438 171.183594 333.125 170.71875 333.746094 C 170.558594 333.953125 170.398438 334.160156 170.242188 334.367188 C 169.535156 335.285156 168.847656 336.210938 168.1875 337.160156 C 168.023438 337.398438 167.855469 337.636719 167.6875 337.871094 C 166.984375 338.875 166.28125 339.878906 165.660156 340.9375 C 165.5 341.183594 165.5 341.183594 165.277344 341.460938 C 164.402344 342.589844 164.464844 343.738281 164.480469 345.117188 C 164.480469 345.371094 164.480469 345.621094 164.480469 345.875 C 164.476562 346.417969 164.476562 346.964844 164.480469 347.511719 C 164.488281 348.324219 164.488281 349.136719 164.484375 349.949219 C 164.484375 351.316406 164.488281 352.683594 164.492188 354.050781 C 164.496094 355.410156 164.5 356.765625 164.5 358.121094 C 164.5 358.207031 164.5 358.292969 164.5 358.378906 C 164.503906 358.808594 164.503906 359.238281 164.503906 359.667969 C 164.503906 362.714844 164.507812 365.757812 164.519531 368.804688 C 164.527344 371.75 164.53125 374.691406 164.535156 377.636719 C 164.535156 377.730469 164.535156 377.820312 164.535156 377.914062 C 164.535156 378.730469 164.535156 379.550781 164.539062 380.367188 C 164.542969 385.894531 164.550781 391.417969 164.5625 396.941406 C 164.5625 397.015625 164.5625 397.09375 164.5625 397.171875 C 164.566406 397.28125 164.566406 397.28125 164.566406 397.398438 C 164.566406 397.90625 164.566406 398.414062 164.566406 398.921875 C 164.578125 403.292969 164.613281 407.667969 164.761719 412.035156 C 164.765625 412.152344 164.769531 412.265625 164.773438 412.382812 C 165.039062 420.332031 165.605469 428.261719 166.511719 436.488281 C 166.523438 436.589844 166.535156 436.6875 166.546875 436.792969 C 166.566406 436.980469 166.589844 437.167969 166.609375 437.355469 C 166.617188 437.4375 166.628906 437.519531 166.636719 437.605469 C 166.644531 437.675781 166.652344 437.75 166.660156 437.820312 C 166.679688 438.042969 166.679688 438.261719 166.679688 438.484375 C 148.109375 438.484375 129.539062 438.484375 110.40625 438.484375 C 110.507812 437.15625 110.507812 437.15625 110.566406 436.652344 C 110.578125 436.539062 110.59375 436.425781 110.605469 436.308594 C 110.613281 436.25 110.621094 436.191406 110.625 436.132812 C 110.664062 435.804688 110.703125 435.476562 110.738281 435.148438 C 110.746094 435.078125 110.753906 435.011719 110.765625 434.9375 C 111.125 431.769531 111.441406 428.597656 111.675781 425.414062 C 111.683594 425.300781 111.691406 425.191406 111.703125 425.078125 C 112.050781 420.324219 112.289062 415.550781 112.382812 410.78125 C 112.394531 410.328125 112.402344 409.871094 112.414062 409.414062 C 112.515625 404.953125 112.507812 400.488281 112.503906 396.027344 C 112.503906 394.902344 112.503906 393.78125 112.503906 392.660156 C 112.507812 390.417969 112.507812 388.171875 112.503906 385.929688 C 112.503906 383.765625 112.503906 381.605469 112.503906 379.445312 C 112.503906 379.308594 112.503906 379.171875 112.503906 379.035156 C 112.503906 378.484375 112.503906 377.9375 112.503906 377.386719 C 112.503906 375.855469 112.503906 374.320312 112.507812 372.785156 C 112.507812 372.714844 112.507812 372.644531 112.507812 372.574219 C 112.507812 370.355469 112.503906 368.132812 112.503906 365.914062 C 112.503906 365.808594 112.503906 365.808594 112.503906 365.695312 C 112.503906 364.53125 112.503906 363.363281 112.503906 362.199219 C 112.503906 357.574219 112.503906 352.953125 112.503906 348.332031 C 112.503906 347.164062 112.503906 346 112.503906 344.835938 C 112.503906 344.761719 112.503906 344.691406 112.503906 344.617188 C 112.503906 342.398438 112.507812 340.183594 112.507812 337.964844 C 112.507812 337.894531 112.507812 337.824219 112.507812 337.753906 C 112.503906 336.21875 112.503906 334.6875 112.503906 333.15625 C 112.503906 332.605469 112.503906 332.058594 112.503906 331.507812 C 112.503906 331.375 112.503906 331.238281 112.503906 331.101562 C 112.503906 328.941406 112.503906 326.78125 112.507812 324.621094 C 112.507812 322.382812 112.507812 320.144531 112.503906 317.90625 C 112.503906 316.730469 112.503906 315.558594 112.503906 314.382812 C 112.507812 309.703125 112.503906 305.023438 112.402344 300.34375 C 112.402344 300.257812 112.398438 300.171875 112.398438 300.085938 C 112.375 299.136719 112.351562 298.191406 112.324219 297.246094 C 112.320312 297.117188 112.316406 296.992188 112.3125 296.867188 C 112.082031 289.386719 111.636719 281.902344 110.570312 274.492188 C 110.5625 274.414062 110.550781 274.335938 110.539062 274.253906 C 110.515625 274.109375 110.496094 273.96875 110.476562 273.824219 C 110.425781 273.488281 110.40625 273.179688 110.40625 272.839844 C 128.257812 272.839844 146.109375 272.839844 164.5 272.839844 C 164.5 286.183594 164.5 286.183594 164.320312 290.265625 C 164.320312 290.714844 164.320312 291.164062 164.320312 291.628906 C 164.417969 291.535156 164.515625 291.441406 164.617188 291.347656 C 166.683594 289.398438 166.683594 289.398438 167.675781 288.542969 C 167.722656 288.503906 167.765625 288.464844 167.8125 288.425781 C 168.136719 288.148438 168.460938 287.871094 168.785156 287.59375 C 168.890625 287.503906 168.996094 287.414062 169.101562 287.324219 C 169.691406 286.816406 170.289062 286.320312 170.90625 285.84375 C 171.246094 285.578125 171.582031 285.304688 171.917969 285.03125 C 172.777344 284.324219 173.671875 283.660156 174.574219 283.007812 C 174.632812 282.964844 174.691406 282.921875 174.753906 282.875 C 178.125 280.429688 181.667969 278.273438 185.375 276.378906 C 185.441406 276.347656 185.507812 276.3125 185.578125 276.277344 C 192.210938 272.863281 199.457031 270.738281 215.328125 268.847656 C 215.4375 268.84375 215.542969 268.835938 215.65625 268.832031 C 223.320312 268.476562 231.070312 268.988281 238.5625 270.664062 Z M 238.5625 270.664062 "/><path style=" stroke:none;fill-rule:nonzero;fill:#ffae6c;fill-opacity:1;" d="M 428.621094 276.019531 C 428.710938 276.0625 428.804688 276.109375 428.898438 276.15625 C 430.460938 276.933594 431.953125 277.8125 433.429688 278.742188 C 433.507812 278.789062 433.585938 278.839844 433.667969 278.890625 C 435.511719 280.050781 437.296875 281.332031 438.964844 282.734375 C 439.0625 282.8125 439.15625 282.890625 439.25 282.972656 C 439.847656 283.46875 440.421875 283.980469 440.992188 284.503906 C 441.1875 284.6875 441.390625 284.867188 441.59375 285.042969 C 442.519531 285.851562 443.394531 286.699219 444.265625 287.566406 C 444.3125 287.613281 444.359375 287.660156 444.410156 287.710938 C 444.945312 288.242188 445.464844 288.785156 445.957031 289.359375 C 446.046875 289.464844 446.140625 289.570312 446.234375 289.675781 C 446.914062 290.445312 447.550781 291.238281 448.164062 292.0625 C 448.320312 292.269531 448.476562 292.476562 448.632812 292.683594 C 449.367188 293.664062 450.042969 294.667969 450.675781 295.714844 C 450.714844 295.777344 450.75 295.839844 450.792969 295.902344 C 453.054688 299.632812 454.742188 303.597656 456.210938 307.695312 C 456.234375 307.757812 456.257812 307.820312 456.28125 307.882812 C 456.925781 309.679688 457.5 311.496094 458.050781 313.328125 C 458.082031 313.429688 458.109375 313.53125 458.144531 313.636719 C 458.230469 313.929688 458.316406 314.21875 458.402344 314.511719 C 458.429688 314.597656 458.457031 314.6875 458.480469 314.777344 C 458.519531 314.898438 458.519531 314.898438 458.554688 315.023438 C 458.585938 315.128906 458.585938 315.128906 458.617188 315.234375 C 458.660156 315.410156 458.660156 315.410156 458.660156 315.589844 C 454.375 316.058594 450.089844 316.523438 445.800781 316.992188 C 445.707031 317 445.707031 317 445.609375 317.011719 C 444.222656 317.164062 442.832031 317.316406 441.445312 317.464844 C 440.765625 317.539062 440.085938 317.613281 439.402344 317.6875 C 439.335938 317.695312 439.269531 317.703125 439.199219 317.710938 C 437.015625 317.949219 434.835938 318.1875 432.652344 318.421875 C 430.402344 318.667969 428.15625 318.914062 425.90625 319.160156 C 425.585938 319.191406 425.265625 319.226562 424.945312 319.261719 C 424.882812 319.269531 424.820312 319.277344 424.753906 319.285156 C 423.878906 319.378906 423 319.476562 422.125 319.570312 C 421.578125 319.628906 421.03125 319.691406 420.484375 319.75 C 420.367188 319.761719 420.246094 319.773438 420.125 319.789062 C 418.878906 319.925781 417.632812 320.058594 416.386719 320.195312 C 416.230469 320.210938 416.230469 320.210938 416.066406 320.230469 C 415.652344 320.273438 415.238281 320.320312 414.824219 320.363281 C 413.664062 320.492188 412.503906 320.617188 411.339844 320.746094 C 410.839844 320.800781 410.339844 320.855469 409.839844 320.910156 C 409.527344 320.945312 409.214844 320.976562 408.902344 321.011719 C 408.578125 321.046875 408.25 321.082031 407.925781 321.121094 C 407.832031 321.128906 407.742188 321.140625 407.648438 321.148438 C 407.132812 321.207031 406.628906 321.226562 406.109375 321.21875 C 406.097656 321.132812 406.097656 321.132812 406.085938 321.046875 C 405.566406 317.304688 404.417969 313.648438 401.753906 310.871094 C 401.675781 310.785156 401.597656 310.699219 401.515625 310.609375 C 398.222656 307.109375 393.078125 306.027344 388.503906 305.515625 C 388.359375 305.5 388.359375 305.5 388.214844 305.484375 C 384.925781 305.125 381.445312 305.167969 378.15625 305.515625 C 378.039062 305.527344 377.921875 305.539062 377.800781 305.550781 C 372.640625 306.101562 367.160156 307.296875 363.269531 310.960938 C 363.210938 311.015625 363.15625 311.066406 363.09375 311.121094 C 361.65625 312.488281 360.78125 314.554688 360.710938 316.523438 C 360.664062 318.832031 361.257812 320.917969 362.867188 322.625 C 368.152344 328.023438 378.738281 329.414062 398.265625 333.878906 C 405.5 335.449219 412.738281 337.042969 433.976562 344 C 434.03125 344.023438 434.089844 344.050781 434.148438 344.078125 C 435.960938 344.910156 437.75 345.78125 439.511719 346.722656 C 439.601562 346.769531 439.6875 346.816406 439.78125 346.863281 C 443.03125 348.597656 446.121094 350.617188 448.949219 352.984375 C 449 353.023438 449.046875 353.0625 449.09375 353.105469 C 450.609375 354.375 452.136719 355.722656 453.414062 357.234375 C 453.550781 357.398438 453.691406 357.554688 453.832031 357.714844 C 455.503906 359.59375 456.972656 361.683594 458.207031 363.875 C 458.253906 363.957031 458.300781 364.042969 458.351562 364.128906 C 461.1875 369.195312 462.757812 374.730469 463.449219 380.472656 C 463.472656 380.65625 463.496094 380.839844 463.519531 381.023438 C 464.027344 385.199219 464.015625 389.742188 463.496094 393.914062 C 463.472656 394.109375 463.449219 394.304688 463.425781 394.5 C 462.449219 403.078125 459.554688 411.609375 452.066406 421.367188 C 451.953125 421.492188 451.84375 421.617188 451.734375 421.742188 C 451.21875 422.351562 450.652344 422.910156 450.085938 423.472656 C 449.910156 423.648438 449.734375 423.824219 449.554688 424.003906 C 449.007812 424.554688 448.457031 425.09375 447.863281 425.59375 C 447.757812 425.6875 447.652344 425.78125 447.546875 425.875 C 446.773438 426.554688 445.972656 427.195312 445.144531 427.8125 C 444.96875 427.945312 444.789062 428.082031 444.613281 428.21875 C 438.261719 433.105469 430.640625 436.394531 407.746094 441.933594 C 407.660156 441.945312 407.578125 441.957031 407.496094 441.96875 C 403.210938 442.582031 398.902344 442.976562 394.582031 443.203125 C 394.453125 443.210938 394.453125 443.210938 394.316406 443.21875 C 388.40625 443.53125 382.429688 443.53125 376.523438 443.203125 C 376.417969 443.195312 376.3125 443.191406 376.207031 443.183594 C 366.699219 442.660156 357.183594 441.375 336.84375 434.429688 C 336.574219 434.300781 336.304688 434.175781 336.03125 434.050781 C 332.125 432.210938 328.394531 429.945312 324.96875 427.320312 C 324.910156 427.273438 324.855469 427.230469 324.792969 427.1875 C 324.035156 426.605469 323.308594 425.996094 322.585938 425.371094 C 322.425781 425.230469 322.261719 425.09375 322.101562 424.957031 C 321.507812 424.457031 320.941406 423.945312 320.402344 423.386719 C 320.210938 423.195312 320.015625 423.019531 319.808594 422.84375 C 319.425781 422.507812 319.074219 422.144531 318.730469 421.769531 C 318.632812 421.671875 318.632812 421.671875 318.539062 421.566406 C 318.410156 421.429688 318.285156 421.292969 318.160156 421.160156 C 317.996094 420.984375 317.835938 420.8125 317.671875 420.636719 C 317.191406 420.125 316.730469 419.605469 316.292969 419.058594 C 316.128906 418.855469 315.96875 418.65625 315.804688 418.460938 C 314.039062 416.328125 312.484375 414 311.082031 411.617188 C 311.039062 411.546875 311 411.480469 310.957031 411.40625 C 307.058594 404.847656 305.050781 397.464844 303.457031 390.0625 C 303.4375 389.976562 303.417969 389.890625 303.402344 389.804688 C 303.375 389.6875 303.375 389.6875 303.351562 389.570312 C 303.335938 389.503906 303.320312 389.433594 303.308594 389.363281 C 303.277344 389.199219 303.277344 389.199219 303.277344 389.015625 C 304.703125 388.824219 306.132812 388.652344 307.566406 388.496094 C 307.78125 388.46875 307.992188 388.445312 308.207031 388.421875 C 308.730469 388.363281 309.25 388.308594 309.769531 388.25 C 310.394531 388.179688 311.019531 388.109375 311.644531 388.039062 C 313.152344 387.871094 314.660156 387.703125 316.167969 387.535156 C 316.882812 387.457031 317.597656 387.378906 318.3125 387.296875 C 320.757812 387.023438 323.199219 386.753906 325.644531 386.480469 C 325.800781 386.464844 325.953125 386.445312 326.105469 386.429688 C 326.179688 386.421875 326.257812 386.414062 326.335938 386.40625 C 326.71875 386.363281 327.105469 386.320312 327.488281 386.277344 C 327.601562 386.265625 327.601562 386.265625 327.71875 386.25 C 330.199219 385.976562 332.679688 385.699219 335.160156 385.421875 C 337.78125 385.128906 340.40625 384.835938 343.03125 384.546875 C 343.320312 384.511719 343.609375 384.480469 343.894531 384.449219 C 344 384.4375 344 384.4375 344.109375 384.425781 C 345.25 384.300781 346.390625 384.171875 347.535156 384.042969 C 348.679688 383.917969 349.824219 383.789062 350.96875 383.664062 C 351.589844 383.59375 352.207031 383.523438 352.828125 383.453125 C 353.394531 383.390625 353.964844 383.328125 354.53125 383.265625 C 354.738281 383.242188 354.941406 383.21875 355.148438 383.195312 C 355.425781 383.164062 355.707031 383.132812 355.984375 383.105469 C 356.066406 383.09375 356.144531 383.085938 356.230469 383.074219 C 356.304688 383.066406 356.378906 383.058594 356.453125 383.050781 C 356.550781 383.042969 356.550781 383.042969 356.648438 383.03125 C 356.84375 383.027344 357.003906 383.0625 357.191406 383.117188 C 357.203125 383.179688 357.214844 383.246094 357.230469 383.308594 C 358.167969 387.785156 359.765625 392.105469 362.949219 395.484375 C 363.109375 395.660156 363.265625 395.835938 363.414062 396.019531 C 363.703125 396.359375 364.019531 396.628906 364.359375 396.914062 C 364.433594 396.980469 364.507812 397.042969 364.582031 397.109375 C 370.089844 401.90625 378.128906 403.269531 385.222656 403.285156 C 385.335938 403.285156 385.335938 403.285156 385.453125 403.285156 C 385.851562 403.289062 386.253906 403.289062 386.652344 403.289062 C 386.972656 403.289062 387.296875 403.289062 387.617188 403.292969 C 389.382812 403.304688 391.140625 403.277344 392.898438 403.140625 C 393.011719 403.132812 393.011719 403.132812 393.121094 403.125 C 398.710938 402.6875 405.070312 401.601562 409.378906 397.730469 C 409.460938 397.65625 409.542969 397.585938 409.625 397.507812 C 411.394531 395.835938 412.503906 393.492188 412.585938 391.046875 C 412.601562 389.785156 412.558594 388.597656 412.191406 387.382812 C 412.171875 387.320312 412.152344 387.257812 412.132812 387.195312 C 411.128906 384.007812 408.765625 381.792969 405.871094 380.28125 C 405.710938 380.199219 405.546875 380.113281 405.382812 380.03125 C 405.316406 379.996094 405.25 379.960938 405.179688 379.925781 C 404.023438 379.332031 402.804688 378.902344 401.574219 378.488281 C 401.484375 378.457031 401.394531 378.429688 401.304688 378.398438 C 395.261719 376.382812 388.8125 375.367188 382.574219 374.125 C 375.027344 372.625 367.488281 371.046875 358.277344 368.777344 C 358.175781 368.75 358.070312 368.726562 357.964844 368.699219 C 349.25 366.519531 340.523438 363.914062 327.054688 355.796875 C 326.957031 355.722656 326.957031 355.722656 326.855469 355.648438 C 325.988281 355 325.148438 354.328125 324.332031 353.621094 C 324.265625 353.5625 324.199219 353.503906 324.132812 353.445312 C 323.957031 353.292969 323.78125 353.140625 323.605469 352.984375 C 323.542969 352.925781 323.476562 352.871094 323.410156 352.8125 C 322.820312 352.285156 322.253906 351.738281 321.695312 351.179688 C 321.570312 351.054688 321.570312 351.054688 321.441406 350.929688 C 320.882812 350.371094 320.378906 349.789062 319.886719 349.171875 C 319.800781 349.074219 319.714844 348.972656 319.628906 348.875 C 318.511719 347.59375 317.554688 346.199219 316.710938 344.726562 C 316.640625 344.605469 316.640625 344.605469 316.570312 344.488281 C 312.945312 338.125 310.898438 330.691406 310.445312 323.394531 C 310.4375 323.285156 310.429688 323.171875 310.421875 323.058594 C 310.347656 321.890625 310.335938 320.726562 310.339844 319.5625 C 310.339844 319.460938 310.339844 319.359375 310.339844 319.257812 C 310.339844 317.664062 310.378906 316.085938 310.539062 314.5 C 310.550781 314.382812 310.5625 314.265625 310.574219 314.144531 C 311.371094 306.335938 313.914062 298.675781 318.523438 292.265625 C 318.574219 292.195312 318.625 292.125 318.675781 292.054688 C 319.277344 291.21875 319.890625 290.402344 320.566406 289.621094 C 320.777344 289.378906 320.976562 289.132812 321.171875 288.882812 C 322.050781 287.8125 323.039062 286.832031 324.015625 285.855469 C 324.089844 285.777344 324.164062 285.703125 324.242188 285.625 C 324.683594 285.1875 325.132812 284.769531 325.605469 284.367188 C 325.710938 284.273438 325.820312 284.179688 325.929688 284.082031 C 326.679688 283.425781 327.445312 282.796875 328.234375 282.191406 C 328.289062 282.148438 328.34375 282.105469 328.398438 282.0625 C 329.996094 280.835938 331.648438 279.691406 333.390625 278.675781 C 333.574219 278.570312 333.75 278.460938 333.929688 278.351562 C 334.972656 277.710938 336.046875 277.132812 337.132812 276.5625 C 337.222656 276.515625 337.3125 276.46875 337.40625 276.417969 C 344.304688 272.8125 351.914062 270.601562 428.621094 276.019531 Z M 428.621094 276.019531 "/><path style=" stroke:none;fill-rule:nonzero;fill:#44403d;fill-opacity:1;" d="M 1358.027344 212.574219 C 1377.765625 212.574219 1397.503906 212.574219 1417.839844 212.574219 C 1417.570312 214.753906 1417.570312 214.753906 1417.488281 215.40625 C 1416.855469 220.445312 1416.398438 225.476562 1416.117188 230.546875 C 1416.113281 230.636719 1416.105469 230.730469 1416.101562 230.824219 C 1416.09375 230.953125 1416.09375 230.953125 1416.085938 231.085938 C 1416.082031 231.15625 1416.078125 231.230469 1416.074219 231.304688 C 1416.019531 232.363281 1415.980469 233.417969 1415.945312 234.476562 C 1415.9375 234.699219 1415.933594 234.921875 1415.925781 235.144531 C 1415.679688 242.339844 1415.726562 249.542969 1415.730469 256.738281 C 1415.730469 258.21875 1415.730469 259.695312 1415.730469 261.171875 C 1415.730469 261.273438 1415.730469 261.371094 1415.730469 261.476562 C 1415.730469 261.988281 1415.730469 262.5 1415.730469 263.011719 C 1415.730469 266.691406 1415.730469 270.375 1415.730469 274.054688 C 1415.734375 277.695312 1415.734375 281.339844 1415.734375 284.980469 C 1415.734375 285.210938 1415.734375 285.441406 1415.734375 285.671875 C 1415.734375 286.59375 1415.734375 287.519531 1415.734375 288.441406 C 1415.734375 291.023438 1415.734375 293.605469 1415.734375 296.183594 C 1415.734375 296.300781 1415.734375 296.417969 1415.734375 296.539062 C 1415.734375 300.277344 1415.734375 304.011719 1415.734375 307.746094 C 1415.734375 307.808594 1415.734375 307.867188 1415.734375 307.929688 C 1415.734375 309.894531 1415.734375 311.855469 1415.734375 313.820312 C 1415.734375 315.734375 1415.734375 317.644531 1415.734375 319.558594 C 1415.734375 319.617188 1415.734375 319.679688 1415.734375 319.742188 C 1415.738281 325.5625 1415.738281 331.378906 1415.738281 337.199219 C 1415.738281 337.507812 1415.738281 337.8125 1415.738281 338.121094 C 1415.738281 338.492188 1415.738281 338.863281 1415.738281 339.230469 C 1415.738281 340.519531 1415.738281 341.808594 1415.738281 343.097656 C 1415.738281 343.28125 1415.738281 343.464844 1415.738281 343.648438 C 1415.738281 350.195312 1415.738281 356.738281 1415.738281 363.285156 C 1415.738281 363.398438 1415.738281 363.515625 1415.738281 363.632812 C 1415.738281 365.183594 1415.738281 365.183594 1415.738281 366.734375 C 1415.738281 369.242188 1415.738281 371.753906 1415.738281 374.261719 C 1415.738281 374.375 1415.738281 374.488281 1415.738281 374.601562 C 1415.738281 375.054688 1415.738281 375.511719 1415.738281 375.964844 C 1415.738281 380.1875 1415.738281 384.410156 1415.738281 388.632812 C 1415.738281 389.039062 1415.742188 389.445312 1415.742188 389.851562 C 1415.742188 389.949219 1415.742188 390.050781 1415.742188 390.152344 C 1415.742188 391.722656 1415.742188 393.289062 1415.742188 394.859375 C 1415.742188 396.40625 1415.742188 397.953125 1415.742188 399.5 C 1415.742188 400.324219 1415.742188 401.152344 1415.742188 401.976562 C 1415.742188 406.425781 1415.769531 410.871094 1415.925781 415.316406 C 1415.929688 415.425781 1415.933594 415.535156 1415.933594 415.648438 C 1416.179688 422.699219 1416.707031 429.71875 1417.644531 436.710938 C 1417.65625 436.8125 1417.667969 436.910156 1417.683594 437.011719 C 1417.707031 437.195312 1417.734375 437.382812 1417.757812 437.566406 C 1417.769531 437.648438 1417.78125 437.730469 1417.792969 437.8125 C 1417.800781 437.882812 1417.8125 437.953125 1417.820312 438.027344 C 1417.839844 438.210938 1417.839844 438.210938 1417.839844 438.484375 C 1398.101562 438.484375 1378.363281 438.484375 1358.027344 438.484375 C 1358.132812 437.363281 1358.132812 437.363281 1358.1875 436.941406 C 1358.199219 436.847656 1358.214844 436.753906 1358.226562 436.65625 C 1358.242188 436.554688 1358.253906 436.453125 1358.269531 436.351562 C 1359.214844 429.246094 1359.707031 422.117188 1359.925781 414.953125 C 1359.9375 414.660156 1359.945312 414.363281 1359.957031 414.070312 C 1360.109375 409.027344 1360.128906 403.980469 1360.128906 398.933594 C 1360.128906 398.128906 1360.128906 397.320312 1360.128906 396.515625 C 1360.128906 395.011719 1360.128906 393.507812 1360.128906 392 C 1360.128906 390.480469 1360.128906 388.960938 1360.128906 387.441406 C 1360.128906 387.296875 1360.128906 387.296875 1360.128906 387.148438 C 1360.128906 386.753906 1360.128906 386.359375 1360.128906 385.964844 C 1360.128906 382.308594 1360.128906 378.652344 1360.128906 374.996094 C 1360.128906 371.476562 1360.128906 367.957031 1360.128906 364.433594 C 1360.128906 364.210938 1360.128906 363.992188 1360.128906 363.769531 C 1360.128906 362.875 1360.128906 361.984375 1360.128906 361.09375 C 1360.128906 358.597656 1360.128906 356.105469 1360.128906 353.613281 C 1360.128906 353.5 1360.128906 353.382812 1360.128906 353.269531 C 1360.128906 349.65625 1360.128906 346.042969 1360.128906 342.433594 C 1360.128906 342.257812 1360.128906 342.257812 1360.128906 342.078125 C 1360.128906 340.179688 1360.128906 338.277344 1360.128906 336.378906 C 1360.128906 328.847656 1360.128906 321.320312 1360.128906 313.789062 C 1360.128906 311.890625 1360.128906 309.992188 1360.128906 308.09375 C 1360.128906 307.976562 1360.128906 307.859375 1360.128906 307.738281 C 1360.128906 304.128906 1360.128906 300.523438 1360.128906 296.914062 C 1360.128906 296.800781 1360.128906 296.6875 1360.128906 296.570312 C 1360.128906 294.078125 1360.128906 291.589844 1360.128906 289.097656 C 1360.128906 288.207031 1360.128906 287.316406 1360.128906 286.421875 C 1360.128906 286.203125 1360.128906 285.980469 1360.128906 285.757812 C 1360.128906 282.238281 1360.128906 278.722656 1360.128906 275.203125 C 1360.128906 271.554688 1360.128906 267.910156 1360.128906 264.265625 C 1360.128906 263.871094 1360.128906 263.476562 1360.128906 263.085938 C 1360.128906 262.988281 1360.128906 262.890625 1360.128906 262.792969 C 1360.128906 261.277344 1360.128906 259.761719 1360.128906 258.25 C 1360.128906 256.75 1360.128906 255.253906 1360.128906 253.757812 C 1360.128906 252.960938 1360.128906 252.160156 1360.128906 251.363281 C 1360.128906 248.296875 1360.121094 245.230469 1360.074219 242.160156 C 1360.074219 242.097656 1360.074219 242.035156 1360.074219 241.96875 C 1360.050781 240.519531 1360.023438 239.070312 1359.984375 237.617188 C 1359.984375 237.554688 1359.984375 237.492188 1359.980469 237.425781 C 1359.78125 229.621094 1359.238281 221.835938 1358.15625 214.101562 C 1358.148438 214.039062 1358.140625 213.972656 1358.132812 213.90625 C 1358.109375 213.742188 1358.085938 213.574219 1358.058594 213.40625 C 1358.027344 213.121094 1358.027344 213.121094 1358.027344 212.574219 Z M 1358.027344 212.574219 "/><path style=" stroke:none;fill-rule:nonzero;fill:#ffae6c;fill-opacity:1;" d="M 1100.136719 272.160156 C 1100.207031 272.175781 1100.277344 272.1875 1100.351562 272.203125 C 1100.820312 272.300781 1101.289062 272.394531 1101.757812 272.492188 C 1101.820312 272.503906 1101.878906 272.515625 1101.945312 272.53125 C 1102.113281 272.566406 1102.285156 272.601562 1102.457031 272.636719 C 1102.550781 272.65625 1102.648438 272.675781 1102.746094 272.695312 C 1102.984375 272.75 1102.984375 272.75 1103.257812 272.839844 C 1103.199219 273.324219 1103.097656 273.78125 1102.972656 274.253906 C 1102.949219 274.328125 1102.929688 274.40625 1102.910156 274.484375 C 1102.84375 274.734375 1102.777344 274.988281 1102.707031 275.242188 C 1102.660156 275.421875 1102.613281 275.605469 1102.566406 275.785156 C 1102.433594 276.277344 1102.304688 276.769531 1102.171875 277.261719 C 1102.0625 277.679688 1101.949219 278.097656 1101.839844 278.511719 C 1100.964844 281.816406 1100.082031 285.113281 1099.199219 288.414062 C 1098.472656 291.121094 1097.753906 293.828125 1097.035156 296.535156 C 1096.113281 300.003906 1095.1875 303.46875 1094.257812 306.933594 C 1093.65625 309.191406 1093.054688 311.445312 1092.453125 313.703125 C 1092.394531 313.933594 1092.332031 314.164062 1092.269531 314.394531 C 1092.003906 315.398438 1091.738281 316.402344 1091.472656 317.40625 C 1091.363281 317.816406 1091.253906 318.226562 1091.144531 318.636719 C 1091.09375 318.824219 1091.042969 319.015625 1090.992188 319.207031 C 1090.925781 319.464844 1090.855469 319.726562 1090.785156 319.988281 C 1090.765625 320.0625 1090.746094 320.136719 1090.726562 320.214844 C 1090.585938 320.734375 1090.4375 321.25 1090.277344 321.761719 C 1089.710938 321.699219 1089.179688 321.546875 1088.632812 321.382812 C 1088.429688 321.324219 1088.226562 321.261719 1088.019531 321.203125 C 1087.914062 321.171875 1087.804688 321.140625 1087.695312 321.105469 C 1085.332031 320.40625 1082.957031 319.738281 1080.566406 319.128906 C 1080.449219 319.101562 1080.449219 319.101562 1080.324219 319.070312 C 1076.824219 318.179688 1073.285156 317.472656 1069.691406 317.066406 C 1069.503906 317.042969 1069.3125 317.019531 1069.121094 316.996094 C 1067.050781 316.75 1064.96875 316.742188 1062.886719 316.738281 C 1062.667969 316.734375 1062.453125 316.734375 1062.234375 316.734375 C 1060.707031 316.726562 1059.191406 316.757812 1057.671875 316.894531 C 1057.609375 316.902344 1057.546875 316.90625 1057.484375 316.914062 C 1048.800781 317.710938 1040.796875 321.035156 1034.371094 326.9375 C 1034.316406 326.980469 1034.265625 327.027344 1034.214844 327.078125 C 1033.4375 327.785156 1032.707031 328.511719 1032.007812 329.296875 C 1031.898438 329.417969 1031.898438 329.417969 1031.78125 329.539062 C 1031.226562 330.136719 1030.71875 330.765625 1030.222656 331.410156 C 1030.117188 331.550781 1030.007812 331.683594 1029.894531 331.820312 C 1028.660156 333.367188 1027.5625 335.070312 1026.65625 336.828125 C 1026.59375 336.945312 1026.53125 337.058594 1026.472656 337.175781 C 1024.035156 341.832031 1023.148438 347.039062 1022.503906 352.195312 C 1022.496094 352.269531 1022.484375 352.339844 1022.476562 352.410156 C 1022.445312 352.664062 1022.417969 352.914062 1022.390625 353.167969 C 1022.378906 353.253906 1022.378906 353.253906 1022.367188 353.347656 C 1022.21875 354.589844 1022.179688 355.816406 1022.183594 357.070312 C 1022.183594 357.273438 1022.183594 357.480469 1022.183594 357.683594 C 1022.183594 358.242188 1022.183594 358.800781 1022.183594 359.359375 C 1022.183594 359.898438 1022.183594 360.441406 1022.183594 360.984375 C 1022.183594 362.089844 1022.183594 363.199219 1022.183594 364.308594 C 1022.1875 365.40625 1022.1875 366.507812 1022.1875 367.605469 C 1022.1875 367.675781 1022.1875 367.742188 1022.1875 367.8125 C 1022.1875 368.09375 1022.1875 368.371094 1022.1875 368.652344 C 1022.1875 371.265625 1022.1875 373.882812 1022.1875 376.496094 C 1022.191406 378.808594 1022.191406 381.121094 1022.191406 383.429688 C 1022.191406 383.578125 1022.191406 383.726562 1022.191406 383.875 C 1022.191406 383.949219 1022.191406 384.023438 1022.191406 384.097656 C 1022.191406 384.464844 1022.191406 384.832031 1022.191406 385.203125 C 1022.191406 385.3125 1022.191406 385.3125 1022.191406 385.421875 C 1022.191406 387.363281 1022.191406 389.304688 1022.191406 391.25 C 1022.191406 391.351562 1022.191406 391.351562 1022.191406 391.457031 C 1022.191406 391.738281 1022.191406 392.015625 1022.191406 392.296875 C 1022.191406 393.253906 1022.191406 394.214844 1022.191406 395.175781 C 1022.191406 396.414062 1022.191406 397.65625 1022.191406 398.898438 C 1022.195312 399.492188 1022.195312 400.089844 1022.195312 400.6875 C 1022.191406 404.902344 1022.238281 409.121094 1022.378906 413.335938 C 1022.382812 413.453125 1022.386719 413.570312 1022.390625 413.691406 C 1022.636719 421.359375 1023.195312 429.015625 1024.128906 436.628906 C 1024.140625 436.722656 1024.152344 436.8125 1024.164062 436.90625 C 1024.183594 437.078125 1024.203125 437.246094 1024.226562 437.414062 C 1024.234375 437.492188 1024.242188 437.566406 1024.253906 437.640625 C 1024.261719 437.707031 1024.269531 437.769531 1024.277344 437.835938 C 1024.296875 438.050781 1024.292969 438.265625 1024.292969 438.484375 C 1005.726562 438.484375 987.15625 438.484375 968.023438 438.484375 C 968.082031 437.648438 968.148438 436.824219 968.246094 435.992188 C 968.269531 435.757812 968.296875 435.523438 968.324219 435.289062 C 968.335938 435.164062 968.351562 435.042969 968.363281 434.917969 C 969.183594 427.640625 969.699219 420.34375 969.9375 413.023438 C 969.941406 412.917969 969.945312 412.816406 969.949219 412.707031 C 969.976562 411.859375 970 411.011719 970.019531 410.164062 C 970.019531 410.085938 970.023438 410.007812 970.023438 409.925781 C 970.132812 405.335938 970.121094 400.746094 970.121094 396.152344 C 970.121094 395.023438 970.121094 393.898438 970.121094 392.769531 C 970.121094 390.511719 970.121094 388.257812 970.121094 386 C 970.121094 383.828125 970.121094 381.652344 970.121094 379.480469 C 970.121094 379.34375 970.121094 379.207031 970.121094 379.066406 C 970.121094 378.515625 970.121094 377.964844 970.121094 377.414062 C 970.121094 375.871094 970.121094 374.328125 970.121094 372.785156 C 970.121094 372.714844 970.121094 372.644531 970.121094 372.570312 C 970.121094 370.339844 970.121094 368.109375 970.121094 365.875 C 970.121094 365.804688 970.121094 365.730469 970.121094 365.65625 C 970.121094 364.484375 970.121094 363.3125 970.121094 362.140625 C 970.121094 357.492188 970.121094 352.84375 970.121094 348.195312 C 970.121094 347.023438 970.121094 345.851562 970.121094 344.679688 C 970.121094 344.609375 970.121094 344.535156 970.121094 344.460938 C 970.121094 342.230469 970.121094 340 970.121094 337.773438 C 970.121094 337.703125 970.121094 337.632812 970.121094 337.558594 C 970.121094 336.019531 970.121094 334.476562 970.121094 332.9375 C 970.121094 332.382812 970.121094 331.832031 970.121094 331.28125 C 970.121094 331.144531 970.121094 331.007812 970.121094 330.871094 C 970.121094 328.699219 970.121094 326.527344 970.121094 324.355469 C 970.121094 322.105469 970.121094 319.855469 970.121094 317.601562 C 970.121094 316.421875 970.121094 315.242188 970.121094 314.0625 C 970.121094 309.367188 970.121094 304.671875 970.019531 299.980469 C 970.015625 299.894531 970.015625 299.808594 970.011719 299.722656 C 969.992188 298.785156 969.96875 297.847656 969.9375 296.910156 C 969.933594 296.785156 969.929688 296.664062 969.929688 296.539062 C 969.699219 289.183594 969.183594 281.847656 968.1875 274.554688 C 968.175781 274.472656 968.164062 274.390625 968.152344 274.304688 C 968.132812 274.15625 968.113281 274.003906 968.089844 273.851562 C 968.042969 273.507812 968.023438 273.1875 968.023438 272.839844 C 985.875 272.839844 1003.722656 272.839844 1022.117188 272.839844 C 1022.144531 279.820312 1022.175781 286.796875 1022.207031 293.988281 C 1023.003906 293.007812 1023.003906 293.007812 1023.800781 292.027344 C 1024.527344 291.144531 1025.269531 290.28125 1026.050781 289.441406 C 1026.226562 289.246094 1026.402344 289.050781 1026.574219 288.847656 C 1026.9375 288.433594 1027.324219 288.039062 1027.71875 287.648438 C 1027.792969 287.574219 1027.867188 287.5 1027.941406 287.425781 C 1028.097656 287.269531 1028.253906 287.113281 1028.410156 286.957031 C 1028.644531 286.722656 1028.882812 286.484375 1029.117188 286.25 C 1029.269531 286.097656 1029.421875 285.945312 1029.574219 285.792969 C 1029.640625 285.722656 1029.710938 285.65625 1029.785156 285.582031 C 1030.207031 285.160156 1030.644531 284.757812 1031.101562 284.367188 C 1031.203125 284.28125 1031.300781 284.195312 1031.398438 284.109375 C 1034.261719 281.636719 1037.328125 279.410156 1040.632812 277.5625 C 1040.71875 277.511719 1040.800781 277.464844 1040.890625 277.414062 C 1043.789062 275.796875 1046.804688 274.472656 1049.945312 273.398438 C 1050.144531 273.332031 1050.34375 273.261719 1050.539062 273.195312 C 1059.035156 270.230469 1068.273438 269.523438 1100.136719 272.160156 Z M 1100.136719 272.160156 "/><path style=" stroke:none;fill-rule:nonzero;fill:#ffae6c;fill-opacity:1;" d="M 24.90625 272.839844 C 43.65625 272.839844 62.40625 272.839844 81.726562 272.839844 C 81.519531 274.804688 81.519531 274.804688 81.421875 275.523438 C 81.402344 275.691406 81.378906 275.863281 81.355469 276.03125 C 81.339844 276.160156 81.339844 276.160156 81.324219 276.292969 C 80.445312 283.09375 80.027344 289.941406 79.8125 296.792969 C 79.808594 296.964844 79.800781 297.136719 79.796875 297.304688 C 79.769531 298.195312 79.75 299.089844 79.726562 299.980469 C 79.726562 300.0625 79.722656 300.144531 79.722656 300.230469 C 79.621094 304.839844 79.625 309.449219 79.625 314.058594 C 79.625 315.226562 79.625 316.394531 79.625 317.5625 C 79.621094 319.984375 79.621094 322.40625 79.621094 324.828125 C 79.621094 325.09375 79.621094 325.359375 79.621094 325.625 C 79.621094 325.691406 79.621094 325.757812 79.621094 325.824219 C 79.621094 327.296875 79.621094 328.769531 79.621094 330.242188 C 79.621094 330.851562 79.621094 331.460938 79.621094 332.070312 C 79.621094 332.140625 79.621094 332.207031 79.621094 332.277344 C 79.621094 336.128906 79.621094 339.980469 79.621094 343.832031 C 79.621094 343.976562 79.621094 344.121094 79.621094 344.265625 C 79.621094 344.914062 79.621094 345.5625 79.621094 346.210938 C 79.621094 346.5 79.621094 346.789062 79.621094 347.078125 C 79.621094 347.222656 79.621094 347.367188 79.621094 347.511719 C 79.621094 352.078125 79.621094 356.648438 79.617188 361.21875 C 79.617188 362.367188 79.617188 363.519531 79.617188 364.667969 C 79.617188 364.742188 79.617188 364.8125 79.617188 364.882812 C 79.617188 367.078125 79.617188 369.269531 79.617188 371.464844 C 79.617188 371.53125 79.617188 371.601562 79.617188 371.671875 C 79.617188 373.191406 79.617188 374.707031 79.617188 376.226562 C 79.617188 376.769531 79.617188 377.3125 79.617188 377.855469 C 79.617188 377.992188 79.617188 378.125 79.617188 378.261719 C 79.617188 380.394531 79.617188 382.527344 79.617188 384.660156 C 79.613281 386.8125 79.613281 388.96875 79.613281 391.121094 C 79.617188 392.34375 79.617188 393.5625 79.613281 394.78125 C 79.613281 399.003906 79.617188 403.21875 79.722656 407.4375 C 79.722656 407.515625 79.726562 407.59375 79.726562 407.675781 C 79.769531 409.332031 79.820312 410.988281 79.878906 412.644531 C 79.882812 412.742188 79.882812 412.742188 79.886719 412.84375 C 80.15625 420.214844 80.632812 427.589844 81.527344 436.140625 C 81.535156 436.203125 81.539062 436.265625 81.546875 436.332031 C 81.578125 436.625 81.609375 436.917969 81.640625 437.210938 C 81.652344 437.3125 81.664062 437.414062 81.675781 437.519531 C 81.683594 437.605469 81.695312 437.695312 81.703125 437.785156 C 81.722656 438.019531 81.726562 438.25 81.726562 438.484375 C 62.976562 438.484375 44.226562 438.484375 24.90625 438.484375 C 25.007812 437.15625 25.007812 437.15625 25.066406 436.65625 C 25.078125 436.539062 25.09375 436.425781 25.105469 436.308594 C 25.113281 436.25 25.117188 436.191406 25.125 436.128906 C 25.164062 435.800781 25.199219 435.46875 25.238281 435.140625 C 25.246094 435.070312 25.253906 435 25.261719 434.925781 C 26.050781 427.828125 26.574219 420.71875 26.804688 413.578125 C 26.816406 413.296875 26.824219 413.019531 26.835938 412.738281 C 26.859375 411.929688 26.878906 411.125 26.898438 410.316406 C 26.902344 410.15625 26.90625 409.996094 26.910156 409.835938 C 27.019531 405.296875 27.007812 400.757812 27.007812 396.21875 C 27.007812 395.097656 27.007812 393.976562 27.007812 392.859375 C 27.007812 390.617188 27.007812 388.375 27.007812 386.136719 C 27.007812 383.976562 27.007812 381.820312 27.007812 379.660156 C 27.007812 379.523438 27.007812 379.386719 27.007812 379.253906 C 27.007812 378.703125 27.007812 378.15625 27.007812 377.609375 C 27.007812 376.078125 27.007812 374.546875 27.007812 373.011719 C 27.007812 372.945312 27.007812 372.875 27.007812 372.800781 C 27.007812 370.585938 27.007812 368.371094 27.007812 366.152344 C 27.007812 366.046875 27.007812 366.046875 27.007812 365.9375 C 27.007812 364.769531 27.007812 363.605469 27.007812 362.441406 C 27.007812 357.828125 27.007812 353.210938 27.007812 348.59375 C 27.007812 347.433594 27.007812 346.269531 27.007812 345.105469 C 27.007812 345.03125 27.007812 344.960938 27.007812 344.886719 C 27.007812 342.671875 27.007812 340.457031 27.007812 338.246094 C 27.007812 338.175781 27.007812 338.105469 27.007812 338.035156 C 27.007812 336.503906 27.007812 334.972656 27.007812 333.445312 C 27.007812 332.894531 27.007812 332.347656 27.007812 331.800781 C 27.007812 331.664062 27.007812 331.527344 27.007812 331.390625 C 27.007812 329.234375 27.007812 327.078125 27.007812 324.921875 C 27.007812 322.6875 27.007812 320.453125 27.007812 318.214844 C 27.007812 317.042969 27.007812 315.871094 27.007812 314.699219 C 27.007812 307.839844 27.007812 307.839844 26.90625 300.976562 C 26.902344 300.898438 26.902344 300.816406 26.898438 300.734375 C 26.878906 299.835938 26.855469 298.933594 26.824219 298.035156 C 26.820312 297.914062 26.816406 297.796875 26.8125 297.671875 C 26.566406 289.96875 26.050781 282.28125 25.074219 274.632812 C 25.058594 274.503906 25.058594 274.503906 25.039062 274.367188 C 25.019531 274.207031 24.996094 274.046875 24.976562 273.882812 C 24.96875 273.8125 24.957031 273.742188 24.949219 273.667969 C 24.941406 273.605469 24.933594 273.542969 24.925781 273.480469 C 24.90625 273.269531 24.90625 273.054688 24.90625 272.839844 Z M 24.90625 272.839844 "/><path style=" stroke:none;fill-rule:nonzero;fill:#ffae6c;fill-opacity:1;" d="M 487.070312 272.839844 C 505.820312 272.839844 524.570312 272.839844 543.886719 272.839844 C 543.785156 273.765625 543.683594 274.691406 543.566406 275.613281 C 542.695312 282.597656 542.234375 289.589844 541.980469 296.621094 C 541.980469 296.710938 541.976562 296.804688 541.972656 296.898438 C 541.945312 297.621094 541.925781 298.347656 541.910156 299.070312 C 541.90625 299.175781 541.90625 299.175781 541.90625 299.28125 C 541.902344 299.433594 541.898438 299.585938 541.894531 299.738281 C 541.890625 299.984375 541.886719 300.234375 541.878906 300.484375 C 541.78125 305.007812 541.785156 309.53125 541.789062 314.058594 C 541.789062 315.226562 541.789062 316.394531 541.785156 317.5625 C 541.785156 319.984375 541.785156 322.40625 541.785156 324.828125 C 541.785156 325.09375 541.785156 325.359375 541.785156 325.625 C 541.785156 325.691406 541.785156 325.757812 541.785156 325.824219 C 541.785156 327.296875 541.785156 328.769531 541.785156 330.242188 C 541.785156 330.851562 541.785156 331.460938 541.785156 332.070312 C 541.785156 332.140625 541.785156 332.207031 541.785156 332.277344 C 541.785156 336.128906 541.785156 339.980469 541.785156 343.832031 C 541.785156 343.976562 541.785156 344.121094 541.785156 344.265625 C 541.785156 344.914062 541.785156 345.5625 541.785156 346.210938 C 541.785156 346.5 541.785156 346.789062 541.785156 347.078125 C 541.785156 347.222656 541.785156 347.367188 541.785156 347.511719 C 541.785156 352.078125 541.785156 356.648438 541.78125 361.21875 C 541.78125 362.367188 541.78125 363.519531 541.78125 364.667969 C 541.78125 364.742188 541.78125 364.8125 541.78125 364.882812 C 541.78125 367.078125 541.78125 369.269531 541.78125 371.464844 C 541.78125 371.53125 541.78125 371.601562 541.78125 371.671875 C 541.78125 373.191406 541.78125 374.707031 541.78125 376.226562 C 541.78125 376.769531 541.78125 377.3125 541.78125 377.855469 C 541.78125 377.992188 541.78125 378.125 541.78125 378.261719 C 541.78125 380.394531 541.78125 382.527344 541.777344 384.660156 C 541.777344 386.8125 541.777344 388.96875 541.777344 391.121094 C 541.777344 392.34375 541.777344 393.5625 541.777344 394.78125 C 541.773438 399.003906 541.78125 403.21875 541.886719 407.4375 C 541.886719 407.515625 541.890625 407.59375 541.890625 407.675781 C 541.933594 409.332031 541.984375 410.988281 542.042969 412.644531 C 542.046875 412.742188 542.046875 412.742188 542.050781 412.84375 C 542.320312 420.214844 542.796875 427.589844 543.691406 436.140625 C 543.695312 436.203125 543.703125 436.265625 543.710938 436.332031 C 543.742188 436.625 543.773438 436.917969 543.804688 437.210938 C 543.816406 437.3125 543.828125 437.414062 543.839844 437.519531 C 543.847656 437.605469 543.859375 437.695312 543.867188 437.785156 C 543.886719 438.019531 543.886719 438.25 543.886719 438.484375 C 525.136719 438.484375 506.390625 438.484375 487.070312 438.484375 C 487.171875 437.15625 487.171875 437.15625 487.230469 436.65625 C 487.242188 436.539062 487.253906 436.425781 487.269531 436.308594 C 487.273438 436.25 487.28125 436.191406 487.289062 436.128906 C 487.328125 435.800781 487.363281 435.46875 487.398438 435.140625 C 487.40625 435.070312 487.414062 435 487.421875 434.925781 C 488.214844 427.828125 488.738281 420.71875 488.96875 413.578125 C 488.976562 413.296875 488.988281 413.019531 488.996094 412.738281 C 489.023438 411.929688 489.042969 411.125 489.0625 410.316406 C 489.066406 410.15625 489.070312 409.996094 489.074219 409.835938 C 489.179688 405.296875 489.171875 400.757812 489.171875 396.21875 C 489.171875 395.097656 489.171875 393.976562 489.171875 392.859375 C 489.171875 390.617188 489.171875 388.375 489.171875 386.136719 C 489.171875 383.976562 489.171875 381.820312 489.171875 379.660156 C 489.171875 379.523438 489.171875 379.386719 489.171875 379.253906 C 489.171875 378.703125 489.171875 378.15625 489.171875 377.609375 C 489.171875 376.078125 489.171875 374.546875 489.171875 373.011719 C 489.171875 372.945312 489.171875 372.875 489.171875 372.800781 C 489.171875 370.585938 489.171875 368.371094 489.171875 366.152344 C 489.171875 366.046875 489.171875 366.046875 489.171875 365.9375 C 489.171875 364.769531 489.171875 363.605469 489.171875 362.441406 C 489.167969 357.828125 489.167969 353.210938 489.171875 348.59375 C 489.171875 347.433594 489.171875 346.269531 489.171875 345.105469 C 489.171875 345.03125 489.171875 344.960938 489.171875 344.886719 C 489.171875 342.671875 489.171875 340.457031 489.171875 338.246094 C 489.171875 338.175781 489.171875 338.105469 489.171875 338.035156 C 489.171875 336.503906 489.171875 334.972656 489.171875 333.445312 C 489.171875 332.894531 489.171875 332.347656 489.171875 331.800781 C 489.171875 331.664062 489.171875 331.527344 489.171875 331.390625 C 489.171875 329.234375 489.171875 327.078125 489.171875 324.921875 C 489.171875 322.6875 489.171875 320.453125 489.171875 318.214844 C 489.171875 317.042969 489.171875 315.871094 489.171875 314.699219 C 489.171875 307.839844 489.171875 307.839844 489.066406 300.976562 C 489.066406 300.898438 489.0625 300.816406 489.0625 300.734375 C 489.042969 299.835938 489.015625 298.933594 488.988281 298.035156 C 488.984375 297.914062 488.980469 297.796875 488.976562 297.671875 C 488.730469 289.96875 488.214844 282.28125 487.238281 274.632812 C 487.21875 274.503906 487.21875 274.503906 487.203125 274.367188 C 487.183594 274.207031 487.160156 274.046875 487.140625 273.882812 C 487.128906 273.8125 487.121094 273.742188 487.113281 273.667969 C 487.105469 273.605469 487.097656 273.542969 487.085938 273.480469 C 487.070312 273.269531 487.070312 273.054688 487.070312 272.839844 Z M 487.070312 272.839844 "/><path style=" stroke:none;fill-rule:nonzero;fill:#ffae6c;fill-opacity:1;" d="M 487.886719 212.574219 C 506.097656 212.574219 524.308594 212.574219 543.070312 212.574219 C 543.070312 226.054688 543.070312 239.53125 543.070312 253.417969 C 524.859375 253.417969 506.648438 253.417969 487.886719 253.417969 C 487.886719 239.941406 487.886719 226.460938 487.886719 212.574219 Z M 487.886719 212.574219 "/><path style=" stroke:none;fill-rule:nonzero;fill:#ffae6c;fill-opacity:1;" d="M 25.722656 212.574219 C 43.933594 212.574219 62.144531 212.574219 80.90625 212.574219 C 80.90625 226.054688 80.90625 239.53125 80.90625 253.417969 C 62.699219 253.417969 44.488281 253.417969 25.722656 253.417969 C 25.722656 239.941406 25.722656 226.460938 25.722656 212.574219 Z M 25.722656 212.574219 "/></g></svg>