<svg width="120" height="36" viewBox="0 0 120 36" fill="none" xmlns="http://www.w3.org/2000/svg">
<g id="Group">
<g id="Group_2">
<g id="Group_3">
<g id="Group_4">
<path id="Vector" d="M71.305 30.317C71.305 30.1733 71.1777 30.0508 71.0293 30.0508H68.5276C68.3792 30.0508 68.252 30.1733 68.252 30.317C68.252 30.4606 68.3749 30.5747 68.5276 30.5747H69.4859V33.4226C69.4859 33.5789 69.6173 33.7015 69.7784 33.7015C69.9396 33.7015 70.071 33.5747 70.071 33.4226V30.5747H71.0293C71.182 30.579 71.305 30.4606 71.305 30.317Z" fill="#1D1D1B"/>
<path id="Vector_2" d="M72.1319 31.3902C72.6026 31.3902 72.8273 31.7409 72.8867 32.0958H71.3687C71.4408 31.6775 71.7461 31.3902 72.1319 31.3902ZM72.1404 30.9043C71.3772 30.9043 70.7793 31.5254 70.7793 32.3198V32.3282C70.7793 33.1353 71.3856 33.7395 72.1913 33.7395C72.6196 33.7395 72.9461 33.6127 73.2556 33.3339C73.3107 33.2874 73.3447 33.2198 73.3447 33.148C73.3447 33.0127 73.2259 32.9029 73.0818 32.9029C73.0224 32.9029 72.9673 32.924 72.9164 32.9663C72.7001 33.1564 72.4754 33.2451 72.204 33.2451C71.7673 33.2451 71.445 32.9705 71.3645 32.5437H73.192C73.3404 32.5437 73.4634 32.4296 73.4634 32.286C73.4634 31.5972 73.0097 30.9043 72.1404 30.9043Z" fill="#1D1D1B"/>
<path id="Vector_3" d="M74.1031 29.8779C73.9462 29.8779 73.8232 30.0005 73.8232 30.1526V33.4315C73.8232 33.5878 73.9504 33.7061 74.1116 33.7061C74.2727 33.7061 74.3957 33.5878 74.3957 33.4315V30.1526C74.3914 30.0047 74.26 29.8779 74.1031 29.8779Z" fill="#1D1D1B"/>
<path id="Vector_4" d="M76.3593 32.1723L77.1734 31.4033C77.2285 31.3484 77.2752 31.2892 77.2752 31.1962C77.2752 31.0484 77.1565 30.9343 77.0081 30.9343C76.9233 30.9343 76.8554 30.9681 76.7918 31.0357L75.4985 32.2991V30.1526C75.4985 30.0005 75.3713 29.8779 75.2144 29.8779C75.0618 29.8779 74.9346 30.0047 74.9346 30.1526V33.4272C74.9346 33.5836 75.0618 33.7019 75.2229 33.7019C75.384 33.7019 75.5028 33.5836 75.5028 33.4272V32.9709L75.9607 32.5357L76.8215 33.5836C76.8893 33.6681 76.9614 33.7061 77.059 33.7061C77.2158 33.7061 77.3346 33.592 77.3346 33.4441C77.3346 33.3807 77.3134 33.3258 77.2667 33.2667L76.3593 32.1723Z" fill="#1D1D1B"/>
<path id="Vector_5" d="M77.9536 32.3113C77.9536 31.7916 78.3352 31.4029 78.8441 31.4029C79.3487 31.4029 79.7473 31.8085 79.7473 32.3198V32.3282C79.7473 32.8437 79.3614 33.2282 78.8526 33.2282C78.348 33.2282 77.9536 32.8268 77.9536 32.3156V32.3113ZM78.8526 30.9043C78.0257 30.9043 77.377 31.5254 77.377 32.324V32.3325C77.377 33.1226 78.0215 33.7395 78.8441 33.7395C79.6752 33.7395 80.3239 33.1184 80.3239 32.3198V32.3113C80.3239 31.5212 79.6794 30.9043 78.8526 30.9043Z" fill="#1D1D1B"/>
<path id="Vector_6" d="M83.7966 30.9043C83.4108 30.9043 83.1055 31.048 82.868 31.3437C82.6772 31.0606 82.3762 30.9043 82.0072 30.9043C81.6383 30.9043 81.4009 31.0522 81.2313 31.2296V31.2085C81.2313 31.0564 81.1041 30.9339 80.9472 30.9339C80.7903 30.9339 80.6631 31.0564 80.6631 31.2085V33.4311C80.6631 33.5874 80.7903 33.7057 80.9514 33.7057C81.1126 33.7057 81.2313 33.5874 81.2313 33.4311V32.1381C81.2313 31.7198 81.5069 31.4156 81.8885 31.4156C82.2701 31.4156 82.4864 31.6649 82.4864 32.0958V33.4311C82.4864 33.5874 82.6094 33.7057 82.7662 33.7057C82.9274 33.7057 83.0546 33.5832 83.0546 33.4311V32.1254C83.0546 31.7029 83.3133 31.4156 83.6991 31.4156C84.0892 31.4156 84.3012 31.6606 84.3012 32.1043V33.4311C84.3012 33.5874 84.4285 33.7057 84.5896 33.7057C84.7465 33.7057 84.8694 33.5832 84.8694 33.4311V32.0156C84.8694 31.3311 84.4581 30.9043 83.7966 30.9043Z" fill="#1D1D1B"/>
<path id="Vector_7" d="M86.926 30.0635C86.7818 30.0635 86.6631 30.1818 86.6631 30.3212V33.4691C86.6631 33.6085 86.7818 33.7269 86.926 33.7269C87.0744 33.7269 87.1931 33.6128 87.1931 33.4691V30.3212C87.1931 30.1776 87.0702 30.0635 86.926 30.0635Z" fill="#1D1D1B"/>
<path id="Vector_8" d="M89.2417 30.9463C88.8855 30.9463 88.5972 31.0731 88.3809 31.3266V31.2294C88.3809 31.09 88.2664 30.9759 88.118 30.9759C87.9781 30.9759 87.8594 31.09 87.8594 31.2294V33.4731C87.8594 33.6125 87.9739 33.7266 88.1223 33.7266C88.2707 33.7266 88.3809 33.6167 88.3809 33.4731V32.1632C88.3809 31.7195 88.6862 31.4111 89.1272 31.4111C89.5597 31.4111 89.8099 31.673 89.8099 32.1336V33.4731C89.8099 33.6125 89.9244 33.7266 90.0728 33.7266C90.217 33.7266 90.3315 33.6167 90.3315 33.4731V32.0407C90.3315 31.3773 89.9032 30.9463 89.2417 30.9463Z" fill="#1D1D1B"/>
<path id="Vector_9" d="M93.0232 32.3449V32.3534C93.0232 32.9365 92.5483 33.2956 92.1116 33.2956C91.607 33.2956 91.2253 32.89 91.2253 32.3534V32.3449C91.2253 31.7956 91.59 31.4069 92.1116 31.4069C92.561 31.4069 93.0232 31.7576 93.0232 32.3449ZM93.2649 29.9111C93.1165 29.9111 93.0063 30.021 93.0063 30.1647V31.3816C92.7476 31.09 92.4211 30.9463 92.0395 30.9463C91.3865 30.9463 90.6953 31.4365 90.6953 32.3492V32.3576C90.6953 33.2661 91.3865 33.7562 92.0395 33.7562C92.4253 33.7562 92.7434 33.6041 93.0063 33.2999V33.4731C93.0063 33.6125 93.1208 33.7266 93.2692 33.7266C93.4133 33.7266 93.5278 33.6168 93.5278 33.4731V30.1647C93.5278 30.021 93.4133 29.9111 93.2649 29.9111Z" fill="#1D1D1B"/>
<path id="Vector_10" d="M94.461 32.3449C94.461 31.8083 94.8554 31.4026 95.3812 31.4026C95.907 31.4026 96.3183 31.8209 96.3183 32.3533V32.3618C96.3183 32.8942 95.9197 33.2998 95.3897 33.2998C94.8681 33.2998 94.4568 32.8857 94.4568 32.3533V32.3449H94.461ZM95.3897 30.9463C94.567 30.9463 93.9268 31.5632 93.9268 32.3533V32.3618C93.9268 33.1435 94.5628 33.7604 95.3812 33.7604C96.2038 33.7604 96.8483 33.1435 96.8483 32.3533V32.3449C96.8483 31.559 96.208 30.9463 95.3897 30.9463Z" fill="#1D1D1B"/>
<path id="Vector_11" d="M98.6206 30.9463C98.2644 30.9463 97.9761 31.0731 97.7599 31.3266V31.2294C97.7599 31.09 97.6453 30.9759 97.4969 30.9759C97.3528 30.9759 97.2383 31.09 97.2383 31.2294V33.4731C97.2383 33.6125 97.3528 33.7266 97.5012 33.7266C97.6496 33.7266 97.7599 33.6167 97.7599 33.4731V32.1632C97.7599 31.7195 98.0651 31.4111 98.5061 31.4111C98.9386 31.4111 99.1888 31.673 99.1888 32.1336V33.4731C99.1888 33.6125 99.3033 33.7266 99.4517 33.7266C99.5959 33.7266 99.7104 33.6167 99.7104 33.4731V32.0407C99.7104 31.3773 99.2821 30.9463 98.6206 30.9463Z" fill="#1D1D1B"/>
<path id="Vector_12" d="M100.601 32.1505C100.673 31.6984 100.995 31.3857 101.406 31.3857C101.911 31.3857 102.144 31.7702 102.195 32.1505H100.601ZM101.415 30.9463C100.66 30.9463 100.066 31.5632 100.066 32.3491V32.3576C100.066 33.1561 100.669 33.7604 101.466 33.7604C101.89 33.7604 102.216 33.6336 102.522 33.3547C102.572 33.3125 102.602 33.2491 102.602 33.1857C102.602 33.0632 102.496 32.9618 102.365 32.9618C102.314 32.9618 102.263 32.9829 102.212 33.0209C101.991 33.2153 101.758 33.3083 101.478 33.3083C101.02 33.3083 100.673 33.004 100.601 32.5519H102.475C102.611 32.5519 102.721 32.4421 102.721 32.3111C102.725 31.635 102.276 30.9463 101.415 30.9463Z" fill="#1D1D1B"/>
<path id="Vector_13" d="M104.163 32.1125H104.154C103.828 32.0153 103.518 31.9266 103.518 31.728V31.7195C103.518 31.5294 103.701 31.4026 103.976 31.4026C104.184 31.4026 104.417 31.4703 104.65 31.5928C104.672 31.6055 104.714 31.6224 104.769 31.6224C104.901 31.6224 105.007 31.521 105.007 31.3984C105.007 31.3139 104.96 31.2336 104.879 31.1872C104.599 31.0393 104.277 30.959 103.989 30.959C103.416 30.959 103.014 31.2843 103.014 31.7576V31.766C103.014 32.2984 103.552 32.4463 103.946 32.5519C104.303 32.6449 104.574 32.7379 104.574 32.9491V32.9576C104.574 33.1688 104.375 33.3083 104.078 33.3083C103.802 33.3083 103.527 33.2196 103.26 33.0421C103.23 33.0167 103.179 32.9998 103.128 32.9998C102.997 32.9998 102.891 33.1012 102.891 33.2238C102.891 33.3125 102.942 33.3759 102.988 33.4097C103.293 33.621 103.692 33.7435 104.057 33.7435C104.663 33.7435 105.074 33.4097 105.074 32.9111V32.8984C105.066 32.3745 104.523 32.2181 104.163 32.1125Z" fill="#1D1D1B"/>
<path id="Vector_14" d="M105.774 30.9756C105.634 30.9756 105.516 31.0897 105.516 31.2291V33.4728C105.516 33.6122 105.63 33.7263 105.779 33.7263C105.923 33.7263 106.037 33.6164 106.037 33.4728V31.2291C106.037 31.0897 105.923 30.9756 105.774 30.9756Z" fill="#1D1D1B"/>
<path id="Vector_15" d="M108.416 32.4889V32.6959C108.416 33.0593 108.056 33.3382 107.577 33.3382C107.28 33.3382 106.962 33.1945 106.962 32.8819V32.8734C106.962 32.5734 107.233 32.3959 107.687 32.3959C107.933 32.3917 108.17 32.4255 108.416 32.4889ZM108.624 31.2678C108.416 31.0692 108.111 30.9678 107.712 30.9678C107.386 30.9678 107.11 31.0227 106.809 31.1452C106.741 31.1706 106.665 31.2509 106.665 31.3565C106.665 31.479 106.771 31.5804 106.902 31.5804C106.932 31.5804 106.966 31.572 106.996 31.5593C107.216 31.4664 107.437 31.4199 107.67 31.4199C108.009 31.4199 108.408 31.534 108.408 32.0664V32.079C108.208 32.0283 107.975 31.9861 107.64 31.9861C106.894 31.9861 106.432 32.3283 106.432 32.8776V32.8861C106.432 33.4523 106.966 33.7481 107.496 33.7481C107.933 33.7481 108.221 33.579 108.408 33.3974V33.4776C108.408 33.6128 108.514 33.7143 108.662 33.7143C108.806 33.7143 108.916 33.6086 108.916 33.465V32.0537C108.916 31.7241 108.819 31.4537 108.624 31.2678Z" fill="#1D1D1B"/>
<g id="Group_5">
<path id="Vector_16" d="M116.235 33.7819C116.443 33.4016 116.561 32.9622 116.561 32.5016C116.561 30.9636 115.26 29.7129 113.657 29.7129C113.279 29.7129 112.923 29.7805 112.597 29.9073C112.631 30.1861 112.69 30.465 112.779 30.7397C112.995 30.6551 113.237 30.6087 113.487 30.6087C114.518 30.6087 115.357 31.403 115.357 32.3833C115.357 32.7594 115.234 33.1101 115.022 33.3974C115.399 33.5749 115.811 33.7058 116.235 33.7819Z" fill="white"/>
<path id="Vector_17" d="M113.487 30.6084C113.233 30.6084 112.996 30.6549 112.779 30.7394C113.072 31.6478 113.666 32.4971 114.497 33.0845C114.662 33.1985 114.84 33.3042 115.027 33.3971C115.234 33.1098 115.362 32.7591 115.362 32.3831C115.357 31.4028 114.518 30.6084 113.487 30.6084Z" fill="#EE3426"/>
<path id="Vector_18" d="M117.774 31.5718C118.461 31.0479 120.191 29.9155 119.924 29.4549C119.708 29.0831 118.762 29.531 117.689 30.1141C116.85 30.5704 117.032 30.0211 117.562 29.2141C118.033 28.5042 118.741 27.5493 118.346 27.2916C117.884 26.9916 116.481 28.6563 116.15 28.9859C115.823 29.3155 115.518 29.4887 115.684 28.5761C115.904 27.3592 115.951 26.7211 115.675 26.6451C115.289 26.5352 115.052 27.0127 114.475 28.3521C114.064 29.3113 113.703 29.4803 113.657 28.6225C113.597 27.0761 113.203 27.431 113.05 27.6676C112.635 28.3225 112.491 29.1127 112.584 29.907C112.91 29.7845 113.271 29.7127 113.644 29.7127C115.247 29.7127 116.549 30.9634 116.549 32.5014C116.549 32.9662 116.434 33.4014 116.226 33.7817C117.142 33.9507 118.105 33.8704 118.834 33.507C118.953 33.4437 119.25 33.2662 119.067 33.0169C118.703 32.5225 118.041 32.7803 117.337 32.5775C116.727 32.4042 117.278 31.9521 117.774 31.5718Z" fill="#EE3426"/>
<path id="Vector_19" d="M115.022 33.3925C114.683 33.8531 114.123 34.1573 113.487 34.1573C112.457 34.1573 111.617 33.3629 111.617 32.3784C111.617 31.639 112.096 31.0009 112.779 30.7347C112.69 30.4601 112.63 30.1854 112.596 29.9023C111.515 30.308 110.752 31.3178 110.752 32.4967C110.752 34.0347 112.054 35.2854 113.657 35.2854C114.78 35.2854 115.751 34.6728 116.235 33.777C115.811 33.7052 115.399 33.5742 115.022 33.3925Z" fill="#6E6F72"/>
</g>
</g>
</g>
<g id="Vector_20">
<path d="M65.5906 33.857C65.4585 33.857 65.3615 33.8377 65.2644 33.799C65.1945 33.7758 65.1169 33.7178 65.1169 33.6056C65.1169 33.4895 65.2062 33.4121 65.3071 33.4121C65.346 33.4121 65.3692 33.4199 65.3925 33.4276C65.4469 33.4431 65.4896 33.4547 65.5556 33.4547C65.6954 33.4547 65.7692 33.3967 65.8468 33.238L65.8623 33.1955L65.1014 31.5009C65.0858 31.4661 65.0742 31.4197 65.0742 31.3887C65.0742 31.2572 65.1751 31.1605 65.3071 31.1605C65.4275 31.1605 65.4935 31.2301 65.5362 31.3384L66.0875 32.6964L66.6 31.3384C66.6388 31.2417 66.7048 31.1605 66.8252 31.1605C66.9494 31.1605 67.0504 31.2572 67.0504 31.381C67.0504 31.4197 67.0387 31.47 67.031 31.4932L66.2816 33.2845C66.1069 33.7023 65.9206 33.857 65.5906 33.857Z" fill="#1D1D1B"/>
<path d="M62.6699 33.0136V30.6149C62.6699 30.4834 62.7709 30.3828 62.9029 30.3828C63.0349 30.3828 63.1397 30.4834 63.1397 30.6149V31.5241C63.2911 31.3113 63.5047 31.1411 63.8386 31.1411C64.32 31.1411 64.7898 31.5203 64.7898 32.2012V32.2089C64.7898 32.886 64.3239 33.269 63.8386 33.269C63.4969 33.269 63.2834 33.0988 63.1397 32.9092V33.0136C63.1397 33.1413 63.0349 33.2458 62.9029 33.2458C62.7748 33.2458 62.6699 33.1413 62.6699 33.0136ZM63.726 32.8628C64.0482 32.8628 64.3122 32.6113 64.3122 32.2089V32.2012C64.3122 31.8066 64.0443 31.5473 63.726 31.5473C63.4076 31.5473 63.1281 31.8104 63.1281 32.2012V32.2089C63.1281 32.5997 63.4076 32.8628 63.726 32.8628Z" fill="#1D1D1B"/>
</g>
</g>
<g id="Group_6">
<path id="Vector_21" d="M56.9891 3.54102H56.4209L56.7177 4.42412L56.9891 3.54102Z" fill="url(#paint0_linear_2382_7436)"/>
<path id="Vector_22" d="M64.0704 7.28397L61.0938 16.9643C61.0344 17.1544 61.0386 17.3572 61.1022 17.5474L62.9425 23.0614C63.074 23.4502 63.4386 23.7164 63.8542 23.7164H70.0662C70.7192 23.7164 71.1856 23.0783 70.9778 22.4572L65.9022 7.26707C65.6054 6.37975 64.3461 6.39242 64.0704 7.28397Z" fill="url(#paint1_linear_2382_7436)"/>
<path id="Vector_23" d="M54.0378 31.8002L49.8145 25.9227C49.6406 25.6819 49.5898 25.3692 49.6788 25.0861L56.0562 4.21707C56.1791 3.81567 56.5523 3.54102 56.9721 3.54102H63.1883C63.8371 3.54102 64.2993 4.16637 64.1042 4.78327L55.7297 31.5255C55.4965 32.2819 54.5 32.4424 54.0378 31.8002Z" fill="url(#paint2_linear_2382_7436)"/>
<path id="Vector_24" d="M87.842 20.108L91.3614 15.9206L88.1133 12.2277C87.6724 11.7164 87.4646 11.2516 87.4603 10.7361C87.4561 9.62908 88.2787 8.9319 89.2582 8.92345C90.0342 8.91923 90.5769 9.27838 91.0985 9.91641L93.6724 13.3009L96.2632 9.89105C96.7254 9.32063 97.2639 8.8812 97.9635 8.87697C98.9981 8.87275 99.7996 9.58683 99.808 10.5671C99.8123 11.108 99.5791 11.522 99.2738 11.9065L95.9367 15.8361L99.4179 19.7826C99.8589 20.2939 100.067 20.7587 100.071 21.2742C100.075 22.3812 99.2526 23.0784 98.2731 23.0868C97.4971 23.0911 96.9543 22.7319 96.4328 22.0939L93.6257 18.4516L90.8526 22.1192C90.3904 22.6896 89.8518 23.1291 89.1522 23.1333C88.1176 23.1375 87.3162 22.4235 87.3077 21.4432C87.3034 20.9066 87.507 20.4967 87.842 20.108Z" fill="#1D1D1B"/>
<path id="Vector_25" d="M101.432 8.17203C101.427 7.03964 102.377 6.33823 103.62 6.334C104.858 6.32978 105.82 7.01851 105.825 8.15091V8.20161C105.829 9.334 104.879 10.0608 103.637 10.065C102.398 10.0692 101.436 9.35513 101.432 8.22274V8.17203ZM101.69 13.2678C101.686 12.1861 102.56 11.3072 103.645 11.303C104.731 11.2988 105.613 12.1692 105.617 13.2509L105.655 21.0425C105.659 22.1241 104.786 23.003 103.7 23.0072C102.615 23.0115 101.733 22.141 101.728 21.0594L101.69 13.2678Z" fill="#1D1D1B"/>
<path id="Vector_26" d="M107.203 18.8655V18.8148C107.186 15.8021 109.48 14.3993 112.762 14.3866C114.157 14.3782 115.166 14.6064 116.15 14.9359V14.7035C116.142 13.081 115.128 12.1852 113.165 12.1937C112.08 12.1979 111.202 12.3585 110.456 12.5951C110.222 12.6754 110.07 12.7007 109.887 12.7007C108.984 12.705 108.255 12.012 108.251 11.112C108.246 10.419 108.683 9.82326 109.302 9.58664C110.54 9.11763 111.88 8.85143 113.716 8.84298C115.862 8.83031 117.414 9.39228 118.402 10.3641C119.441 11.3866 119.911 12.9035 119.924 14.7585L119.954 21.0416C119.958 22.0979 119.11 22.9261 118.05 22.9303C116.913 22.9345 116.159 22.1402 116.154 21.3162V21.2909C115.205 22.3514 113.89 23.0528 111.978 23.0613C109.37 23.074 107.22 21.5951 107.203 18.8655ZM116.218 17.919L116.214 17.2261C115.54 16.9219 114.662 16.719 113.704 16.7233C112.024 16.7317 110.994 17.4078 111.003 18.6416V18.6923C111.007 19.7486 111.889 20.3613 113.157 20.3528C114.988 20.3444 116.222 19.3345 116.218 17.919Z" fill="#1D1D1B"/>
<path id="Vector_27" d="M86.9598 15.5363C86.947 12.6799 84.8863 8.9067 80.2601 8.92782C79.3145 8.93205 78.441 9.11796 77.6523 9.44332L74.2559 19.6095C75.4347 21.8954 77.8177 23.3025 80.7223 23.2898C82.7364 23.2813 84.3096 22.6264 85.5181 21.5912C85.8021 21.3335 86.0311 20.9447 86.0269 20.4292C86.0226 19.5546 85.3739 18.887 84.4962 18.8912C84.0848 18.8912 83.8262 18.9968 83.5421 19.2039C82.7449 19.7997 81.8417 20.1377 80.7562 20.1461C79.0007 20.1546 77.7541 19.2335 77.3597 17.4588L85.1364 17.4208C86.1711 17.4208 86.9682 16.6687 86.9598 15.5363ZM77.2962 15.0208C77.5972 13.2419 78.6488 12.0799 80.2771 12.0715C81.9308 12.063 82.9697 13.2419 83.2114 14.9912L77.2962 15.0208Z" fill="#1D1D1B"/>
<path id="Vector_28" d="M72.8101 20.1631L79.1875 1.94762C79.4037 1.32649 78.9416 0.675781 78.2801 0.675781H72.0681C71.6652 0.675781 71.3048 0.925075 71.1691 1.30113L67.8871 10.1786C67.8108 10.3814 67.8066 10.6054 67.8787 10.8124L70.9995 20.1504C71.2794 21.0166 72.5048 21.0251 72.8101 20.1631Z" fill="#BCBEC0"/>
<path id="Vector_29" d="M0 8.20067C0 7.06828 0.95406 6.37109 2.19646 6.37109C3.43887 6.37109 4.39295 7.06405 4.39295 8.20067V8.25138C4.39295 9.38377 3.43887 10.1063 2.19646 10.1063C0.95406 10.1063 0 9.38377 0 8.25138V8.20067ZM0.233236 13.2965C0.233236 12.2148 1.11095 11.3401 2.19646 11.3401C3.28198 11.3401 4.15972 12.2148 4.15972 13.2965V21.088C4.15972 22.1697 3.28198 23.0443 2.19646 23.0443C1.11095 23.0443 0.233236 22.1697 0.233236 21.088V13.2965Z" fill="#1D1D1B"/>
<path id="Vector_30" d="M6.02148 10.8966C6.02148 9.81492 6.89923 8.94027 7.98474 8.94027C9.07025 8.94027 9.94799 9.81492 9.94799 10.8966V11.0529C10.8512 9.8952 12.013 8.83887 14.0059 8.83887C16.9784 8.83887 18.7084 10.7952 18.7084 13.96V21.0924C18.7084 22.1741 17.8307 23.0487 16.7452 23.0487C15.6597 23.0487 14.7819 22.1741 14.7819 21.0924V15.198C14.7819 13.3431 13.9042 12.3924 12.4031 12.3924C10.902 12.3924 9.94799 13.3431 9.94799 15.198V21.0924C9.94799 22.1741 9.07025 23.0487 7.98474 23.0487C6.89923 23.0487 6.02148 22.1741 6.02148 21.0924V10.8966Z" fill="#1D1D1B"/>
<path id="Vector_31" d="M21.7402 12.4395H21.5834C20.6802 12.4395 19.9551 11.7423 19.9551 10.8423C19.9551 9.94234 20.6802 9.21981 21.5834 9.21981H21.7402V8.34517C21.7402 6.82826 22.1261 5.72122 22.8512 4.99868C23.5763 4.27615 24.6321 3.91699 26.0272 3.91699C26.6462 3.91699 27.189 3.94235 27.63 4.0184C28.3 4.11981 28.9742 4.71559 28.9742 5.59023C28.9742 6.46488 28.2491 7.21277 27.3714 7.21277H27.0364C26.1332 7.21277 25.6159 7.67756 25.6159 8.70432V9.24516H27.3204C28.2236 9.24516 28.9487 9.93812 28.9487 10.8423C28.9487 11.7466 28.2236 12.4395 27.3204 12.4395H25.6668V21.0888C25.6668 22.1705 24.789 23.0452 23.7035 23.0452C22.618 23.0452 21.7402 22.1705 21.7402 21.0888V12.4395Z" fill="#1D1D1B"/>
<path id="Vector_32" d="M30.4111 10.8968C30.4111 9.81508 31.2889 8.94043 32.3744 8.94043C33.4599 8.94043 34.3376 9.81508 34.3376 10.8968V11.5137C34.9058 10.1742 35.8344 8.94043 37.0005 8.94043C38.2132 8.94043 38.9129 9.73903 38.9129 10.8461C38.9129 11.8771 38.2429 12.494 37.4415 12.6756C35.4528 13.1404 34.3419 14.6573 34.3419 17.4376V21.0925C34.3419 22.1742 33.4641 23.0489 32.3786 23.0489C31.2931 23.0489 30.4154 22.1742 30.4154 21.0925V10.8968H30.4111Z" fill="#1D1D1B"/>
<path id="Vector_33" d="M51.9184 14.0827C51.7996 12.5954 51.3332 11.3616 50.4555 10.4869C49.4718 9.50663 47.924 8.94043 45.7785 8.94043C43.9424 8.94043 42.6025 9.19818 41.3601 9.66297C40.741 9.89536 40.3 10.4869 40.3 11.1799C40.3 12.0799 41.0251 12.7771 41.9283 12.7771C42.1106 12.7771 42.2633 12.7517 42.4965 12.6756C43.247 12.4433 44.1247 12.2911 45.2102 12.2911C47.1735 12.2911 48.1827 13.1911 48.1827 14.8137V15.0461C47.1989 14.7123 46.194 14.4799 44.799 14.4799C41.517 14.4799 39.2188 15.87 39.2188 18.8827V18.9334C39.2188 21.663 41.3643 23.1545 43.9721 23.1545C45.8845 23.1545 47.2032 22.4573 48.1572 21.4052V21.4306C48.1572 22.0306 48.5558 22.6179 49.2131 22.8883L51.9184 14.0827ZM48.2336 18.0249C48.2336 19.4404 46.9954 20.4461 45.1594 20.4461C43.8915 20.4461 43.0138 19.8292 43.0138 18.7728V18.7221C43.0138 17.4883 44.0484 16.8165 45.7276 16.8165C46.6816 16.8165 47.5636 17.0235 48.2336 17.332V18.0249Z" fill="#1D1D1B"/>
</g>
</g>
<defs>
<linearGradient id="paint0_linear_2382_7436" x1="56.4223" y1="3.98337" x2="56.9881" y2="3.98337" gradientUnits="userSpaceOnUse">
<stop offset="6e-07" stop-color="#26286D"/>
<stop offset="1" stop-color="#5AB8E8"/>
</linearGradient>
<linearGradient id="paint1_linear_2382_7436" x1="61.053" y1="15.1605" x2="71.0264" y2="15.1605" gradientUnits="userSpaceOnUse">
<stop offset="6e-07" stop-color="#26286D"/>
<stop offset="1" stop-color="#5AB8E8"/>
</linearGradient>
<linearGradient id="paint2_linear_2382_7436" x1="49.6362" y1="17.8709" x2="64.152" y2="17.8709" gradientUnits="userSpaceOnUse">
<stop stop-color="#BE1E2D"/>
<stop offset="0.5296" stop-color="#D41D29"/>
<stop offset="1" stop-color="#ED1C24"/>
</linearGradient>
</defs>
</svg>
