<svg xmlns="http://www.w3.org/2000/svg" xmlns:xlink="http://www.w3.org/1999/xlink" width="1600" zoomAndPan="magnify" viewBox="0 0 1200 809.999993" height="1080" preserveAspectRatio="xMidYMid meet" version="1.2"><g id="91d30b95b3"><path style=" stroke:none;fill-rule:nonzero;fill:#fead6b;fill-opacity:1;" d="M 605.03125 6.167969 C 605.914062 6.167969 606.796875 6.167969 607.683594 6.167969 C 614.410156 6.15625 621.121094 6.253906 627.84375 6.546875 C 628 6.550781 628.152344 6.558594 628.3125 6.566406 C 630.035156 6.640625 631.757812 6.730469 633.480469 6.828125 C 633.847656 6.851562 634.210938 6.871094 634.578125 6.890625 C 648.5625 7.6875 662.503906 9.105469 806.957031 49.902344 C 807.078125 49.957031 807.199219 50.011719 807.320312 50.070312 C 811.195312 51.867188 815.023438 53.75 818.84375 55.65625 C 819.191406 55.832031 819.542969 56.003906 819.894531 56.179688 C 822.519531 57.488281 825.121094 58.828125 827.6875 60.25 C 828.441406 60.660156 829.203125 61.050781 829.964844 61.441406 C 831.578125 62.277344 833.164062 63.160156 834.742188 64.058594 C 835.632812 64.566406 836.527344 65.0625 837.425781 65.558594 C 839.730469 66.835938 842.015625 68.144531 844.285156 69.484375 C 844.496094 69.609375 844.707031 69.734375 844.917969 69.859375 C 847.695312 71.492188 850.453125 73.152344 853.175781 74.871094 C 853.683594 75.191406 854.191406 75.507812 854.699219 75.828125 C 854.875 75.933594 855.050781 76.042969 855.230469 76.15625 C 855.554688 76.359375 855.878906 76.558594 856.203125 76.761719 C 858.878906 78.429688 861.511719 80.171875 864.144531 81.90625 C 864.304688 82.011719 864.46875 82.117188 864.636719 82.230469 C 866.882812 83.710938 869.113281 85.207031 871.3125 86.761719 C 871.945312 87.207031 872.582031 87.648438 873.21875 88.085938 C 874.90625 89.257812 876.582031 90.445312 878.242188 91.65625 C 878.605469 91.917969 878.96875 92.179688 879.335938 92.441406 C 880.847656 93.523438 882.332031 94.632812 883.808594 95.761719 C 884.796875 96.519531 885.789062 97.261719 886.792969 97.996094 C 888.007812 98.882812 889.199219 99.796875 890.375 100.734375 C 890.859375 101.117188 891.34375 101.496094 891.828125 101.878906 C 892.019531 102.03125 892.214844 102.183594 892.410156 102.335938 C 892.808594 102.648438 893.203125 102.960938 893.601562 103.269531 C 894.808594 104.214844 896 105.171875 897.183594 106.144531 C 897.488281 106.398438 897.796875 106.648438 898.105469 106.898438 C 898.332031 107.085938 898.332031 107.085938 898.566406 107.277344 C 898.867188 107.523438 899.171875 107.769531 899.472656 108.015625 C 900.402344 108.773438 901.320312 109.539062 902.234375 110.316406 C 902.796875 110.796875 903.367188 111.265625 903.941406 111.730469 C 905.003906 112.597656 906.035156 113.496094 907.066406 114.398438 C 907.394531 114.683594 907.71875 114.964844 908.046875 115.246094 C 909.160156 116.207031 910.261719 117.175781 911.34375 118.164062 C 911.695312 118.484375 912.046875 118.796875 912.40625 119.109375 C 913.066406 119.683594 913.710938 120.277344 914.355469 120.871094 C 914.808594 121.285156 915.265625 121.699219 915.734375 122.101562 C 916.714844 122.953125 917.65625 123.855469 918.605469 124.746094 C 918.945312 125.0625 919.285156 125.378906 919.625 125.691406 C 919.734375 125.796875 919.84375 125.898438 919.960938 126.003906 C 920.167969 126.199219 920.378906 126.394531 920.585938 126.585938 C 921.078125 127.042969 921.558594 127.507812 922.03125 127.984375 C 922.425781 128.386719 922.832031 128.761719 923.261719 129.128906 C 923.914062 129.695312 924.53125 130.292969 925.144531 130.90625 C 925.308594 131.070312 925.308594 131.070312 925.476562 131.234375 C 925.832031 131.589844 926.191406 131.949219 926.546875 132.304688 C 926.796875 132.554688 927.046875 132.804688 927.296875 133.054688 C 927.820312 133.578125 928.34375 134.101562 928.867188 134.625 C 929.535156 135.292969 930.203125 135.960938 930.871094 136.628906 C 931.386719 137.144531 931.902344 137.664062 932.417969 138.179688 C 932.664062 138.425781 932.910156 138.671875 933.160156 138.917969 C 933.503906 139.261719 933.847656 139.605469 934.191406 139.953125 C 934.292969 140.050781 934.394531 140.152344 934.496094 140.253906 C 935.109375 140.871094 935.691406 141.511719 936.257812 142.171875 C 936.632812 142.597656 937.035156 142.992188 937.441406 143.390625 C 938.066406 144.003906 938.648438 144.636719 939.222656 145.296875 C 939.75 145.898438 940.300781 146.472656 940.851562 147.050781 C 941.824219 148.078125 942.78125 149.113281 943.71875 150.171875 C 943.960938 150.433594 944.199219 150.699219 944.441406 150.964844 C 945.132812 151.734375 945.804688 152.519531 946.476562 153.308594 C 947.007812 153.929688 947.550781 154.539062 948.101562 155.140625 C 948.78125 155.878906 949.414062 156.640625 950.042969 157.421875 C 950.40625 157.863281 950.785156 158.285156 951.167969 158.707031 C 951.8125 159.417969 952.425781 160.152344 953.027344 160.898438 C 953.464844 161.433594 953.910156 161.957031 954.359375 162.484375 C 955 163.238281 955.625 164 956.238281 164.773438 C 956.523438 165.128906 956.808594 165.484375 957.097656 165.835938 C 958.140625 167.109375 959.160156 168.394531 960.15625 169.707031 C 960.742188 170.476562 961.335938 171.234375 961.945312 171.984375 C 962.824219 173.074219 963.664062 174.1875 964.5 175.308594 C 965.164062 176.199219 965.832031 177.082031 966.507812 177.960938 C 967.597656 179.382812 968.65625 180.816406 969.679688 182.285156 C 970.183594 183.003906 970.699219 183.714844 971.214844 184.421875 C 973.578125 187.6875 975.824219 191.023438 978.050781 194.382812 C 978.414062 194.929688 978.777344 195.476562 979.144531 196.023438 C 979.996094 197.300781 980.839844 198.582031 981.664062 199.875 C 981.777344 200.054688 981.890625 200.230469 982.007812 200.414062 C 984.082031 203.667969 986.105469 206.949219 988.078125 210.265625 C 988.171875 210.417969 988.261719 210.574219 988.355469 210.730469 C 991.523438 216.035156 994.5625 221.417969 997.394531 226.90625 C 997.742188 227.578125 998.09375 228.242188 998.445312 228.910156 C 998.652344 229.300781 998.859375 229.695312 999.066406 230.089844 C 999.226562 230.394531 999.386719 230.699219 999.546875 231.003906 C 1000.773438 233.332031 1001.953125 235.675781 1003.074219 238.058594 C 1003.316406 238.570312 1003.566406 239.078125 1003.816406 239.589844 C 1005.164062 242.347656 1006.425781 245.144531 1007.660156 247.957031 C 1008.035156 248.808594 1008.414062 249.65625 1008.792969 250.503906 C 1014.867188 264.058594 1019.972656 278.203125 1024.726562 294.808594 C 1024.785156 295.019531 1024.847656 295.226562 1024.90625 295.441406 C 1025.539062 297.683594 1026.15625 299.929688 1026.746094 302.183594 C 1026.824219 302.472656 1026.824219 302.472656 1026.902344 302.769531 C 1026.96875 303.035156 1026.96875 303.035156 1027.039062 303.304688 C 1027.082031 303.460938 1027.121094 303.617188 1027.164062 303.777344 C 1027.25 304.171875 1027.25 304.171875 1027.25 304.675781 C 1027.34375 304.675781 1027.4375 304.671875 1027.53125 304.671875 C 1038.367188 304.5 1049.265625 306.363281 1059.554688 309.699219 C 1059.757812 309.761719 1059.957031 309.828125 1060.164062 309.894531 C 1073.035156 314.101562 1084.996094 320.898438 1095.265625 329.710938 C 1095.5625 329.964844 1095.859375 330.214844 1096.15625 330.46875 C 1097.109375 331.273438 1098.039062 332.078125 1098.90625 332.980469 C 1099.210938 333.28125 1099.519531 333.558594 1099.847656 333.835938 C 1100.597656 334.488281 1101.300781 335.179688 1102 335.882812 C 1102.179688 336.0625 1102.179688 336.0625 1102.363281 336.246094 C 1103.039062 336.921875 1103.6875 337.617188 1104.3125 338.34375 C 1104.71875 338.8125 1105.144531 339.261719 1105.570312 339.714844 C 1106.457031 340.667969 1107.285156 341.65625 1108.101562 342.675781 C 1108.269531 342.878906 1108.4375 343.085938 1108.605469 343.289062 C 1111.542969 346.859375 1114.230469 350.613281 1116.636719 354.558594 C 1116.722656 354.699219 1116.808594 354.839844 1116.898438 354.988281 C 1124.558594 367.609375 1129.769531 381.855469 1131.746094 399.222656 C 1131.765625 399.429688 1131.765625 399.429688 1131.789062 399.640625 C 1131.828125 400.046875 1131.867188 400.453125 1131.90625 400.859375 C 1131.921875 401.027344 1131.921875 401.027344 1131.9375 401.203125 C 1132.179688 403.835938 1132.230469 406.457031 1132.226562 409.097656 C 1132.226562 409.457031 1132.226562 409.816406 1132.230469 410.179688 C 1132.230469 411.160156 1132.230469 412.140625 1132.230469 413.121094 C 1132.230469 414.183594 1132.230469 415.246094 1132.230469 416.308594 C 1132.234375 418.382812 1132.234375 420.460938 1132.234375 422.539062 C 1132.234375 424.230469 1132.234375 425.917969 1132.234375 427.609375 C 1132.234375 428.097656 1132.234375 428.585938 1132.234375 429.074219 C 1132.234375 429.195312 1132.234375 429.316406 1132.234375 429.441406 C 1132.234375 432.851562 1132.238281 436.261719 1132.238281 439.671875 C 1132.238281 439.863281 1132.238281 439.863281 1132.238281 440.058594 C 1132.238281 440.710938 1132.238281 441.359375 1132.238281 442.011719 C 1132.238281 442.140625 1132.238281 442.269531 1132.238281 442.402344 C 1132.238281 442.664062 1132.238281 442.925781 1132.238281 443.1875 C 1132.234375 447.246094 1132.238281 451.304688 1132.238281 455.363281 C 1132.242188 459.933594 1132.242188 464.503906 1132.242188 469.074219 C 1132.242188 469.566406 1132.242188 470.054688 1132.242188 470.542969 C 1132.242188 470.660156 1132.242188 470.78125 1132.242188 470.90625 C 1132.242188 472.832031 1132.246094 474.757812 1132.246094 476.679688 C 1132.246094 478.621094 1132.246094 480.558594 1132.246094 482.5 C 1132.246094 483.546875 1132.246094 484.59375 1132.246094 485.644531 C 1132.253906 489.835938 1132.242188 494.003906 1131.871094 498.183594 C 1131.855469 498.332031 1131.84375 498.484375 1131.832031 498.636719 C 1131.757812 499.421875 1131.675781 500.203125 1131.578125 500.988281 C 1131.558594 501.160156 1131.558594 501.160156 1131.535156 501.332031 C 1130.984375 505.863281 1130.148438 510.332031 1129.023438 514.757812 C 1128.953125 515.042969 1128.953125 515.042969 1128.878906 515.332031 C 1125.496094 528.703125 1119.257812 541.539062 1110.777344 552.417969 C 1110.625 552.621094 1110.46875 552.824219 1110.3125 553.023438 C 1109.417969 554.183594 1108.488281 555.308594 1107.535156 556.421875 C 1107.117188 556.910156 1106.714844 557.410156 1106.3125 557.914062 C 1105.777344 558.570312 1105.21875 559.175781 1104.605469 559.761719 C 1104.304688 560.066406 1104.03125 560.375 1103.753906 560.699219 C 1102.96875 561.601562 1102.121094 562.441406 1101.277344 563.285156 C 1100.996094 563.5625 1100.71875 563.839844 1100.441406 564.117188 C 1099.507812 565.054688 1098.558594 565.957031 1097.554688 566.816406 C 1097.257812 567.085938 1096.960938 567.359375 1096.664062 567.632812 C 1095.921875 568.308594 1095.164062 568.953125 1094.382812 569.582031 C 1094.007812 569.886719 1093.636719 570.191406 1093.265625 570.496094 C 1091.746094 571.753906 1090.183594 572.933594 1088.574219 574.070312 C 1088.179688 574.347656 1087.789062 574.628906 1087.398438 574.910156 C 1076.582031 582.664062 1064.214844 587.933594 1051.328125 591.058594 C 1051.113281 591.109375 1051.113281 591.109375 1050.898438 591.160156 C 1050.628906 591.226562 1050.363281 591.289062 1050.09375 591.355469 C 1049.503906 591.457031 1049.503906 591.457031 1049.011719 591.757812 C 1049.007812 591.996094 1049.015625 592.238281 1049.027344 592.480469 C 1049.039062 592.632812 1049.046875 592.785156 1049.054688 592.941406 C 1049.066406 593.191406 1049.066406 593.191406 1049.082031 593.449219 C 1049.179688 595.472656 1049.207031 597.492188 1049.210938 599.515625 C 1049.210938 599.882812 1049.214844 600.246094 1049.214844 600.609375 C 1049.21875 601.765625 1049.21875 602.925781 1049.21875 604.082031 C 1049.21875 604.277344 1049.21875 604.476562 1049.21875 604.679688 C 1049.222656 610.320312 1049.214844 615.945312 1048.71875 621.570312 C 1048.671875 622.085938 1048.628906 622.601562 1048.585938 623.117188 C 1047.222656 639.039062 1044.203125 654.730469 1035.117188 680.8125 C 1035.03125 681.015625 1034.949219 681.21875 1034.859375 681.429688 C 1033.675781 684.265625 1032.414062 687.070312 1031.097656 689.851562 C 1031.003906 690.050781 1030.910156 690.25 1030.816406 690.453125 C 1029.621094 692.984375 1028.378906 695.480469 1027.007812 697.921875 C 1026.730469 698.417969 1026.457031 698.914062 1026.183594 699.410156 C 1024.324219 702.777344 1022.335938 706.058594 1020.21875 709.269531 C 1020.152344 709.371094 1020.085938 709.472656 1020.015625 709.578125 C 1017.558594 713.324219 1014.9375 716.953125 1012.183594 720.484375 C 1012.113281 720.574219 1012.042969 720.664062 1011.972656 720.757812 C 1009.65625 723.746094 1007.242188 726.664062 1004.6875 729.449219 C 1004.371094 729.796875 1004.058594 730.148438 1003.75 730.507812 C 1002.585938 731.84375 1001.382812 733.144531 1000.117188 734.386719 C 999.820312 734.6875 999.542969 735 999.269531 735.320312 C 998.5625 736.132812 997.808594 736.894531 997.042969 737.652344 C 996.910156 737.789062 996.773438 737.925781 996.636719 738.0625 C 995.914062 738.785156 995.175781 739.476562 994.402344 740.140625 C 993.976562 740.515625 993.582031 740.917969 993.183594 741.324219 C 992.570312 741.945312 991.945312 742.539062 991.285156 743.105469 C 990.917969 743.421875 990.5625 743.75 990.210938 744.078125 C 989.335938 744.886719 988.445312 745.652344 987.515625 746.398438 C 987.078125 746.761719 986.65625 747.136719 986.238281 747.519531 C 985.371094 748.304688 984.46875 749.042969 983.558594 749.777344 C 983.347656 749.953125 983.136719 750.125 982.921875 750.296875 C 981.640625 751.347656 980.347656 752.378906 979.027344 753.382812 C 978.648438 753.671875 978.269531 753.964844 977.886719 754.257812 C 976.183594 755.566406 974.46875 756.839844 972.703125 758.0625 C 972.332031 758.324219 971.960938 758.585938 971.59375 758.847656 C 969.152344 760.578125 966.652344 762.214844 964.140625 763.839844 C 963.992188 763.9375 963.839844 764.035156 963.6875 764.132812 C 957.792969 767.9375 951.636719 771.359375 945.394531 774.550781 C 945.277344 774.613281 945.160156 774.671875 945.042969 774.734375 C 941.199219 776.699219 937.324219 778.5625 933.363281 780.277344 C 932.714844 780.558594 932.066406 780.847656 931.421875 781.132812 C 926.085938 783.496094 920.621094 785.546875 915.121094 787.480469 C 914.765625 787.609375 914.410156 787.734375 914.054688 787.859375 C 898.375 793.421875 882.003906 797.273438 839.304688 802.828125 C 839.101562 802.839844 839.101562 802.839844 838.894531 802.855469 C 831.277344 803.410156 823.660156 803.574219 816.023438 803.566406 C 815.5625 803.5625 815.105469 803.5625 814.644531 803.5625 C 808.019531 803.558594 801.40625 803.507812 794.789062 803.046875 C 794.226562 803.007812 793.664062 802.972656 793.101562 802.9375 C 777.417969 801.921875 761.777344 799.859375 746.359375 796.816406 C 746.167969 796.777344 745.972656 796.738281 745.773438 796.699219 C 736.695312 794.90625 727.617188 792.898438 718.710938 790.378906 C 718.574219 790.339844 718.433594 790.300781 718.292969 790.261719 C 718.03125 790.1875 717.773438 790.113281 717.515625 790.035156 C 716.945312 789.875 716.492188 789.785156 715.894531 789.785156 C 715.609375 790.058594 715.609375 790.058594 715.359375 790.433594 C 714.808594 791.1875 714.210938 791.875 713.578125 792.566406 C 713.273438 792.902344 712.984375 793.246094 712.695312 793.59375 C 711.074219 795.441406 709.152344 797.023438 707.191406 798.488281 C 707.101562 798.558594 707.011719 798.625 706.917969 798.695312 C 696.714844 806.351562 684.101562 809.894531 671.535156 810.878906 C 671.394531 810.890625 671.25 810.902344 671.101562 810.914062 C 659.191406 811.867188 646.824219 809.921875 625.335938 801.835938 C 625.195312 801.773438 625.054688 801.707031 624.914062 801.640625 C 621.257812 799.914062 617.765625 797.792969 614.453125 795.476562 C 614.332031 795.390625 614.207031 795.304688 614.082031 795.21875 C 611.660156 793.523438 609.351562 791.695312 607.1875 789.679688 C 606.835938 789.359375 606.480469 789.046875 606.121094 788.738281 C 605.378906 788.089844 604.675781 787.398438 603.980469 786.699219 C 603.859375 786.578125 603.742188 786.460938 603.617188 786.335938 C 602.84375 785.5625 602.109375 784.757812 601.398438 783.925781 C 601.25 783.761719 601.105469 783.597656 600.957031 783.425781 C 599.664062 781.933594 598.507812 780.355469 597.378906 778.738281 C 597.304688 778.628906 597.226562 778.519531 597.148438 778.40625 C 594.441406 774.53125 592.25 770.195312 590.851562 765.679688 C 590.808594 765.539062 590.761719 765.402344 590.714844 765.257812 C 589.710938 762.066406 589.003906 758.714844 588.96875 755.355469 C 588.96875 755.15625 588.96875 755.15625 588.964844 754.949219 C 588.890625 747.136719 590.554688 739.878906 594.816406 733.234375 C 594.921875 733.070312 595.023438 732.90625 595.132812 732.738281 C 595.210938 732.617188 595.289062 732.496094 595.371094 732.367188 C 595.203125 732.367188 595.035156 732.367188 594.863281 732.371094 C 589.117188 732.371094 583.371094 732.371094 577.628906 732.375 C 577.453125 732.375 577.453125 732.375 577.277344 732.375 C 564.859375 732.378906 552.441406 732.382812 540.023438 732.382812 C 539.75 732.382812 539.472656 732.382812 539.195312 732.382812 C 533.398438 732.382812 527.597656 732.386719 521.800781 732.386719 C 518.886719 732.386719 515.972656 732.386719 513.058594 732.386719 C 512.621094 732.386719 512.179688 732.386719 511.742188 732.386719 C 504.984375 732.386719 498.226562 732.390625 491.46875 732.390625 C 491.324219 732.390625 491.179688 732.390625 491.027344 732.390625 C 488.691406 732.394531 486.351562 732.394531 484.015625 732.394531 C 477.273438 732.398438 470.53125 732.398438 463.789062 732.398438 C 463.648438 732.398438 463.507812 732.398438 463.367188 732.398438 C 460.3125 732.398438 457.257812 732.398438 454.207031 732.402344 C 452.976562 732.402344 451.746094 732.402344 450.519531 732.402344 C 450.316406 732.402344 450.316406 732.402344 450.109375 732.402344 C 445.796875 732.402344 441.480469 732.402344 437.164062 732.40625 C 432.808594 732.40625 428.449219 732.40625 424.09375 732.40625 C 423.488281 732.40625 422.882812 732.40625 422.277344 732.40625 C 422.101562 732.40625 422.101562 732.40625 421.917969 732.40625 C 420.058594 732.40625 418.199219 732.40625 416.339844 732.410156 C 414.5 732.410156 412.65625 732.410156 410.816406 732.410156 C 409.839844 732.410156 408.859375 732.410156 407.878906 732.410156 C 400.898438 732.421875 393.90625 732.292969 386.945312 731.742188 C 386.671875 731.71875 386.671875 731.71875 386.398438 731.699219 C 369.242188 730.378906 352.296875 727.105469 313.980469 714.121094 C 313.765625 714.03125 313.546875 713.941406 313.332031 713.847656 C 310.164062 712.507812 307.042969 711.082031 303.9375 709.601562 C 303.832031 709.554688 303.726562 709.503906 303.617188 709.453125 C 301.167969 708.289062 298.726562 707.109375 296.339844 705.820312 C 295.832031 705.546875 295.320312 705.277344 294.808594 705.007812 C 292.414062 703.738281 290.058594 702.425781 287.730469 701.042969 C 287.15625 700.707031 286.578125 700.375 286.003906 700.039062 C 283.589844 698.644531 281.234375 697.1875 278.90625 695.648438 C 278.304688 695.25 277.695312 694.875 277.082031 694.496094 C 275.867188 693.746094 274.695312 692.945312 273.523438 692.128906 C 273.089844 691.828125 272.652344 691.527344 272.21875 691.222656 C 269.136719 689.09375 266.113281 686.90625 263.144531 684.625 C 262.8125 684.367188 262.480469 684.113281 262.144531 683.859375 C 260.917969 682.925781 259.71875 681.960938 258.527344 680.984375 C 258.03125 680.582031 257.535156 680.183594 257.035156 679.785156 C 256.300781 679.203125 255.585938 678.597656 254.871094 677.988281 C 254.292969 677.496094 253.703125 677.011719 253.113281 676.53125 C 252.316406 675.882812 251.554688 675.203125 250.796875 674.507812 C 250.433594 674.171875 250.0625 673.84375 249.691406 673.519531 C 248.316406 672.324219 246.972656 671.089844 245.632812 669.855469 C 245.453125 669.691406 245.273438 669.527344 245.09375 669.363281 C 243.074219 667.519531 241.140625 665.582031 239.207031 663.644531 C 238.742188 663.179688 238.277344 662.710938 237.808594 662.246094 C 237.445312 661.882812 237.082031 661.519531 236.71875 661.15625 C 236.546875 660.984375 236.375 660.8125 236.203125 660.640625 C 235.339844 659.777344 234.496094 658.914062 233.703125 657.988281 C 233.414062 657.652344 233.109375 657.328125 232.804688 657.003906 C 232.636719 656.828125 232.636719 656.828125 232.464844 656.648438 C 232.351562 656.527344 232.242188 656.410156 232.125 656.289062 C 231.265625 655.386719 230.425781 654.46875 229.613281 653.527344 C 229.492188 653.386719 229.492188 653.386719 229.367188 653.242188 C 229.136719 652.972656 228.902344 652.699219 228.671875 652.425781 C 228.039062 651.6875 227.402344 650.949219 226.765625 650.214844 C 225.796875 649.105469 224.851562 647.976562 223.921875 646.832031 C 223.679688 646.535156 223.433594 646.238281 223.191406 645.941406 C 222.390625 644.960938 221.609375 643.96875 220.832031 642.972656 C 220.5625 642.628906 220.289062 642.285156 220.019531 641.9375 C 218.605469 640.136719 217.234375 638.304688 215.886719 636.453125 C 215.753906 636.269531 215.753906 636.269531 215.617188 636.082031 C 213.03125 632.539062 210.5625 628.921875 208.1875 625.238281 C 208.082031 625.078125 207.980469 624.917969 207.875 624.753906 C 204.742188 619.902344 201.8125 614.914062 199.078125 609.828125 C 198.789062 609.292969 198.5 608.761719 198.210938 608.226562 C 196.289062 604.675781 194.464844 601.078125 192.753906 597.417969 C 192.664062 597.226562 192.574219 597.03125 192.480469 596.832031 C 192.355469 596.558594 192.355469 596.558594 192.226562 596.28125 C 192.152344 596.121094 192.078125 595.964844 192 595.800781 C 191.722656 595.132812 191.5 594.453125 191.28125 593.765625 C 191.152344 593.765625 191.027344 593.769531 190.898438 593.769531 C 178.660156 593.871094 178.660156 593.871094 173.703125 593.265625 C 173.496094 593.238281 173.496094 593.238281 173.289062 593.214844 C 158.898438 591.457031 145.074219 587.023438 119.800781 571 C 119.648438 570.875 119.492188 570.75 119.332031 570.621094 C 117.398438 569.054688 115.527344 567.425781 113.710938 565.726562 C 113.441406 565.476562 113.167969 565.222656 112.890625 564.972656 C 111.332031 563.550781 109.785156 562.105469 108.414062 560.496094 C 108.054688 560.082031 107.679688 559.683594 107.304688 559.285156 C 106.4375 558.363281 105.597656 557.429688 104.808594 556.4375 C 104.5 556.054688 104.1875 555.675781 103.871094 555.300781 C 101.679688 552.683594 99.714844 549.941406 97.820312 547.105469 C 97.703125 546.929688 97.703125 546.929688 97.585938 546.753906 C 96.515625 545.15625 95.503906 543.53125 94.527344 541.875 C 94.398438 541.660156 94.398438 541.660156 94.265625 541.441406 C 90.875 535.757812 88.191406 529.691406 85.988281 523.460938 C 85.894531 523.195312 85.894531 523.195312 85.796875 522.925781 C 82.929688 514.867188 81.265625 506.398438 80.507812 497.890625 C 80.488281 497.675781 80.46875 497.457031 80.449219 497.234375 C 80.183594 494.0625 80.105469 490.886719 80.109375 487.703125 C 80.105469 487.355469 80.105469 487.011719 80.105469 486.664062 C 80.105469 485.726562 80.105469 484.785156 80.105469 483.847656 C 80.105469 482.828125 80.105469 481.808594 80.105469 480.792969 C 80.101562 478.800781 80.101562 476.8125 80.101562 474.824219 C 80.101562 473.203125 80.101562 471.582031 80.101562 469.964844 C 80.101562 469.496094 80.101562 469.027344 80.101562 468.558594 C 80.101562 468.382812 80.101562 468.382812 80.101562 468.203125 C 80.097656 464.933594 80.097656 461.660156 80.097656 458.390625 C 80.097656 458.265625 80.097656 458.144531 80.097656 458.019531 C 80.097656 457.394531 80.097656 456.769531 80.097656 456.148438 C 80.097656 456.023438 80.097656 455.898438 80.097656 455.773438 C 80.097656 455.523438 80.097656 455.269531 80.097656 455.019531 C 80.097656 451.132812 80.097656 447.242188 80.09375 443.351562 C 80.09375 438.96875 80.089844 434.582031 80.089844 430.199219 C 80.09375 429.730469 80.09375 429.261719 80.09375 428.792969 C 80.09375 428.675781 80.09375 428.5625 80.09375 428.441406 C 80.09375 426.597656 80.089844 424.753906 80.089844 422.910156 C 80.089844 421.050781 80.085938 419.191406 80.089844 417.332031 C 80.089844 416.328125 80.089844 415.328125 80.089844 414.324219 C 80.082031 410.773438 80.085938 407.234375 80.28125 403.691406 C 80.289062 403.570312 80.296875 403.449219 80.300781 403.324219 C 81.035156 390.425781 84.21875 377.578125 111.410156 334.976562 C 111.75 334.636719 112.089844 334.292969 112.429688 333.953125 C 112.652344 333.730469 112.875 333.511719 113.09375 333.289062 C 113.195312 333.191406 113.292969 333.089844 113.394531 332.988281 C 114.109375 332.277344 114.855469 331.613281 115.617188 330.957031 C 115.816406 330.78125 116.015625 330.605469 116.214844 330.429688 C 117.5 329.304688 118.808594 328.21875 120.164062 327.175781 C 120.488281 326.925781 120.8125 326.675781 121.132812 326.421875 C 124.597656 323.734375 128.234375 321.28125 132.023438 319.070312 C 132.152344 318.996094 132.28125 318.917969 132.414062 318.839844 C 144.476562 311.769531 157.84375 307.328125 177.886719 304.84375 C 178.023438 304.832031 178.15625 304.824219 178.296875 304.8125 C 180.558594 304.65625 182.820312 304.65625 185.085938 304.675781 C 185.121094 304.507812 185.15625 304.34375 185.191406 304.171875 C 185.6875 301.824219 186.328125 299.523438 186.980469 297.214844 C 187.039062 297.007812 187.097656 296.800781 187.15625 296.585938 C 191.667969 280.609375 197.214844 264.980469 207.070312 242.828125 C 207.320312 242.304688 207.5625 241.777344 207.808594 241.253906 C 209.972656 236.59375 212.222656 231.964844 214.652344 227.433594 C 214.882812 227.007812 215.109375 226.578125 215.335938 226.148438 C 216.679688 223.609375 218.046875 221.085938 219.476562 218.59375 C 219.738281 218.128906 220 217.664062 220.261719 217.199219 C 221.566406 214.871094 222.914062 212.574219 224.28125 210.285156 C 224.558594 209.816406 224.839844 209.34375 225.121094 208.875 C 226.320312 206.859375 227.554688 204.871094 228.800781 202.886719 C 229 202.574219 229.195312 202.261719 229.390625 201.949219 C 231.035156 199.328125 232.75 196.753906 234.472656 194.179688 C 234.84375 193.632812 235.210938 193.082031 235.574219 192.53125 C 236.414062 191.269531 237.261719 190.015625 238.128906 188.777344 C 238.300781 188.527344 238.300781 188.527344 238.476562 188.277344 C 238.8125 187.792969 239.152344 187.3125 239.488281 186.828125 C 239.582031 186.695312 239.675781 186.566406 239.769531 186.429688 C 242.421875 182.648438 245.132812 178.917969 247.949219 175.261719 C 248.171875 174.972656 248.398438 174.679688 248.621094 174.390625 C 249.035156 173.847656 249.453125 173.308594 249.867188 172.769531 C 249.957031 172.65625 250.042969 172.542969 250.132812 172.425781 C 251.273438 170.949219 252.421875 169.484375 253.601562 168.042969 C 254.1875 167.328125 254.761719 166.601562 255.328125 165.875 C 256.074219 164.917969 256.847656 163.992188 257.632812 163.074219 C 258.035156 162.601562 258.429688 162.121094 258.824219 161.636719 C 260.160156 159.996094 261.539062 158.394531 262.917969 156.789062 C 263.257812 156.394531 263.597656 155.996094 263.9375 155.597656 C 264.890625 154.476562 265.867188 153.375 266.867188 152.289062 C 267.207031 151.921875 267.535156 151.550781 267.863281 151.175781 C 268.425781 150.523438 269.007812 149.890625 269.589844 149.261719 C 270.074219 148.734375 270.554688 148.203125 271.035156 147.671875 C 271.945312 146.652344 272.875 145.648438 273.804688 144.644531 C 273.90625 144.539062 274.007812 144.429688 274.109375 144.316406 C 275.292969 143.042969 276.484375 141.78125 277.730469 140.566406 C 278.050781 140.234375 278.351562 139.902344 278.648438 139.550781 C 279.476562 138.601562 280.375 137.71875 281.265625 136.832031 C 281.449219 136.644531 281.636719 136.457031 281.824219 136.269531 C 282.214844 135.882812 282.601562 135.492188 282.992188 135.101562 C 283.488281 134.609375 283.984375 134.113281 284.476562 133.617188 C 284.863281 133.230469 285.246094 132.847656 285.632812 132.460938 C 285.816406 132.28125 285.996094 132.097656 286.179688 131.914062 C 287.070312 131.023438 287.960938 130.140625 288.921875 129.324219 C 289.433594 128.878906 289.902344 128.390625 290.378906 127.90625 C 291.09375 127.183594 291.8125 126.484375 292.589844 125.828125 C 292.925781 125.527344 293.242188 125.214844 293.558594 124.894531 C 294.070312 124.375 294.601562 123.894531 295.15625 123.417969 C 295.722656 122.917969 296.269531 122.398438 296.824219 121.878906 C 297.570312 121.179688 298.316406 120.488281 299.09375 119.820312 C 299.503906 119.460938 299.902344 119.089844 300.304688 118.722656 C 300.910156 118.171875 301.523438 117.640625 302.15625 117.132812 C 302.863281 116.5625 303.527344 115.96875 304.1875 115.351562 C 304.976562 114.617188 305.78125 113.921875 306.625 113.246094 C 307.21875 112.757812 307.796875 112.257812 308.371094 111.753906 C 309.226562 111.007812 310.089844 110.277344 310.96875 109.566406 C 311.472656 109.15625 311.972656 108.742188 312.476562 108.328125 C 314.648438 106.535156 316.828125 104.757812 319.046875 103.023438 C 319.34375 102.792969 319.636719 102.5625 319.925781 102.332031 C 321.121094 101.390625 322.320312 100.457031 323.527344 99.535156 C 323.765625 99.351562 324.003906 99.167969 324.242188 98.984375 C 326.199219 97.488281 328.167969 96.007812 330.160156 94.550781 C 330.558594 94.253906 330.957031 93.960938 331.359375 93.664062 C 332.96875 92.472656 334.589844 91.300781 336.234375 90.152344 C 336.6875 89.832031 337.140625 89.511719 337.59375 89.191406 C 340.652344 87.027344 343.730469 84.902344 346.851562 82.832031 C 347.34375 82.507812 347.832031 82.183594 348.320312 81.855469 C 349.75 80.894531 351.199219 79.960938 352.648438 79.027344 C 352.804688 78.925781 352.964844 78.824219 353.125 78.71875 C 355.519531 77.179688 357.921875 75.660156 360.347656 74.171875 C 360.523438 74.066406 360.699219 73.957031 360.878906 73.847656 C 363.765625 72.082031 366.671875 70.351562 369.597656 68.652344 C 369.882812 68.484375 370.167969 68.320312 370.453125 68.152344 C 374.351562 65.886719 378.292969 63.699219 382.265625 61.5625 C 382.792969 61.277344 383.316406 60.992188 383.84375 60.707031 C 387.199219 58.894531 390.59375 57.152344 393.996094 55.425781 C 394.179688 55.332031 394.179688 55.332031 394.371094 55.234375 C 397.160156 53.816406 399.964844 52.445312 402.808594 51.136719 C 403.6875 50.734375 404.558594 50.324219 405.429688 49.910156 C 409.089844 48.160156 412.78125 46.5 416.503906 44.894531 C 416.914062 44.71875 417.324219 44.539062 417.734375 44.363281 C 434.039062 37.296875 450.8125 31.203125 605.03125 6.167969 Z M 1017.875 600.628906 C 1017.757812 600.882812 1017.757812 600.882812 1017.640625 601.140625 C 1016.855469 602.839844 1016.011719 604.5 1015.128906 606.152344 C 1014.878906 606.625 1014.628906 607.101562 1014.378906 607.574219 C 1012.972656 610.257812 1011.527344 612.90625 1009.980469 615.507812 C 1009.644531 616.078125 1009.3125 616.648438 1008.984375 617.222656 C 1007.585938 619.636719 1006.128906 621.996094 1004.585938 624.324219 C 1004.203125 624.902344 1003.839844 625.492188 1003.480469 626.082031 C 1002.421875 627.792969 1001.273438 629.441406 1000.132812 631.09375 C 1000.03125 631.242188 999.929688 631.386719 999.828125 631.535156 C 998.402344 633.59375 996.9375 635.617188 995.445312 637.625 C 995.371094 637.722656 995.296875 637.820312 995.222656 637.921875 C 993.046875 640.84375 990.796875 643.707031 988.492188 646.527344 C 988.277344 646.792969 988.058594 647.058594 987.84375 647.328125 C 986.914062 648.472656 985.953125 649.59375 984.988281 650.714844 C 984.734375 651.007812 984.484375 651.304688 984.230469 651.601562 C 983.289062 652.71875 982.324219 653.808594 981.320312 654.871094 C 980.859375 655.359375 980.410156 655.851562 979.972656 656.359375 C 979.375 657.042969 978.761719 657.707031 978.140625 658.371094 C 977.976562 658.546875 977.976562 658.546875 977.808594 658.722656 C 977.125 659.449219 976.429688 660.167969 975.710938 660.859375 C 975.40625 661.175781 975.125 661.496094 974.839844 661.828125 C 974.078125 662.703125 973.257812 663.515625 972.4375 664.332031 C 972.285156 664.484375 972.136719 664.636719 971.980469 664.792969 C 971.21875 665.550781 970.449219 666.285156 969.632812 666.984375 C 969.148438 667.414062 968.695312 667.875 968.242188 668.339844 C 967.582031 669.011719 966.914062 669.65625 966.195312 670.265625 C 965.648438 670.746094 965.121094 671.25 964.589844 671.75 C 963.726562 672.566406 962.839844 673.339844 961.910156 674.082031 C 961.410156 674.492188 960.933594 674.929688 960.457031 675.371094 C 959.691406 676.082031 958.902344 676.757812 958.085938 677.414062 C 957.570312 677.832031 957.0625 678.265625 956.554688 678.699219 C 955.621094 679.496094 954.660156 680.257812 953.691406 681.011719 C 953.191406 681.402344 952.699219 681.796875 952.207031 682.199219 C 950.582031 683.507812 948.910156 684.757812 947.234375 686 C 947.097656 686.101562 946.960938 686.203125 946.820312 686.308594 C 939.976562 691.394531 932.851562 696.113281 925.472656 700.398438 C 925.332031 700.476562 925.195312 700.558594 925.050781 700.644531 C 924.023438 701.238281 922.992188 701.824219 921.957031 702.40625 C 921.695312 702.554688 921.695312 702.554688 921.425781 702.707031 C 910.5 708.84375 899.09375 714.050781 887.308594 718.308594 C 887.164062 718.359375 887.023438 718.410156 886.875 718.464844 C 879.871094 721 872.761719 723.15625 865.546875 725.003906 C 865.414062 725.035156 865.285156 725.070312 865.152344 725.105469 C 850.882812 728.753906 836.269531 730.953125 821.574219 731.824219 C 821.40625 731.835938 821.242188 731.84375 821.070312 731.855469 C 814.988281 732.210938 808.910156 732.230469 802.820312 732.234375 C 801.542969 732.234375 800.265625 732.238281 798.992188 732.242188 C 796.636719 732.246094 794.28125 732.246094 791.925781 732.25 C 789.597656 732.253906 787.273438 732.257812 784.945312 732.257812 C 784.800781 732.261719 784.652344 732.261719 784.503906 732.261719 C 783.765625 732.261719 783.027344 732.261719 782.289062 732.265625 C 777.074219 732.273438 771.863281 732.277344 766.648438 732.285156 C 761.589844 732.292969 756.527344 732.300781 751.464844 732.308594 C 751.308594 732.308594 751.152344 732.308594 750.992188 732.308594 C 749.421875 732.308594 747.851562 732.3125 746.28125 732.3125 C 743.082031 732.320312 739.886719 732.324219 736.6875 732.328125 C 736.542969 732.328125 736.394531 732.328125 736.242188 732.328125 C 726.445312 732.34375 716.652344 732.355469 706.855469 732.367188 C 707.054688 732.566406 707.054688 732.566406 707.253906 732.769531 C 714.65625 740.179688 720.039062 748.765625 722.589844 758.984375 C 741.5 764.230469 760.71875 768.144531 802.355469 772.023438 C 802.644531 772.035156 802.929688 772.050781 803.21875 772.0625 C 807.105469 772.25 810.992188 772.242188 814.882812 772.238281 C 815.648438 772.238281 816.414062 772.242188 817.179688 772.242188 C 824.042969 772.261719 830.890625 772.085938 837.738281 771.570312 C 837.929688 771.554688 838.121094 771.542969 838.316406 771.527344 C 857.675781 770.097656 876.898438 766.835938 926.140625 749.441406 C 926.246094 749.394531 926.351562 749.34375 926.460938 749.292969 C 929.8125 747.707031 933.105469 746.039062 936.355469 744.253906 C 936.53125 744.15625 936.707031 744.0625 936.886719 743.960938 C 942.109375 741.101562 947.21875 737.972656 952.089844 734.546875 C 952.316406 734.386719 952.542969 734.226562 952.773438 734.070312 C 957.246094 730.941406 961.5625 727.609375 965.710938 724.0625 C 965.992188 723.824219 966.269531 723.589844 966.550781 723.351562 C 967.898438 722.210938 969.199219 721.023438 970.484375 719.808594 C 970.742188 719.566406 971 719.332031 971.261719 719.09375 C 972.648438 717.84375 973.972656 716.535156 975.292969 715.210938 C 975.660156 714.84375 976.03125 714.472656 976.402344 714.105469 C 976.640625 713.867188 976.878906 713.628906 977.117188 713.390625 C 977.226562 713.28125 977.335938 713.171875 977.445312 713.0625 C 978.082031 712.421875 978.691406 711.761719 979.28125 711.074219 C 979.683594 710.613281 980.105469 710.167969 980.523438 709.71875 C 981.269531 708.917969 981.972656 708.097656 982.65625 707.246094 C 983.035156 706.78125 983.429688 706.332031 983.824219 705.878906 C 984.890625 704.667969 985.886719 703.421875 986.855469 702.132812 C 987.226562 701.640625 987.605469 701.148438 987.992188 700.664062 C 989.292969 699.015625 990.507812 697.324219 991.675781 695.582031 C 991.910156 695.234375 992.152344 694.886719 992.390625 694.542969 C 995.273438 690.410156 997.839844 686.085938 1000.203125 681.640625 C 1000.453125 681.167969 1000.707031 680.699219 1000.960938 680.230469 C 1004.441406 673.746094 1007.15625 666.851562 1009.503906 659.886719 C 1009.574219 659.6875 1009.640625 659.488281 1009.710938 659.28125 C 1014.644531 644.609375 1017.171875 629.125 1017.875 613.6875 C 1017.882812 613.5 1017.894531 613.3125 1017.902344 613.117188 C 1018.109375 608.957031 1018.058594 604.792969 1018.042969 600.628906 C 1017.988281 600.628906 1017.933594 600.628906 1017.875 600.628906 Z M 1017.875 600.628906 "/><path style=" stroke:none;fill-rule:nonzero;fill:#fefefe;fill-opacity:1;" d="M 360.910156 271.300781 C 361.988281 271.300781 363.0625 271.300781 364.136719 271.300781 C 366.023438 271.296875 367.910156 271.300781 369.796875 271.300781 C 371.828125 271.300781 373.859375 271.304688 375.890625 271.300781 C 376.019531 271.300781 376.148438 271.300781 376.28125 271.300781 C 376.941406 271.300781 377.605469 271.300781 378.265625 271.300781 C 383.078125 271.300781 387.894531 271.300781 392.707031 271.300781 C 397.582031 271.304688 402.457031 271.304688 407.332031 271.304688 C 407.484375 271.304688 407.640625 271.304688 407.796875 271.304688 C 409.210938 271.304688 410.621094 271.304688 412.035156 271.304688 C 415.574219 271.304688 419.113281 271.304688 422.652344 271.304688 C 422.894531 271.304688 422.894531 271.304688 423.144531 271.304688 C 431.128906 271.300781 439.113281 271.304688 447.09375 271.304688 C 449.90625 271.304688 452.714844 271.308594 455.523438 271.308594 C 455.699219 271.308594 455.871094 271.308594 456.050781 271.308594 C 464.152344 271.308594 472.25 271.308594 480.347656 271.308594 C 480.878906 271.308594 481.410156 271.308594 481.9375 271.308594 C 485.136719 271.308594 488.332031 271.308594 491.527344 271.308594 C 499.472656 271.308594 507.421875 271.308594 515.367188 271.3125 C 515.546875 271.3125 515.726562 271.3125 515.914062 271.3125 C 527.625 271.3125 539.335938 271.3125 551.046875 271.3125 C 551.230469 271.3125 551.417969 271.3125 551.613281 271.3125 C 557.679688 271.316406 563.75 271.316406 569.820312 271.316406 C 575.734375 271.316406 581.648438 271.320312 587.5625 271.320312 C 587.84375 271.320312 587.84375 271.320312 588.136719 271.320312 C 606.113281 271.324219 624.09375 271.324219 642.070312 271.324219 C 643.023438 271.324219 643.976562 271.324219 644.925781 271.324219 C 647.585938 271.324219 650.246094 271.324219 652.90625 271.324219 C 653.285156 271.324219 653.664062 271.324219 654.046875 271.324219 C 654.234375 271.324219 654.421875 271.324219 654.613281 271.324219 C 656.128906 271.324219 657.640625 271.324219 659.15625 271.324219 C 660.101562 271.324219 661.042969 271.324219 661.988281 271.324219 C 673.507812 271.324219 685.027344 271.324219 696.542969 271.324219 C 696.722656 271.324219 696.90625 271.324219 697.089844 271.324219 C 705.566406 271.328125 714.039062 271.328125 722.511719 271.328125 C 722.691406 271.328125 722.867188 271.328125 723.046875 271.328125 C 726.585938 271.328125 730.128906 271.328125 733.667969 271.328125 C 741.0625 271.328125 748.457031 271.332031 755.851562 271.332031 C 756.730469 271.332031 757.613281 271.332031 758.496094 271.332031 C 758.757812 271.332031 758.757812 271.332031 759.023438 271.332031 C 772.796875 271.332031 786.566406 271.332031 800.339844 271.335938 C 801.59375 271.335938 802.84375 271.335938 804.097656 271.335938 C 804.40625 271.335938 804.71875 271.335938 805.027344 271.335938 C 809.898438 271.335938 814.769531 271.335938 819.636719 271.335938 C 824.433594 271.335938 829.230469 271.339844 834.023438 271.339844 C 834.683594 271.339844 835.339844 271.339844 835.996094 271.339844 C 836.191406 271.339844 836.191406 271.339844 836.386719 271.339844 C 838.414062 271.339844 840.4375 271.339844 842.464844 271.339844 C 844.449219 271.339844 846.433594 271.339844 848.417969 271.339844 C 849.472656 271.34375 850.527344 271.34375 851.582031 271.339844 C 852.542969 271.339844 853.5 271.339844 854.460938 271.34375 C 854.804688 271.34375 855.144531 271.34375 855.488281 271.34375 C 858.898438 271.339844 862.289062 271.484375 865.679688 271.824219 C 865.902344 271.847656 865.902344 271.847656 866.125 271.867188 C 869.019531 272.15625 871.886719 272.546875 874.753906 273.039062 C 874.878906 273.058594 875.003906 273.082031 875.132812 273.101562 C 880.214844 273.976562 885.222656 275.03125 890.152344 276.554688 C 890.386719 276.625 890.625 276.695312 890.859375 276.769531 C 900.289062 279.644531 909.414062 283.40625 917.96875 288.335938 C 918.433594 288.601562 918.898438 288.863281 919.367188 289.125 C 921.101562 290.101562 922.792969 291.117188 924.449219 292.222656 C 924.816406 292.464844 925.183594 292.707031 925.550781 292.945312 C 929.109375 295.296875 932.53125 297.8125 935.851562 300.492188 C 936.089844 300.683594 936.089844 300.683594 936.335938 300.878906 C 938.050781 302.277344 939.730469 303.710938 941.355469 305.210938 C 941.804688 305.628906 942.257812 306.035156 942.726562 306.433594 C 943.433594 307.046875 944.085938 307.714844 944.738281 308.382812 C 945.101562 308.75 945.484375 309.085938 945.875 309.421875 C 946.570312 310.023438 947.195312 310.679688 947.820312 311.359375 C 948.039062 311.597656 948.257812 311.835938 948.480469 312.070312 C 948.582031 312.183594 948.6875 312.292969 948.792969 312.410156 C 949.128906 312.769531 949.476562 313.117188 949.828125 313.464844 C 950.339844 313.964844 950.8125 314.492188 951.277344 315.035156 C 951.617188 315.425781 951.96875 315.808594 952.320312 316.195312 C 952.972656 316.917969 953.589844 317.660156 954.203125 318.417969 C 954.546875 318.84375 954.902344 319.257812 955.257812 319.671875 C 956.296875 320.878906 957.253906 322.140625 958.199219 323.421875 C 958.441406 323.746094 958.683594 324.066406 958.929688 324.390625 C 965.53125 333.054688 971.078125 342.792969 975.1875 352.886719 C 975.292969 353.140625 975.292969 353.140625 975.402344 353.402344 C 976.585938 356.296875 977.609375 359.222656 978.574219 362.195312 C 978.777344 362.816406 978.992188 363.433594 979.222656 364.042969 C 979.589844 365.039062 979.859375 366.054688 980.128906 367.082031 C 980.222656 367.445312 980.320312 367.808594 980.414062 368.175781 C 980.464844 368.359375 980.511719 368.542969 980.5625 368.730469 C 980.710938 369.285156 980.875 369.828125 981.035156 370.375 C 981.449219 371.8125 981.75 373.269531 982.050781 374.730469 C 982.144531 375.199219 982.242188 375.667969 982.34375 376.136719 C 982.726562 377.980469 983.074219 379.824219 983.390625 381.675781 C 983.4375 381.933594 983.4375 381.933594 983.480469 382.191406 C 983.84375 384.253906 984.132812 386.320312 984.375 388.398438 C 984.402344 388.636719 984.429688 388.875 984.457031 389.109375 C 985.042969 394.023438 985.117188 398.972656 985.109375 403.917969 C 985.109375 404.710938 985.109375 405.503906 985.109375 406.296875 C 985.113281 407.84375 985.113281 409.386719 985.109375 410.933594 C 985.109375 412.191406 985.109375 413.449219 985.109375 414.707031 C 985.109375 414.886719 985.109375 415.066406 985.109375 415.253906 C 985.109375 415.621094 985.109375 415.988281 985.109375 416.355469 C 985.113281 419.78125 985.109375 423.203125 985.109375 426.628906 C 985.105469 429.554688 985.109375 432.476562 985.109375 435.402344 C 985.109375 438.816406 985.113281 442.230469 985.109375 445.644531 C 985.109375 446.007812 985.109375 446.375 985.109375 446.742188 C 985.109375 447.011719 985.109375 447.011719 985.109375 447.285156 C 985.109375 448.539062 985.109375 449.792969 985.109375 451.046875 C 985.113281 452.578125 985.113281 454.109375 985.109375 455.640625 C 985.109375 456.421875 985.109375 457.199219 985.109375 457.976562 C 985.113281 460.957031 985.082031 463.925781 984.910156 466.898438 C 984.898438 467.078125 984.898438 467.078125 984.890625 467.261719 C 984.765625 469.324219 984.5625 471.371094 984.304688 473.421875 C 984.238281 473.945312 984.175781 474.464844 984.109375 474.988281 C 983.886719 476.816406 983.628906 478.625 983.289062 480.433594 C 983.222656 480.789062 983.15625 481.140625 983.09375 481.496094 C 982.292969 485.941406 981.398438 490.351562 980.035156 494.664062 C 979.878906 495.160156 979.726562 495.660156 979.574219 496.160156 C 978.601562 499.328125 977.570312 502.460938 976.359375 505.550781 C 976.320312 505.652344 976.28125 505.757812 976.238281 505.863281 C 974.945312 509.164062 973.550781 512.402344 972.007812 515.59375 C 971.875 515.871094 971.875 515.871094 971.738281 516.15625 C 970.546875 518.605469 969.277344 520.996094 967.910156 523.351562 C 967.667969 523.773438 967.429688 524.191406 967.191406 524.613281 C 965.488281 527.613281 963.617188 530.515625 961.628906 533.335938 C 961.527344 533.484375 961.527344 533.484375 961.421875 533.632812 C 958.308594 538.0625 954.953125 542.328125 951.292969 546.316406 C 950.957031 546.683594 950.632812 547.054688 950.308594 547.429688 C 949.808594 548.007812 949.273438 548.539062 948.730469 549.078125 C 948.4375 549.375 948.164062 549.683594 947.894531 550.003906 C 946.609375 551.492188 945.179688 552.902344 943.675781 554.171875 C 943.339844 554.464844 943.027344 554.777344 942.714844 555.097656 C 942.074219 555.746094 941.398438 556.347656 940.707031 556.9375 C 940.53125 557.089844 940.351562 557.242188 940.175781 557.394531 C 939.671875 557.828125 939.167969 558.261719 938.660156 558.691406 C 938.382812 558.929688 938.105469 559.171875 937.828125 559.410156 C 936.492188 560.558594 935.109375 561.628906 933.703125 562.6875 C 933.347656 562.957031 932.996094 563.230469 932.644531 563.503906 C 928.75 566.523438 924.640625 569.25 920.394531 571.742188 C 919.910156 572.027344 919.425781 572.316406 918.941406 572.601562 C 917.203125 573.632812 915.464844 574.621094 913.644531 575.496094 C 913.183594 575.722656 912.722656 575.957031 912.265625 576.195312 C 905.496094 579.667969 898.429688 582.335938 891.179688 584.613281 C 890.863281 584.714844 890.550781 584.8125 890.234375 584.914062 C 885.171875 586.5 879.875 587.710938 874.625 588.503906 C 874.394531 588.539062 874.160156 588.574219 873.925781 588.609375 C 873.253906 588.714844 872.578125 588.8125 871.90625 588.910156 C 871.734375 588.9375 871.5625 588.964844 871.386719 588.988281 C 869.257812 589.304688 867.125 589.507812 864.980469 589.6875 C 864.855469 589.695312 864.730469 589.707031 864.601562 589.71875 C 863.742188 589.789062 862.886719 589.855469 862.03125 589.917969 C 861.746094 589.9375 861.746094 589.9375 861.453125 589.957031 C 859.5 590.089844 857.550781 590.105469 855.59375 590.105469 C 855.234375 590.105469 854.878906 590.105469 854.519531 590.105469 C 853.539062 590.105469 852.558594 590.105469 851.574219 590.105469 C 850.503906 590.105469 849.429688 590.105469 848.355469 590.105469 C 846.46875 590.105469 844.582031 590.105469 842.695312 590.105469 C 840.660156 590.105469 838.628906 590.105469 836.59375 590.105469 C 836.464844 590.105469 836.335938 590.105469 836.199219 590.105469 C 835.542969 590.105469 834.882812 590.105469 834.222656 590.105469 C 829.410156 590.109375 824.59375 590.109375 819.78125 590.109375 C 814.902344 590.109375 810.019531 590.109375 805.140625 590.109375 C 804.832031 590.109375 804.519531 590.109375 804.207031 590.109375 C 802.953125 590.109375 801.699219 590.109375 800.445312 590.109375 C 796.90625 590.109375 793.371094 590.109375 789.835938 590.109375 C 789.671875 590.109375 789.511719 590.109375 789.34375 590.109375 C 780.125 590.113281 770.910156 590.113281 761.691406 590.113281 C 760.28125 590.113281 758.871094 590.113281 757.464844 590.113281 C 757.109375 590.113281 756.757812 590.113281 756.40625 590.113281 C 748.476562 590.113281 740.550781 590.113281 732.625 590.113281 C 730.855469 590.113281 729.085938 590.113281 727.316406 590.113281 C 727.054688 590.113281 727.054688 590.113281 726.785156 590.113281 C 725.71875 590.113281 724.652344 590.113281 723.585938 590.113281 C 723.054688 590.113281 722.519531 590.113281 721.984375 590.113281 C 713.683594 590.113281 705.378906 590.113281 697.078125 590.113281 C 696.804688 590.113281 696.804688 590.113281 696.527344 590.113281 C 685 590.113281 673.472656 590.113281 661.941406 590.113281 C 661.375 590.113281 660.808594 590.113281 660.242188 590.113281 C 656.257812 590.113281 652.277344 590.113281 648.292969 590.113281 C 647.152344 590.113281 646.007812 590.113281 644.867188 590.113281 C 643.914062 590.113281 642.960938 590.113281 642.011719 590.113281 C 624.019531 590.113281 606.03125 590.113281 588.042969 590.117188 C 587.757812 590.117188 587.757812 590.117188 587.46875 590.117188 C 581.554688 590.117188 575.636719 590.117188 569.71875 590.117188 C 563.648438 590.117188 557.578125 590.121094 551.507812 590.121094 C 551.320312 590.121094 551.132812 590.121094 550.941406 590.121094 C 539.234375 590.121094 527.523438 590.121094 515.816406 590.121094 C 515.632812 590.121094 515.453125 590.121094 515.265625 590.121094 C 507.324219 590.121094 499.378906 590.121094 491.4375 590.121094 C 488.238281 590.121094 485.042969 590.121094 481.847656 590.121094 C 481.316406 590.121094 480.789062 590.121094 480.257812 590.121094 C 472.15625 590.121094 464.054688 590.121094 455.949219 590.121094 C 455.777344 590.121094 455.601562 590.125 455.421875 590.125 C 452.613281 590.125 449.800781 590.125 446.992188 590.125 C 439.015625 590.125 431.039062 590.125 423.058594 590.125 C 422.898438 590.125 422.734375 590.125 422.566406 590.125 C 419.035156 590.125 415.5 590.125 411.964844 590.125 C 410.554688 590.125 409.144531 590.125 407.734375 590.125 C 407.582031 590.125 407.425781 590.125 407.269531 590.125 C 402.398438 590.125 397.523438 590.125 392.652344 590.125 C 387.851562 590.128906 383.054688 590.128906 378.253906 590.125 C 377.59375 590.125 376.933594 590.125 376.277344 590.125 C 376.082031 590.125 376.082031 590.125 375.886719 590.125 C 373.859375 590.125 371.835938 590.125 369.808594 590.125 C 367.820312 590.128906 365.835938 590.128906 363.847656 590.125 C 362.792969 590.125 361.738281 590.125 360.683594 590.125 C 355.304688 590.132812 349.949219 590.082031 344.601562 589.445312 C 344.480469 589.429688 344.359375 589.417969 344.234375 589.402344 C 340.113281 588.925781 336.039062 588.296875 331.988281 587.375 C 331.464844 587.253906 330.945312 587.140625 330.421875 587.027344 C 326.804688 586.238281 323.226562 585.347656 319.726562 584.132812 C 319.144531 583.933594 318.554688 583.753906 317.964844 583.574219 C 314.441406 582.496094 311.015625 581.128906 307.621094 579.707031 C 307.457031 579.636719 307.292969 579.570312 307.125 579.5 C 305.316406 578.746094 303.546875 577.949219 301.804688 577.050781 C 301.371094 576.832031 300.9375 576.617188 300.503906 576.40625 C 298.136719 575.242188 295.835938 573.996094 293.558594 572.675781 C 293.40625 572.585938 293.253906 572.5 293.097656 572.410156 C 289.625 570.402344 286.230469 568.273438 283.003906 565.882812 C 282.601562 565.589844 282.195312 565.304688 281.789062 565.015625 C 278.933594 563.007812 276.242188 560.78125 273.585938 558.519531 C 273.304688 558.28125 273.023438 558.042969 272.746094 557.808594 C 271.683594 556.917969 270.652344 555.996094 269.644531 555.046875 C 269.523438 554.933594 269.402344 554.816406 269.273438 554.699219 C 268.003906 553.496094 266.765625 552.269531 265.53125 551.03125 C 265.160156 550.65625 264.785156 550.285156 264.410156 549.910156 C 264.167969 549.667969 263.925781 549.425781 263.683594 549.183594 C 263.574219 549.074219 263.464844 548.964844 263.351562 548.851562 C 262.710938 548.207031 262.101562 547.546875 261.507812 546.859375 C 261.132812 546.425781 260.742188 546.007812 260.351562 545.589844 C 259.644531 544.824219 258.972656 544.039062 258.320312 543.226562 C 258.007812 542.839844 257.695312 542.460938 257.375 542.082031 C 255.867188 540.273438 254.445312 538.414062 253.046875 536.515625 C 252.910156 536.332031 252.910156 536.332031 252.769531 536.140625 C 250.542969 533.128906 248.457031 530.011719 246.519531 526.808594 C 246.4375 526.675781 246.359375 526.539062 246.273438 526.402344 C 243.121094 521.179688 240.296875 515.753906 237.878906 510.152344 C 237.824219 510.027344 237.769531 509.902344 237.714844 509.773438 C 234.117188 501.414062 231.191406 492.445312 229.683594 483.453125 C 229.625 483.109375 229.625 483.109375 229.445312 482.785156 C 229.394531 482.503906 229.351562 482.21875 229.308594 481.9375 C 229.203125 481.199219 229.089844 480.464844 228.964844 479.734375 C 228.460938 476.742188 228.082031 473.746094 227.773438 470.730469 C 227.761719 470.613281 227.746094 470.496094 227.734375 470.375 C 227.046875 463.675781 227.195312 456.925781 227.203125 450.203125 C 227.203125 448.964844 227.203125 447.726562 227.203125 446.492188 C 227.203125 446.3125 227.203125 446.132812 227.203125 445.949219 C 227.203125 445.589844 227.203125 445.226562 227.203125 444.863281 C 227.199219 441.492188 227.203125 438.121094 227.203125 434.75 C 227.207031 431.875 227.207031 429 227.203125 426.125 C 227.203125 422.761719 227.199219 419.402344 227.203125 416.039062 C 227.203125 415.679688 227.203125 415.316406 227.203125 414.957031 C 227.203125 414.78125 227.203125 414.601562 227.203125 414.421875 C 227.203125 413.1875 227.203125 411.957031 227.203125 410.726562 C 227.1875 396.402344 227.1875 396.402344 227.773438 390.714844 C 227.796875 390.457031 227.824219 390.195312 227.851562 389.9375 C 228.4375 384.152344 229.4375 378.457031 230.785156 372.804688 C 230.8125 372.6875 230.84375 372.566406 230.871094 372.441406 C 231.578125 369.464844 232.34375 366.507812 233.296875 363.597656 C 233.335938 363.480469 233.371094 363.367188 233.410156 363.246094 C 235.207031 357.722656 237.3125 352.378906 239.789062 347.125 C 239.984375 346.707031 240.175781 346.289062 240.371094 345.871094 C 241.253906 343.953125 242.238281 342.105469 243.265625 340.265625 C 243.488281 339.863281 243.707031 339.464844 243.925781 339.0625 C 247.042969 333.335938 250.722656 327.898438 254.722656 322.753906 C 254.804688 322.648438 254.882812 322.546875 254.96875 322.4375 C 255.867188 321.273438 256.785156 320.132812 257.738281 319.015625 C 258.210938 318.46875 258.667969 317.910156 259.117188 317.34375 C 259.867188 316.417969 260.679688 315.554688 261.503906 314.691406 C 261.605469 314.585938 261.707031 314.476562 261.8125 314.367188 C 261.902344 314.273438 261.992188 314.179688 262.082031 314.082031 C 262.382812 313.757812 262.675781 313.425781 262.964844 313.089844 C 263.585938 312.378906 264.238281 311.707031 264.90625 311.042969 C 265.027344 310.917969 265.148438 310.796875 265.273438 310.671875 C 265.53125 310.417969 265.785156 310.164062 266.039062 309.90625 C 266.429688 309.519531 266.816406 309.132812 267.203125 308.746094 C 267.453125 308.496094 267.703125 308.246094 267.953125 307.996094 C 268.066406 307.882812 268.179688 307.769531 268.296875 307.652344 C 268.953125 306.996094 269.628906 306.371094 270.328125 305.769531 C 270.761719 305.394531 271.179688 305.003906 271.597656 304.613281 C 272.375 303.894531 273.175781 303.214844 274.003906 302.550781 C 274.417969 302.210938 274.828125 301.863281 275.234375 301.515625 C 276.496094 300.429688 277.8125 299.417969 279.140625 298.417969 C 279.480469 298.160156 279.816406 297.902344 280.15625 297.644531 C 285.488281 293.59375 291.167969 289.96875 297.097656 286.851562 C 297.566406 286.601562 298.035156 286.351562 298.503906 286.097656 C 302.707031 283.855469 307.039062 281.941406 311.472656 280.199219 C 311.820312 280.0625 312.164062 279.925781 312.511719 279.785156 C 314.410156 279.03125 316.335938 278.367188 318.28125 277.734375 C 318.4375 277.683594 318.59375 277.632812 318.753906 277.582031 C 321.363281 276.734375 323.980469 275.992188 326.648438 275.351562 C 327.167969 275.222656 327.683594 275.089844 328.199219 274.953125 C 332.585938 273.789062 337.085938 273.019531 341.582031 272.4375 C 342.070312 272.371094 342.558594 272.304688 343.046875 272.234375 C 348.984375 271.410156 354.925781 271.289062 360.910156 271.300781 Z M 360.910156 271.300781 "/><path style=" stroke:none;fill-rule:nonzero;fill:#44403d;fill-opacity:1;" d="M 1006.449219 304.652344 C 1006.660156 304.652344 1006.867188 304.652344 1007.085938 304.652344 C 1007.320312 304.652344 1007.554688 304.652344 1007.789062 304.652344 C 1008.03125 304.652344 1008.277344 304.648438 1008.523438 304.648438 C 1009.195312 304.648438 1009.863281 304.648438 1010.535156 304.648438 C 1010.953125 304.648438 1011.375 304.648438 1011.796875 304.648438 C 1013.269531 304.644531 1014.746094 304.644531 1016.21875 304.644531 C 1017.582031 304.644531 1018.941406 304.644531 1020.304688 304.640625 C 1021.480469 304.636719 1022.65625 304.636719 1023.832031 304.636719 C 1024.53125 304.636719 1025.230469 304.636719 1025.929688 304.636719 C 1030.445312 304.625 1034.949219 304.746094 1039.4375 305.304688 C 1039.609375 305.324219 1039.609375 305.324219 1039.78125 305.34375 C 1046.507812 306.167969 1053.109375 307.609375 1059.554688 309.699219 C 1059.855469 309.792969 1059.855469 309.792969 1060.164062 309.894531 C 1073.035156 314.101562 1084.996094 320.898438 1095.265625 329.710938 C 1095.5625 329.964844 1095.859375 330.214844 1096.15625 330.46875 C 1097.109375 331.273438 1098.039062 332.078125 1098.90625 332.980469 C 1099.210938 333.28125 1099.519531 333.558594 1099.847656 333.835938 C 1100.597656 334.488281 1101.300781 335.179688 1102 335.882812 C 1102.121094 336.003906 1102.242188 336.121094 1102.363281 336.246094 C 1103.039062 336.921875 1103.6875 337.617188 1104.3125 338.34375 C 1104.71875 338.8125 1105.144531 339.261719 1105.570312 339.714844 C 1106.457031 340.667969 1107.285156 341.65625 1108.101562 342.675781 C 1108.269531 342.878906 1108.4375 343.085938 1108.605469 343.289062 C 1111.542969 346.859375 1114.230469 350.613281 1116.636719 354.558594 C 1116.765625 354.769531 1116.765625 354.769531 1116.898438 354.988281 C 1124.558594 367.609375 1129.769531 381.855469 1131.746094 399.222656 C 1131.765625 399.429688 1131.765625 399.429688 1131.785156 399.640625 C 1131.828125 400.046875 1131.867188 400.453125 1131.90625 400.859375 C 1131.921875 401.027344 1131.921875 401.027344 1131.9375 401.203125 C 1132.179688 403.835938 1132.230469 406.457031 1132.226562 409.097656 C 1132.226562 409.457031 1132.226562 409.816406 1132.230469 410.179688 C 1132.230469 411.160156 1132.230469 412.140625 1132.230469 413.121094 C 1132.230469 414.183594 1132.230469 415.246094 1132.230469 416.308594 C 1132.234375 418.382812 1132.234375 420.460938 1132.234375 422.539062 C 1132.234375 424.230469 1132.234375 425.917969 1132.234375 427.609375 C 1132.234375 428.097656 1132.234375 428.585938 1132.234375 429.074219 C 1132.234375 429.195312 1132.234375 429.316406 1132.234375 429.441406 C 1132.234375 432.851562 1132.234375 436.261719 1132.234375 439.671875 C 1132.234375 439.796875 1132.234375 439.925781 1132.234375 440.058594 C 1132.234375 440.710938 1132.234375 441.359375 1132.234375 442.011719 C 1132.234375 442.140625 1132.234375 442.269531 1132.234375 442.402344 C 1132.234375 442.664062 1132.234375 442.925781 1132.234375 443.1875 C 1132.234375 447.246094 1132.238281 451.304688 1132.238281 455.363281 C 1132.242188 459.933594 1132.242188 464.503906 1132.242188 469.074219 C 1132.242188 469.5625 1132.242188 470.054688 1132.242188 470.542969 C 1132.242188 470.660156 1132.242188 470.78125 1132.242188 470.90625 C 1132.242188 472.832031 1132.246094 474.753906 1132.246094 476.679688 C 1132.246094 478.621094 1132.246094 480.558594 1132.246094 482.5 C 1132.246094 483.546875 1132.246094 484.59375 1132.246094 485.640625 C 1132.253906 489.835938 1132.242188 494.003906 1131.871094 498.183594 C 1131.855469 498.332031 1131.84375 498.484375 1131.828125 498.636719 C 1131.757812 499.421875 1131.675781 500.203125 1131.578125 500.988281 C 1131.5625 501.101562 1131.550781 501.214844 1131.535156 501.332031 C 1130.984375 505.863281 1130.148438 510.332031 1129.023438 514.753906 C 1128.976562 514.945312 1128.929688 515.136719 1128.878906 515.332031 C 1125.492188 528.703125 1119.257812 541.539062 1110.777344 552.417969 C 1110.625 552.621094 1110.46875 552.824219 1110.3125 553.023438 C 1109.414062 554.183594 1108.488281 555.308594 1107.535156 556.421875 C 1107.117188 556.910156 1106.714844 557.410156 1106.3125 557.914062 C 1105.777344 558.570312 1105.21875 559.175781 1104.605469 559.761719 C 1104.304688 560.066406 1104.03125 560.375 1103.753906 560.699219 C 1102.96875 561.601562 1102.121094 562.441406 1101.277344 563.285156 C 1100.996094 563.5625 1100.71875 563.839844 1100.441406 564.117188 C 1099.507812 565.054688 1098.558594 565.957031 1097.554688 566.816406 C 1097.257812 567.085938 1096.960938 567.359375 1096.664062 567.632812 C 1095.921875 568.308594 1095.164062 568.953125 1094.382812 569.582031 C 1094.007812 569.886719 1093.636719 570.191406 1093.265625 570.496094 C 1091.746094 571.753906 1090.183594 572.933594 1088.574219 574.070312 C 1088.179688 574.347656 1087.789062 574.628906 1087.398438 574.910156 C 1076.582031 582.664062 1064.214844 587.933594 1051.324219 591.058594 C 1051.183594 591.089844 1051.042969 591.125 1050.898438 591.160156 C 1050.628906 591.226562 1050.363281 591.289062 1050.09375 591.355469 C 1049.503906 591.457031 1049.503906 591.457031 1049.011719 591.757812 C 1049.007812 591.996094 1049.015625 592.238281 1049.027344 592.480469 C 1049.035156 592.632812 1049.046875 592.785156 1049.054688 592.941406 C 1049.0625 593.109375 1049.070312 593.277344 1049.082031 593.449219 C 1049.179688 595.472656 1049.207031 597.492188 1049.210938 599.515625 C 1049.210938 599.878906 1049.214844 600.246094 1049.214844 600.609375 C 1049.21875 601.765625 1049.21875 602.925781 1049.21875 604.082031 C 1049.21875 604.277344 1049.21875 604.476562 1049.21875 604.679688 C 1049.21875 610.320312 1049.214844 615.945312 1048.71875 621.570312 C 1048.671875 622.085938 1048.628906 622.601562 1048.585938 623.117188 C 1047.222656 639.039062 1044.203125 654.730469 1035.117188 680.8125 C 1035.03125 681.015625 1034.945312 681.21875 1034.859375 681.429688 C 1033.675781 684.265625 1032.414062 687.070312 1031.097656 689.851562 C 1031.003906 690.050781 1030.910156 690.25 1030.816406 690.453125 C 1029.621094 692.984375 1028.378906 695.480469 1027.007812 697.921875 C 1026.730469 698.417969 1026.457031 698.914062 1026.183594 699.410156 C 1024.320312 702.777344 1022.335938 706.058594 1020.21875 709.269531 C 1020.117188 709.421875 1020.117188 709.421875 1020.015625 709.578125 C 1017.558594 713.320312 1014.9375 716.953125 1012.183594 720.484375 C 1012.113281 720.574219 1012.042969 720.664062 1011.972656 720.757812 C 1009.652344 723.746094 1007.242188 726.664062 1004.6875 729.449219 C 1004.371094 729.796875 1004.058594 730.148438 1003.75 730.507812 C 1002.585938 731.84375 1001.382812 733.144531 1000.117188 734.386719 C 999.820312 734.6875 999.542969 735 999.269531 735.320312 C 998.5625 736.132812 997.808594 736.894531 997.042969 737.652344 C 996.839844 737.855469 996.839844 737.855469 996.636719 738.0625 C 995.914062 738.785156 995.175781 739.476562 994.402344 740.140625 C 993.976562 740.515625 993.582031 740.917969 993.183594 741.324219 C 992.570312 741.945312 991.945312 742.539062 991.285156 743.105469 C 990.917969 743.421875 990.5625 743.75 990.207031 744.078125 C 989.335938 744.886719 988.445312 745.652344 987.515625 746.398438 C 987.078125 746.761719 986.65625 747.136719 986.238281 747.519531 C 985.371094 748.304688 984.46875 749.042969 983.558594 749.777344 C 983.347656 749.949219 983.136719 750.125 982.921875 750.296875 C 981.640625 751.347656 980.347656 752.378906 979.027344 753.378906 C 978.648438 753.671875 978.265625 753.964844 977.886719 754.257812 C 976.183594 755.5625 974.46875 756.839844 972.703125 758.0625 C 972.332031 758.324219 971.960938 758.585938 971.59375 758.847656 C 969.152344 760.578125 966.652344 762.214844 964.140625 763.839844 C 963.992188 763.9375 963.839844 764.035156 963.6875 764.132812 C 957.792969 767.9375 951.632812 771.359375 945.394531 774.550781 C 945.277344 774.613281 945.160156 774.671875 945.042969 774.730469 C 941.199219 776.699219 937.324219 778.5625 933.363281 780.277344 C 932.710938 780.558594 932.066406 780.847656 931.417969 781.132812 C 926.085938 783.496094 920.621094 785.546875 915.121094 787.480469 C 914.765625 787.609375 914.410156 787.734375 914.054688 787.859375 C 898.375 793.417969 882.003906 797.273438 839.304688 802.828125 C 839.171875 802.835938 839.035156 802.847656 838.894531 802.855469 C 831.277344 803.410156 823.660156 803.574219 816.023438 803.5625 C 815.5625 803.5625 815.105469 803.5625 814.644531 803.5625 C 808.019531 803.558594 801.40625 803.503906 794.789062 803.046875 C 794.226562 803.007812 793.664062 802.972656 793.101562 802.9375 C 777.417969 801.921875 761.777344 799.859375 746.359375 796.816406 C 746.167969 796.777344 745.972656 796.738281 745.773438 796.699219 C 736.695312 794.90625 727.617188 792.898438 718.710938 790.378906 C 718.574219 790.339844 718.433594 790.300781 718.292969 790.261719 C 718.03125 790.1875 717.773438 790.113281 717.515625 790.035156 C 716.945312 789.875 716.492188 789.785156 715.894531 789.785156 C 715.609375 790.058594 715.609375 790.058594 715.359375 790.433594 C 714.808594 791.1875 714.210938 791.875 713.578125 792.566406 C 713.273438 792.902344 712.984375 793.246094 712.691406 793.59375 C 711.074219 795.441406 709.152344 797.023438 707.191406 798.488281 C 707.054688 798.59375 707.054688 798.59375 706.917969 798.695312 C 696.714844 806.351562 684.101562 809.894531 671.535156 810.878906 C 671.390625 810.890625 671.25 810.902344 671.101562 810.914062 C 659.191406 811.867188 646.824219 809.921875 625.335938 801.835938 C 625.195312 801.773438 625.054688 801.707031 624.914062 801.640625 C 621.257812 799.914062 617.765625 797.792969 614.453125 795.476562 C 614.332031 795.390625 614.207031 795.304688 614.082031 795.21875 C 611.65625 793.523438 609.351562 791.695312 607.1875 789.679688 C 606.835938 789.359375 606.480469 789.046875 606.121094 788.738281 C 605.378906 788.089844 604.675781 787.398438 603.980469 786.699219 C 603.859375 786.578125 603.742188 786.460938 603.617188 786.335938 C 602.84375 785.5625 602.109375 784.757812 601.398438 783.925781 C 601.25 783.761719 601.105469 783.597656 600.957031 783.425781 C 599.664062 781.933594 598.507812 780.355469 597.378906 778.738281 C 597.300781 778.628906 597.226562 778.519531 597.148438 778.40625 C 594.441406 774.53125 592.25 770.195312 590.851562 765.679688 C 590.804688 765.539062 590.761719 765.402344 590.714844 765.257812 C 589.710938 762.066406 589.003906 758.714844 588.96875 755.355469 C 588.96875 755.222656 588.964844 755.085938 588.964844 754.949219 C 588.878906 746.25 590.96875 737.605469 596.675781 730.800781 C 597.019531 730.390625 597.351562 729.96875 597.683594 729.542969 C 598.53125 728.480469 599.457031 727.496094 600.390625 726.511719 C 600.523438 726.371094 600.65625 726.234375 600.792969 726.089844 C 601.570312 725.289062 602.390625 724.578125 603.261719 723.882812 C 603.574219 723.632812 603.878906 723.375 604.179688 723.113281 C 609.015625 718.902344 615.164062 715.953125 621.148438 713.789062 C 621.347656 713.714844 621.347656 713.714844 621.546875 713.644531 C 628.5 711.164062 635.929688 709.910156 643.296875 709.675781 C 643.511719 709.667969 643.730469 709.664062 643.949219 709.65625 C 646.847656 709.566406 649.726562 709.628906 652.621094 709.769531 C 652.875 709.78125 652.875 709.78125 653.140625 709.796875 C 660.824219 710.1875 668.609375 711.84375 675.886719 714.289062 C 676.03125 714.339844 676.179688 714.386719 676.328125 714.4375 C 687.027344 718.015625 697.070312 723.527344 705.421875 731.148438 C 705.808594 731.496094 706.210938 731.828125 706.613281 732.15625 C 708.050781 733.335938 709.296875 734.667969 710.539062 736.050781 C 710.625 736.148438 710.714844 736.246094 710.804688 736.347656 C 715.808594 741.925781 722.589844 751.144531 722.589844 758.984375 C 722.6875 759 722.785156 759.015625 722.886719 759.03125 C 724.285156 759.261719 725.632812 759.628906 726.996094 760.007812 C 745.609375 765.132812 764.703125 768.578125 802.355469 771.855469 C 802.644531 771.867188 802.929688 771.882812 803.21875 771.894531 C 807.105469 772.082031 810.992188 772.074219 814.882812 772.074219 C 815.648438 772.074219 816.414062 772.074219 817.179688 772.074219 C 824.042969 772.097656 830.890625 771.917969 837.738281 771.402344 C 837.929688 771.390625 838.121094 771.375 838.316406 771.359375 C 857.675781 769.929688 876.898438 766.667969 926.140625 749.277344 C 926.300781 749.199219 926.300781 749.199219 926.460938 749.125 C 929.8125 747.539062 933.105469 745.875 936.351562 744.085938 C 936.527344 743.992188 936.707031 743.894531 936.886719 743.796875 C 942.109375 740.933594 947.21875 737.804688 952.089844 734.378906 C 952.316406 734.21875 952.542969 734.058594 952.773438 733.902344 C 957.246094 730.773438 961.5625 727.441406 965.710938 723.894531 C 965.992188 723.65625 966.269531 723.421875 966.550781 723.1875 C 967.898438 722.042969 969.199219 720.855469 970.484375 719.640625 C 970.742188 719.398438 971.003906 719.160156 971.265625 718.925781 C 972.625 717.695312 973.925781 716.414062 975.222656 715.117188 C 975.578125 714.757812 975.933594 714.402344 976.292969 714.046875 C 976.523438 713.816406 976.753906 713.582031 976.988281 713.351562 C 977.089844 713.246094 977.195312 713.144531 977.304688 713.035156 C 977.933594 712.402344 978.53125 711.753906 979.113281 711.078125 C 979.515625 710.613281 979.9375 710.167969 980.355469 709.71875 C 981.101562 708.917969 981.804688 708.097656 982.488281 707.246094 C 982.871094 706.78125 983.261719 706.332031 983.660156 705.878906 C 984.722656 704.667969 985.71875 703.421875 986.6875 702.132812 C 987.058594 701.636719 987.4375 701.148438 987.824219 700.664062 C 989.125 699.015625 990.339844 697.324219 991.507812 695.582031 C 991.742188 695.234375 991.984375 694.886719 992.222656 694.539062 C 995.109375 690.410156 997.671875 686.085938 1000.035156 681.640625 C 1000.285156 681.167969 1000.539062 680.699219 1000.792969 680.230469 C 1004.273438 673.746094 1006.988281 666.851562 1009.335938 659.886719 C 1009.40625 659.6875 1009.472656 659.488281 1009.542969 659.28125 C 1014.421875 644.773438 1017.050781 629.363281 1017.691406 614.082031 C 1017.703125 613.796875 1017.714844 613.511719 1017.726562 613.230469 C 1017.90625 609.324219 1017.894531 605.421875 1017.886719 601.515625 C 1017.882812 600.484375 1017.882812 599.449219 1017.882812 598.417969 C 1017.878906 596.867188 1017.878906 595.316406 1017.875 593.765625 C 1013.730469 593.765625 1009.589844 593.765625 1005.320312 593.765625 C 1005.320312 588.226562 1005.320312 588.226562 1005.320312 586.203125 C 1005.320312 586.007812 1005.320312 586.007812 1005.320312 585.804688 C 1005.320312 579.617188 1005.316406 573.433594 1005.316406 567.246094 C 1005.316406 566.988281 1005.316406 566.988281 1005.316406 566.722656 C 1005.316406 548.195312 1005.3125 529.667969 1005.3125 511.136719 C 1005.3125 510.726562 1005.3125 510.316406 1005.3125 509.902344 C 1005.3125 501.269531 1005.3125 492.632812 1005.3125 484 C 1005.3125 479.664062 1005.3125 475.324219 1005.3125 470.988281 C 1005.3125 470.332031 1005.3125 469.679688 1005.3125 469.023438 C 1005.308594 458.945312 1005.308594 448.867188 1005.308594 438.789062 C 1005.308594 438.570312 1005.308594 438.355469 1005.308594 438.132812 C 1005.308594 434.636719 1005.308594 431.140625 1005.308594 427.644531 C 1005.304688 417.578125 1005.304688 407.511719 1005.304688 397.445312 C 1005.304688 397.238281 1005.304688 397.03125 1005.304688 396.820312 C 1005.304688 392.277344 1005.304688 387.738281 1005.304688 383.199219 C 1005.304688 381.371094 1005.304688 379.546875 1005.304688 377.71875 C 1005.304688 377.519531 1005.304688 377.320312 1005.304688 377.113281 C 1005.304688 370.664062 1005.304688 364.214844 1005.300781 357.769531 C 1005.300781 351.273438 1005.300781 344.78125 1005.300781 338.289062 C 1005.300781 337.394531 1005.300781 336.5 1005.300781 335.605469 C 1005.300781 335.429688 1005.300781 335.253906 1005.300781 335.070312 C 1005.300781 332.28125 1005.300781 329.496094 1005.300781 326.707031 C 1005.300781 323.96875 1005.300781 321.230469 1005.300781 318.496094 C 1005.300781 316.886719 1005.300781 315.277344 1005.300781 313.671875 C 1005.296875 312.605469 1005.296875 311.542969 1005.300781 310.476562 C 1005.300781 309.871094 1005.300781 309.265625 1005.296875 308.660156 C 1005.296875 308.011719 1005.296875 307.363281 1005.300781 306.714844 C 1005.296875 306.429688 1005.296875 306.429688 1005.296875 306.140625 C 1005.296875 305.96875 1005.296875 305.800781 1005.300781 305.625 C 1005.300781 305.402344 1005.300781 305.402344 1005.300781 305.175781 C 1005.34375 304.472656 1005.859375 304.652344 1006.449219 304.652344 Z M 1006.449219 304.652344 "/><path style=" stroke:none;fill-rule:nonzero;fill:#44403d;fill-opacity:1;" d="M 207.015625 304.675781 C 207.015625 400.074219 207.015625 495.476562 207.015625 593.765625 C 176.488281 593.765625 176.488281 593.765625 170.144531 592.804688 C 170.003906 592.78125 169.859375 592.761719 169.710938 592.738281 C 155.347656 590.613281 141.320312 585.519531 119.800781 571 C 119.570312 570.8125 119.570312 570.8125 119.332031 570.621094 C 117.398438 569.054688 115.527344 567.425781 113.710938 565.726562 C 113.441406 565.476562 113.167969 565.222656 112.890625 564.972656 C 111.332031 563.550781 109.785156 562.105469 108.414062 560.496094 C 108.054688 560.082031 107.679688 559.683594 107.304688 559.285156 C 106.4375 558.363281 105.597656 557.429688 104.808594 556.4375 C 104.5 556.054688 104.1875 555.675781 103.871094 555.300781 C 101.679688 552.683594 99.714844 549.941406 97.820312 547.105469 C 97.703125 546.929688 97.703125 546.929688 97.585938 546.753906 C 96.515625 545.152344 95.503906 543.53125 94.527344 541.875 C 94.441406 541.730469 94.355469 541.585938 94.265625 541.4375 C 90.875 535.757812 88.191406 529.691406 85.988281 523.460938 C 85.925781 523.285156 85.863281 523.109375 85.796875 522.925781 C 82.929688 514.867188 81.265625 506.398438 80.507812 497.890625 C 80.488281 497.675781 80.46875 497.457031 80.449219 497.234375 C 80.183594 494.0625 80.105469 490.886719 80.109375 487.703125 C 80.105469 487.355469 80.105469 487.011719 80.105469 486.664062 C 80.105469 485.726562 80.105469 484.785156 80.105469 483.847656 C 80.105469 482.828125 80.105469 481.808594 80.105469 480.792969 C 80.101562 478.800781 80.101562 476.8125 80.101562 474.824219 C 80.101562 473.203125 80.101562 471.582031 80.101562 469.960938 C 80.101562 469.496094 80.101562 469.027344 80.101562 468.558594 C 80.101562 468.382812 80.101562 468.382812 80.101562 468.203125 C 80.097656 464.933594 80.097656 461.660156 80.097656 458.390625 C 80.097656 458.265625 80.097656 458.144531 80.097656 458.015625 C 80.097656 457.394531 80.097656 456.769531 80.097656 456.148438 C 80.097656 456.023438 80.097656 455.898438 80.097656 455.773438 C 80.097656 455.519531 80.097656 455.269531 80.097656 455.019531 C 80.097656 451.128906 80.097656 447.242188 80.09375 443.351562 C 80.09375 438.96875 80.089844 434.582031 80.089844 430.199219 C 80.089844 429.730469 80.089844 429.261719 80.089844 428.792969 C 80.089844 428.675781 80.089844 428.5625 80.089844 428.441406 C 80.089844 426.597656 80.089844 424.753906 80.089844 422.910156 C 80.085938 421.050781 80.085938 419.191406 80.089844 417.332031 C 80.089844 416.328125 80.089844 415.324219 80.085938 414.324219 C 80.082031 410.773438 80.085938 407.234375 80.28125 403.691406 C 80.289062 403.570312 80.296875 403.449219 80.300781 403.324219 C 81.035156 390.425781 84.21875 377.578125 111.410156 334.976562 C 111.75 334.636719 112.089844 334.292969 112.429688 333.953125 C 112.652344 333.730469 112.875 333.511719 113.09375 333.289062 C 113.195312 333.191406 113.292969 333.089844 113.394531 332.988281 C 114.109375 332.277344 114.855469 331.613281 115.617188 330.957031 C 115.816406 330.78125 116.015625 330.605469 116.214844 330.429688 C 117.5 329.304688 118.808594 328.21875 120.164062 327.175781 C 120.488281 326.925781 120.8125 326.675781 121.132812 326.421875 C 124.597656 323.734375 128.234375 321.28125 132.023438 319.070312 C 132.152344 318.996094 132.28125 318.917969 132.414062 318.839844 C 144.476562 311.769531 157.839844 307.328125 207.015625 304.675781 Z M 207.015625 304.675781 "/><path style=" stroke:none;fill-rule:nonzero;fill:#44403d;fill-opacity:1;" d="M 458.253906 308.484375 C 458.464844 308.484375 458.464844 308.484375 458.679688 308.484375 C 462.84375 308.480469 466.984375 308.515625 471.125 308.984375 C 471.515625 309.03125 471.90625 309.070312 472.296875 309.113281 C 478.058594 309.722656 483.832031 310.632812 489.445312 312.089844 C 489.9375 312.214844 490.429688 312.328125 490.921875 312.441406 C 493.644531 313.0625 496.292969 313.859375 498.953125 314.71875 C 499.152344 314.785156 499.355469 314.847656 499.5625 314.914062 C 508.101562 317.65625 516.421875 321.171875 524.226562 325.601562 C 524.398438 325.695312 524.566406 325.789062 524.742188 325.890625 C 527.226562 327.285156 529.644531 328.761719 532.015625 330.34375 C 532.386719 330.59375 532.757812 330.835938 533.128906 331.082031 C 536.796875 333.496094 540.304688 336.128906 543.695312 338.921875 C 543.960938 339.140625 544.226562 339.359375 544.496094 339.574219 C 545.390625 340.296875 546.257812 341.042969 547.105469 341.820312 C 547.449219 342.128906 547.796875 342.433594 548.144531 342.738281 C 549.425781 343.855469 550.679688 345.003906 551.871094 346.21875 C 552.1875 346.53125 552.515625 346.820312 552.851562 347.109375 C 553.890625 348.003906 554.820312 348.976562 555.710938 350.015625 C 556.082031 350.429688 556.472656 350.820312 556.871094 351.210938 C 557.46875 351.800781 558.035156 352.40625 558.582031 353.042969 C 558.917969 353.433594 559.265625 353.8125 559.609375 354.191406 C 560.25 354.902344 560.863281 355.632812 561.464844 356.375 C 561.777344 356.765625 562.097656 357.148438 562.417969 357.535156 C 563.824219 359.21875 565.160156 360.945312 566.460938 362.710938 C 566.714844 363.054688 566.96875 363.394531 567.226562 363.738281 C 571.136719 368.980469 574.546875 374.574219 577.625 380.335938 C 577.707031 380.488281 577.789062 380.636719 577.871094 380.792969 C 585.820312 395.59375 585.820312 395.59375 584 402.523438 C 582.703125 406.777344 580.042969 410.183594 576.113281 412.308594 C 573.429688 413.691406 570.757812 414.09375 567.769531 413.996094 C 567.492188 413.988281 567.214844 413.984375 566.9375 413.980469 C 563.832031 413.839844 560.609375 412.011719 558.375 409.964844 C 558.242188 409.84375 558.109375 409.722656 557.96875 409.59375 C 555.871094 407.589844 554.78125 405.066406 553.625 402.457031 C 551.710938 398.132812 549.632812 393.917969 547.160156 389.878906 C 547.054688 389.707031 546.949219 389.535156 546.84375 389.355469 C 545.683594 387.457031 544.507812 385.578125 543.179688 383.792969 C 542.957031 383.496094 542.742188 383.195312 542.523438 382.894531 C 539.984375 379.402344 537.277344 376.054688 534.335938 372.890625 C 534.097656 372.632812 533.863281 372.371094 533.625 372.109375 C 532.085938 370.421875 530.511719 368.730469 528.765625 367.253906 C 528.382812 366.917969 528.011719 366.574219 527.640625 366.226562 C 526.589844 365.25 525.511719 364.328125 524.394531 363.429688 C 524.195312 363.265625 523.996094 363.101562 523.796875 362.9375 C 519.5625 359.4375 514.996094 356.34375 510.230469 353.617188 C 509.804688 353.371094 509.382812 353.117188 508.960938 352.863281 C 507.984375 352.273438 506.96875 351.769531 505.941406 351.269531 C 505.5 351.054688 505.0625 350.835938 504.625 350.617188 C 494.382812 345.542969 483.488281 342.230469 472.179688 340.625 C 472.03125 340.601562 471.886719 340.582031 471.734375 340.558594 C 470.707031 340.414062 469.683594 340.28125 468.652344 340.164062 C 468.507812 340.144531 468.363281 340.128906 468.210938 340.113281 C 465.144531 339.769531 462.070312 339.769531 458.984375 339.777344 C 458.410156 339.777344 457.832031 339.773438 457.257812 339.773438 C 452.316406 339.746094 447.46875 340.019531 442.582031 340.78125 C 442.445312 340.800781 442.308594 340.820312 442.167969 340.84375 C 429.257812 342.820312 416.675781 347.242188 405.46875 353.96875 C 405.101562 354.191406 404.730469 354.40625 404.359375 354.625 C 399.65625 357.375 395.199219 360.648438 391.078125 364.207031 C 390.804688 364.441406 390.53125 364.675781 390.253906 364.90625 C 387.992188 366.816406 385.867188 368.863281 383.773438 370.953125 C 383.691406 371.035156 383.609375 371.117188 383.523438 371.203125 C 382.570312 372.152344 381.644531 373.121094 380.769531 374.144531 C 380.527344 374.414062 380.28125 374.683594 380.039062 374.949219 C 379.246094 375.828125 378.5 376.738281 377.757812 377.660156 C 377.601562 377.847656 377.449219 378.039062 377.292969 378.226562 C 376.089844 379.707031 374.957031 381.230469 373.855469 382.785156 C 373.566406 383.191406 373.277344 383.597656 372.984375 384 C 371.714844 385.78125 370.550781 387.601562 369.449219 389.488281 C 369.238281 389.851562 369.023438 390.207031 368.804688 390.5625 C 367.707031 392.378906 366.738281 394.257812 365.769531 396.144531 C 363.332031 400.890625 360.417969 404.484375 355.199219 406.160156 C 351.316406 407.347656 347 406.777344 343.425781 404.96875 C 342.523438 404.488281 341.71875 403.921875 340.929688 403.269531 C 340.789062 403.15625 340.648438 403.042969 340.503906 402.929688 C 337.5625 400.429688 335.640625 396.738281 335.238281 392.890625 C 334.921875 386.453125 337.96875 381.289062 341.179688 375.910156 C 341.464844 375.429688 341.734375 374.941406 342.003906 374.449219 C 342.953125 372.710938 344.046875 371.066406 345.144531 369.417969 C 345.421875 368.996094 345.703125 368.570312 345.980469 368.144531 C 348.894531 363.714844 352.148438 359.535156 355.59375 355.503906 C 355.847656 355.207031 356.097656 354.910156 356.347656 354.613281 C 357.882812 352.804688 357.882812 352.804688 358.726562 351.996094 C 359.015625 351.707031 359.28125 351.40625 359.546875 351.09375 C 360.167969 350.378906 360.824219 349.707031 361.492188 349.039062 C 361.613281 348.917969 361.738281 348.796875 361.863281 348.671875 C 362.117188 348.414062 362.371094 348.160156 362.628906 347.90625 C 363.015625 347.519531 363.402344 347.132812 363.789062 346.742188 C 364.039062 346.492188 364.289062 346.246094 364.539062 345.996094 C 364.652344 345.882812 364.765625 345.765625 364.882812 345.648438 C 365.539062 344.996094 366.214844 344.371094 366.917969 343.765625 C 367.347656 343.390625 367.765625 343 368.183594 342.609375 C 368.960938 341.890625 369.761719 341.210938 370.589844 340.546875 C 371.003906 340.210938 371.414062 339.863281 371.820312 339.511719 C 373.089844 338.421875 374.414062 337.410156 375.75 336.398438 C 376.050781 336.171875 376.351562 335.9375 376.648438 335.707031 C 380.601562 332.621094 384.839844 329.84375 389.140625 327.273438 C 389.378906 327.128906 389.378906 327.128906 389.625 326.984375 C 395.832031 323.285156 402.339844 320.167969 409.0625 317.527344 C 409.410156 317.390625 409.753906 317.253906 410.101562 317.117188 C 412.027344 316.347656 413.980469 315.679688 415.953125 315.042969 C 416.113281 314.992188 416.269531 314.941406 416.433594 314.886719 C 418.617188 314.179688 420.796875 313.519531 423.03125 312.988281 C 423.53125 312.859375 424.023438 312.710938 424.519531 312.566406 C 426.042969 312.125 427.585938 311.792969 429.136719 311.464844 C 429.292969 311.433594 429.445312 311.398438 429.601562 311.367188 C 432.398438 310.769531 435.191406 310.273438 438.019531 309.863281 C 438.21875 309.835938 438.417969 309.804688 438.621094 309.773438 C 440.976562 309.417969 443.335938 309.132812 445.710938 308.914062 C 445.921875 308.894531 446.136719 308.871094 446.355469 308.851562 C 450.316406 308.503906 454.28125 308.484375 458.253906 308.484375 Z M 458.253906 308.484375 "/><path style=" stroke:none;fill-rule:nonzero;fill:#44403d;fill-opacity:1;" d="M 745.851562 308.496094 C 746.117188 308.496094 746.386719 308.496094 746.652344 308.496094 C 747.210938 308.496094 747.769531 308.496094 748.328125 308.496094 C 748.886719 308.496094 749.445312 308.492188 750.003906 308.492188 C 754.859375 308.472656 759.71875 308.566406 764.542969 309.164062 C 764.785156 309.191406 765.027344 309.222656 765.269531 309.25 C 773.1875 310.210938 781.140625 311.609375 788.742188 314.066406 C 789.210938 314.214844 789.675781 314.363281 790.144531 314.507812 C 794.550781 315.871094 798.867188 317.425781 803.105469 319.238281 C 803.304688 319.324219 803.503906 319.410156 803.710938 319.496094 C 808.660156 321.625 813.535156 324.019531 818.171875 326.773438 C 818.320312 326.855469 818.464844 326.941406 818.617188 327.03125 C 820.75 328.285156 822.820312 329.625 824.878906 331 C 824.996094 331.074219 825.109375 331.152344 825.230469 331.230469 C 827.410156 332.683594 829.546875 334.1875 831.628906 335.78125 C 831.777344 335.894531 831.925781 336.007812 832.078125 336.125 C 834.09375 337.671875 836.054688 339.28125 837.984375 340.933594 C 838.28125 341.183594 838.578125 341.4375 838.875 341.6875 C 840.683594 343.222656 840.683594 343.222656 841.492188 344.066406 C 841.78125 344.355469 842.082031 344.617188 842.390625 344.882812 C 843.121094 345.515625 843.804688 346.1875 844.484375 346.867188 C 844.675781 347.054688 844.675781 347.054688 844.867188 347.25 C 845.128906 347.511719 845.390625 347.773438 845.65625 348.039062 C 846.054688 348.4375 846.453125 348.835938 846.851562 349.234375 C 847.109375 349.492188 847.367188 349.75 847.625 350.007812 C 847.742188 350.125 847.859375 350.242188 847.980469 350.363281 C 848.644531 351.03125 849.277344 351.710938 849.890625 352.421875 C 850.265625 352.855469 850.65625 353.273438 851.046875 353.691406 C 851.761719 354.46875 852.441406 355.269531 853.105469 356.09375 C 853.453125 356.519531 853.808594 356.941406 854.167969 357.359375 C 855.070312 358.414062 855.929688 359.492188 856.765625 360.597656 C 857.039062 360.960938 857.3125 361.320312 857.589844 361.683594 C 859.546875 364.269531 861.4375 366.902344 863.203125 369.625 C 863.28125 369.75 863.363281 369.875 863.449219 370 C 867.414062 376.117188 870.933594 382.539062 873.851562 389.21875 C 873.902344 389.332031 873.949219 389.441406 874 389.554688 C 876.066406 394.304688 877.289062 399.058594 875.351562 404.097656 C 873.613281 408.375 870.539062 411.136719 866.394531 413.03125 C 862.855469 414.472656 858.535156 414.421875 855 412.980469 C 853.386719 412.277344 852.015625 411.40625 850.648438 410.300781 C 850.542969 410.222656 850.4375 410.144531 850.328125 410.066406 C 847.609375 407.964844 846.40625 404.542969 845.074219 401.519531 C 839.742188 389.476562 832.199219 378.746094 822.882812 369.457031 C 822.542969 369.117188 822.203125 368.777344 821.863281 368.4375 C 821.640625 368.214844 821.417969 367.992188 821.199219 367.773438 C 821.050781 367.625 821.050781 367.625 820.898438 367.472656 C 820.183594 366.761719 819.4375 366.097656 818.675781 365.441406 C 818.488281 365.277344 818.300781 365.113281 818.113281 364.949219 C 814.90625 362.171875 811.503906 359.578125 807.960938 357.238281 C 807.8125 357.136719 807.660156 357.039062 807.507812 356.9375 C 804.933594 355.242188 802.300781 353.683594 799.59375 352.214844 C 799.457031 352.140625 799.320312 352.066406 799.179688 351.988281 C 791.523438 347.789062 783.277344 344.792969 774.816406 342.675781 C 774.6875 342.640625 774.558594 342.609375 774.421875 342.574219 C 769.734375 341.410156 764.902344 340.5625 760.085938 340.164062 C 759.960938 340.152344 759.832031 340.140625 759.703125 340.128906 C 750.898438 339.382812 742.199219 339.535156 733.472656 341 C 733.253906 341.035156 733.039062 341.070312 732.816406 341.109375 C 730.578125 341.484375 728.351562 341.898438 726.144531 342.417969 C 725.738281 342.515625 725.332031 342.605469 724.925781 342.699219 C 717.28125 344.449219 709.996094 347.367188 703.003906 350.875 C 702.820312 350.96875 702.632812 351.0625 702.441406 351.160156 C 695.894531 354.460938 689.71875 358.566406 684.089844 363.265625 C 683.992188 363.347656 683.890625 363.429688 683.789062 363.511719 C 682.726562 364.398438 681.683594 365.300781 680.660156 366.230469 C 680.425781 366.441406 680.191406 366.652344 679.953125 366.859375 C 679.125 367.574219 678.339844 368.320312 677.566406 369.09375 C 677.445312 369.21875 677.324219 369.339844 677.199219 369.464844 C 676.941406 369.71875 676.6875 369.972656 676.433594 370.230469 C 676.046875 370.617188 675.65625 371.003906 675.269531 371.390625 C 675.019531 371.640625 674.769531 371.890625 674.519531 372.140625 C 674.351562 372.3125 674.351562 372.3125 674.175781 372.484375 C 673.429688 373.234375 672.726562 374.011719 672.039062 374.8125 C 671.875 375 671.710938 375.1875 671.546875 375.375 C 670.464844 376.628906 669.417969 377.90625 668.40625 379.21875 C 668.195312 379.492188 667.984375 379.761719 667.769531 380.03125 C 666.632812 381.492188 665.558594 383 664.503906 384.523438 C 664.4375 384.621094 664.367188 384.71875 664.296875 384.820312 C 661.585938 388.726562 659.246094 392.894531 657.101562 397.136719 C 656.246094 398.828125 655.453125 400.390625 654.125 401.765625 C 653.972656 401.9375 653.972656 401.9375 653.8125 402.117188 C 651.589844 404.511719 647.875 406.453125 644.589844 406.648438 C 639.707031 406.738281 639.707031 406.738281 637.554688 405.949219 C 637.351562 405.875 637.152344 405.804688 636.945312 405.726562 C 632.675781 404.035156 629.746094 400.683594 627.949219 396.542969 C 626.496094 392.75 626.820312 388.316406 628.410156 384.636719 C 629.917969 381.324219 631.691406 378.117188 633.535156 374.980469 C 633.601562 374.867188 633.667969 374.753906 633.738281 374.640625 C 636.6875 369.617188 640.011719 364.851562 643.582031 360.25 C 643.699219 360.09375 643.699219 360.09375 643.820312 359.9375 C 644.898438 358.539062 646.023438 357.1875 647.179688 355.855469 C 647.425781 355.566406 647.671875 355.277344 647.914062 354.988281 C 649.382812 353.25 650.914062 351.558594 652.539062 349.960938 C 652.941406 349.558594 653.320312 349.144531 653.691406 348.710938 C 654.316406 347.988281 655.003906 347.339844 655.707031 346.691406 C 656.542969 345.914062 657.371094 345.128906 658.171875 344.316406 C 658.585938 343.90625 659.023438 343.527344 659.460938 343.148438 C 659.855469 342.808594 660.238281 342.460938 660.625 342.109375 C 661.347656 341.457031 662.089844 340.835938 662.847656 340.226562 C 663.269531 339.878906 663.6875 339.527344 664.101562 339.167969 C 665.210938 338.214844 666.359375 337.332031 667.535156 336.460938 C 668.109375 336.039062 668.671875 335.601562 669.234375 335.164062 C 680.949219 326.125 694.414062 319.566406 713.886719 313.210938 C 714.113281 313.152344 714.339844 313.09375 714.570312 313.03125 C 722.539062 310.933594 730.535156 309.566406 738.742188 308.828125 C 738.863281 308.816406 738.984375 308.804688 739.109375 308.792969 C 741.359375 308.59375 743.59375 308.5 745.851562 308.496094 Z M 745.851562 308.496094 "/><path style=" stroke:none;fill-rule:nonzero;fill:#433f3c;fill-opacity:1;" d="M 525.253906 621.625 C 525.367188 621.625 525.476562 621.625 525.59375 621.621094 C 527.78125 621.601562 529.847656 621.976562 531.792969 623.019531 C 531.902344 623.078125 532.015625 623.132812 532.128906 623.195312 C 533.171875 623.746094 534.148438 624.386719 535.109375 625.070312 C 537.0625 626.457031 539.023438 627.800781 541.085938 629.023438 C 541.484375 629.261719 541.878906 629.503906 542.273438 629.742188 C 544.3125 630.988281 546.390625 632.148438 548.5 633.269531 C 548.652344 633.351562 548.804688 633.433594 548.960938 633.519531 C 554.625 636.558594 560.527344 638.988281 566.578125 641.140625 C 566.8125 641.222656 566.8125 641.222656 567.046875 641.304688 C 571.207031 642.777344 575.5 643.957031 579.808594 644.882812 C 580.289062 644.984375 580.765625 645.09375 581.242188 645.199219 C 585.53125 646.152344 589.890625 646.785156 594.261719 647.21875 C 594.46875 647.238281 594.46875 647.238281 594.679688 647.257812 C 595.078125 647.296875 595.476562 647.335938 595.875 647.371094 C 595.988281 647.382812 596.101562 647.394531 596.21875 647.40625 C 598.386719 647.597656 600.542969 647.691406 602.722656 647.6875 C 602.96875 647.691406 603.214844 647.691406 603.460938 647.691406 C 603.976562 647.691406 604.488281 647.691406 605 647.6875 C 605.648438 647.6875 606.292969 647.6875 606.941406 647.691406 C 610.929688 647.695312 614.859375 647.570312 618.828125 647.113281 C 618.992188 647.09375 619.15625 647.074219 619.324219 647.054688 C 620.4375 646.929688 621.546875 646.796875 622.65625 646.664062 C 622.832031 646.640625 622.832031 646.640625 623.007812 646.621094 C 636.589844 644.984375 649.800781 640.355469 661.992188 634.277344 C 662.171875 634.1875 662.355469 634.097656 662.539062 634.003906 C 667.8125 631.359375 672.875 628.25 677.660156 624.804688 C 679.566406 623.445312 681.484375 622.488281 683.753906 621.886719 C 683.851562 621.859375 683.949219 621.828125 684.046875 621.800781 C 684.886719 621.625 685.769531 621.675781 686.625 621.671875 C 686.863281 621.667969 687.101562 621.667969 687.339844 621.660156 C 689.597656 621.613281 691.664062 621.945312 693.683594 623.027344 C 693.796875 623.085938 693.90625 623.144531 694.019531 623.203125 C 697.804688 625.214844 700.457031 628.390625 701.738281 632.464844 C 702.867188 636.40625 702.269531 640.738281 700.328125 644.320312 C 699.921875 644.972656 699.476562 645.570312 698.988281 646.160156 C 698.875 646.300781 698.765625 646.4375 698.652344 646.582031 C 696.933594 648.609375 694.648438 650.050781 692.460938 651.515625 C 692.253906 651.65625 692.050781 651.796875 691.84375 651.933594 C 688.171875 654.414062 684.378906 656.703125 680.488281 658.824219 C 680.195312 658.980469 679.90625 659.144531 679.613281 659.304688 C 667.75 665.859375 655.050781 670.65625 618.261719 677.746094 C 618.136719 677.757812 618.015625 677.765625 617.886719 677.777344 C 614.074219 678.085938 610.265625 678.171875 606.441406 678.175781 C 606.316406 678.175781 606.195312 678.175781 606.070312 678.175781 C 599.738281 678.179688 593.460938 677.832031 587.183594 677.007812 C 586.832031 676.960938 586.476562 676.914062 586.125 676.871094 C 573.0625 675.203125 560.320312 671.613281 540.800781 663.402344 C 540.621094 663.316406 540.441406 663.234375 540.253906 663.144531 C 514.675781 651.078125 514.675781 651.078125 511.035156 642.050781 C 510.910156 641.691406 510.785156 641.332031 510.667969 640.972656 C 510.617188 640.816406 510.5625 640.660156 510.507812 640.5 C 509.375 636.574219 510.296875 632.421875 512.195312 628.917969 C 512.882812 627.773438 513.757812 626.855469 514.6875 625.90625 C 514.789062 625.792969 514.894531 625.679688 515 625.5625 C 516.269531 624.195312 518.015625 623.289062 519.707031 622.558594 C 519.898438 622.476562 520.085938 622.394531 520.28125 622.308594 C 521.898438 621.6875 523.539062 621.636719 525.253906 621.625 Z M 525.253906 621.625 "/></g></svg>