<svg xmlns="http://www.w3.org/2000/svg" xmlns:xlink="http://www.w3.org/1999/xlink" width="1920" zoomAndPan="magnify" viewBox="0 0 1440 540.000001" height="720" preserveAspectRatio="xMidYMid meet" version="1.2"><defs><clipPath id="902d26759a"><path d="M 1.332031 0 L 1438.667969 0 L 1438.667969 539 L 1.332031 539 Z M 1.332031 0 "/></clipPath><clipPath id="e822f3c6cf"><path d="M 1438 121 L 1438.667969 121 L 1438.667969 415 L 1438 415 Z M 1438 121 "/></clipPath></defs><g id="76417449d4"><g clip-rule="nonzero" clip-path="url(#902d26759a)"><path style=" stroke:none;fill-rule:nonzero;fill:#ffffff;fill-opacity:1;" d="M 1.332031 0 L 1438.667969 0 L 1438.667969 539 L 1.332031 539 Z M 1.332031 0 "/><path style=" stroke:none;fill-rule:nonzero;fill:#ffffff;fill-opacity:1;" d="M 1.332031 0 L 1438.667969 0 L 1438.667969 539 L 1.332031 539 Z M 1.332031 0 "/></g><g clip-rule="nonzero" clip-path="url(#e822f3c6cf)"><path style=" stroke:none;fill-rule:nonzero;fill:#44403d;fill-opacity:1;" d="M 1542.917969 121.453125 C 1543.09375 121.453125 1543.09375 121.453125 1543.269531 121.453125 C 1543.398438 121.453125 1543.53125 121.453125 1543.667969 121.453125 C 1543.890625 121.453125 1543.890625 121.453125 1544.117188 121.453125 C 1544.269531 121.453125 1544.425781 121.453125 1544.585938 121.453125 C 1545.023438 121.453125 1545.460938 121.453125 1545.894531 121.453125 C 1546.367188 121.457031 1546.839844 121.453125 1547.3125 121.453125 C 1548.144531 121.453125 1548.972656 121.453125 1549.804688 121.457031 C 1551.039062 121.457031 1552.273438 121.457031 1553.503906 121.457031 C 1555.582031 121.457031 1557.65625 121.457031 1559.734375 121.457031 C 1561.789062 121.457031 1563.84375 121.457031 1565.902344 121.457031 C 1566.027344 121.457031 1566.15625 121.457031 1566.289062 121.457031 C 1566.9375 121.457031 1567.585938 121.457031 1568.234375 121.457031 C 1572.828125 121.457031 1577.425781 121.460938 1582.023438 121.460938 C 1586.488281 121.460938 1590.957031 121.460938 1595.421875 121.460938 C 1595.558594 121.460938 1595.695312 121.460938 1595.839844 121.460938 C 1597.21875 121.464844 1598.601562 121.464844 1599.984375 121.464844 C 1602.796875 121.464844 1605.613281 121.464844 1608.429688 121.464844 C 1608.621094 121.464844 1608.621094 121.464844 1608.820312 121.464844 C 1617.46875 121.464844 1626.117188 121.46875 1634.765625 121.46875 C 1634.839844 121.75 1634.917969 122.03125 1634.992188 122.3125 C 1635.011719 122.390625 1635.035156 122.46875 1635.054688 122.550781 C 1635.230469 123.203125 1635.394531 123.855469 1635.558594 124.507812 C 1636.90625 129.890625 1638.410156 135.222656 1640.09375 140.511719 C 1640.1875 140.800781 1640.28125 141.089844 1640.371094 141.378906 C 1642.253906 147.3125 1644.394531 153.15625 1646.570312 158.980469 C 1647.617188 161.777344 1648.613281 164.585938 1649.625 167.390625 C 1649.886719 168.121094 1650.148438 168.847656 1650.410156 169.574219 C 1650.496094 169.8125 1650.582031 170.050781 1650.667969 170.292969 C 1650.730469 170.46875 1650.730469 170.46875 1650.796875 170.644531 C 1650.921875 171 1651.050781 171.359375 1651.179688 171.714844 C 1651.871094 173.628906 1652.558594 175.546875 1653.25 177.464844 C 1653.277344 177.539062 1653.304688 177.613281 1653.332031 177.691406 C 1653.75 178.839844 1654.164062 179.992188 1654.578125 181.140625 C 1655.019531 182.367188 1655.460938 183.59375 1655.90625 184.820312 C 1655.933594 184.894531 1655.960938 184.96875 1655.988281 185.046875 C 1656.78125 187.246094 1657.570312 189.441406 1658.363281 191.640625 C 1659.09375 193.675781 1659.828125 195.710938 1660.5625 197.746094 C 1660.589844 197.824219 1660.617188 197.898438 1660.644531 197.976562 C 1660.894531 198.664062 1661.144531 199.355469 1661.390625 200.042969 C 1661.773438 201.105469 1662.15625 202.167969 1662.539062 203.230469 C 1662.566406 203.304688 1662.59375 203.378906 1662.621094 203.453125 C 1662.835938 204.050781 1663.050781 204.648438 1663.269531 205.246094 C 1663.457031 205.769531 1663.644531 206.292969 1663.832031 206.816406 C 1663.859375 206.890625 1663.886719 206.964844 1663.914062 207.039062 C 1664.296875 208.105469 1664.683594 209.167969 1665.066406 210.234375 C 1666.132812 213.195312 1667.203125 216.15625 1668.269531 219.117188 C 1669 221.152344 1669.734375 223.191406 1670.46875 225.226562 C 1670.496094 225.300781 1670.523438 225.375 1670.550781 225.453125 C 1670.964844 226.601562 1671.382812 227.753906 1671.796875 228.902344 C 1672.238281 230.128906 1672.679688 231.355469 1673.121094 232.582031 C 1673.148438 232.65625 1673.175781 232.730469 1673.203125 232.808594 C 1673.996094 235.007812 1674.789062 237.203125 1675.582031 239.402344 C 1676.3125 241.4375 1677.046875 243.472656 1677.78125 245.507812 C 1677.808594 245.585938 1677.835938 245.660156 1677.863281 245.738281 C 1678.277344 246.886719 1678.691406 248.039062 1679.109375 249.1875 C 1679.550781 250.414062 1679.992188 251.640625 1680.433594 252.863281 C 1680.460938 252.941406 1680.488281 253.015625 1680.515625 253.09375 C 1681.308594 255.289062 1682.101562 257.488281 1682.890625 259.6875 C 1683.625 261.722656 1684.359375 263.757812 1685.09375 265.792969 C 1685.132812 265.90625 1685.132812 265.90625 1685.175781 266.019531 C 1685.421875 266.710938 1685.671875 267.398438 1685.921875 268.089844 C 1686.304688 269.152344 1686.6875 270.210938 1687.070312 271.273438 C 1687.097656 271.347656 1687.125 271.421875 1687.152344 271.5 C 1687.367188 272.097656 1687.582031 272.695312 1687.796875 273.292969 C 1687.984375 273.816406 1688.175781 274.339844 1688.363281 274.863281 C 1688.390625 274.933594 1688.417969 275.007812 1688.445312 275.085938 C 1688.828125 276.148438 1689.210938 277.214844 1689.59375 278.277344 C 1690.664062 281.238281 1691.730469 284.203125 1692.796875 287.164062 C 1693.53125 289.199219 1694.265625 291.234375 1695 293.269531 C 1695.027344 293.347656 1695.054688 293.421875 1695.082031 293.5 C 1695.496094 294.648438 1695.910156 295.796875 1696.324219 296.949219 C 1696.769531 298.175781 1697.210938 299.402344 1697.652344 300.625 C 1697.679688 300.703125 1697.707031 300.777344 1697.734375 300.855469 C 1698.527344 303.050781 1699.320312 305.25 1700.109375 307.449219 C 1700.84375 309.484375 1701.574219 311.519531 1702.308594 313.554688 C 1702.351562 313.667969 1702.351562 313.667969 1702.394531 313.78125 C 1702.640625 314.472656 1702.890625 315.160156 1703.136719 315.851562 C 1703.523438 316.914062 1703.90625 317.972656 1704.289062 319.035156 C 1704.3125 319.109375 1704.339844 319.183594 1704.367188 319.261719 C 1704.585938 319.859375 1704.800781 320.457031 1705.015625 321.054688 C 1705.203125 321.578125 1705.390625 322.101562 1705.582031 322.621094 C 1705.609375 322.695312 1705.632812 322.769531 1705.660156 322.847656 C 1706.046875 323.910156 1706.429688 324.976562 1706.8125 326.039062 C 1707.882812 329 1708.949219 331.964844 1710.015625 334.925781 C 1710.75 336.960938 1711.480469 338.996094 1712.214844 341.03125 C 1712.242188 341.109375 1712.269531 341.183594 1712.296875 341.261719 C 1712.714844 342.410156 1713.128906 343.558594 1713.542969 344.710938 C 1713.984375 345.9375 1714.425781 347.164062 1714.871094 348.386719 C 1714.898438 348.464844 1714.925781 348.539062 1714.953125 348.617188 C 1715.746094 350.8125 1716.535156 353.011719 1717.328125 355.210938 C 1718.058594 357.246094 1718.792969 359.28125 1719.527344 361.316406 C 1719.570312 361.429688 1719.570312 361.429688 1719.609375 361.542969 C 1719.859375 362.234375 1720.109375 362.921875 1720.355469 363.613281 C 1720.792969 364.824219 1721.230469 366.035156 1721.667969 367.246094 C 1721.910156 367.917969 1722.152344 368.589844 1722.394531 369.261719 C 1722.53125 369.636719 1722.664062 370.011719 1722.800781 370.386719 C 1722.824219 370.460938 1722.851562 370.53125 1722.878906 370.609375 C 1723.261719 371.671875 1723.644531 372.734375 1724.027344 373.796875 C 1725.339844 377.449219 1726.671875 381.09375 1728.035156 384.726562 C 1728.265625 385.34375 1728.496094 385.964844 1728.726562 386.582031 C 1730.488281 391.316406 1732.296875 396.035156 1734.195312 400.710938 C 1734.304688 400.976562 1734.410156 401.238281 1734.515625 401.5 C 1736.066406 405.320312 1737.65625 409.128906 1739.375 412.878906 C 1739.457031 413.066406 1739.457031 413.066406 1739.546875 413.257812 C 1739.59375 413.363281 1739.644531 413.46875 1739.695312 413.578125 C 1739.886719 414.042969 1740.035156 414.519531 1740.195312 414.996094 C 1712.914062 414.996094 1685.632812 414.996094 1657.527344 414.996094 C 1656.769531 410.675781 1656.769531 410.675781 1655.992188 406.269531 C 1655.570312 404.027344 1655.148438 401.785156 1654.695312 399.546875 C 1654.671875 399.417969 1654.644531 399.289062 1654.617188 399.15625 C 1652.503906 388.703125 1649.578125 378.523438 1646.324219 368.378906 C 1645.765625 366.636719 1645.214844 364.890625 1644.664062 363.144531 C 1643.898438 360.714844 1643.128906 358.289062 1642.355469 355.863281 C 1642.214844 355.425781 1642.074219 354.988281 1641.9375 354.550781 C 1641.910156 354.46875 1641.882812 354.382812 1641.855469 354.296875 C 1640.605469 350.378906 1640.605469 350.378906 1640.238281 349.21875 C 1640.175781 349.03125 1640.117188 348.84375 1640.058594 348.652344 C 1639.976562 348.402344 1639.898438 348.152344 1639.820312 347.902344 C 1639.753906 347.703125 1639.753906 347.703125 1639.691406 347.496094 C 1639.601562 347.1875 1639.601562 347.1875 1639.601562 346.949219 C 1589.921875 347.007812 1589.921875 347.007812 1539.242188 347.070312 C 1537.921875 351.167969 1536.601562 355.269531 1535.304688 359.375 C 1534.75 361.144531 1534.1875 362.914062 1533.625 364.683594 C 1533.546875 364.929688 1533.46875 365.171875 1533.390625 365.417969 C 1532.914062 366.910156 1532.441406 368.402344 1531.964844 369.890625 C 1531.859375 370.226562 1531.75 370.5625 1531.644531 370.898438 C 1531.617188 370.980469 1531.589844 371.0625 1531.5625 371.148438 C 1531.121094 372.535156 1530.679688 373.925781 1530.238281 375.3125 C 1530.011719 376.035156 1529.78125 376.757812 1529.550781 377.480469 C 1525.824219 389.113281 1522.90625 400.929688 1521.214844 413.035156 C 1521.1875 413.207031 1521.1875 413.207031 1521.164062 413.382812 C 1521.132812 413.59375 1521.105469 413.808594 1521.074219 414.023438 C 1520.976562 414.734375 1520.976562 414.734375 1520.847656 414.996094 C 1493.566406 414.996094 1466.285156 414.996094 1438.175781 414.996094 C 1439.238281 412.757812 1439.238281 412.757812 1439.714844 411.761719 C 1444.566406 401.609375 1448.292969 390.960938 1454.445312 373.691406 C 1455.1875 371.570312 1455.941406 369.453125 1456.710938 367.339844 C 1457.230469 365.894531 1457.75 364.453125 1458.269531 363.007812 C 1458.359375 362.761719 1458.445312 362.515625 1458.535156 362.265625 C 1459.691406 359.050781 1460.84375 355.832031 1462 352.613281 C 1462.363281 351.597656 1462.726562 350.582031 1463.089844 349.566406 C 1463.136719 349.441406 1463.179688 349.3125 1463.226562 349.183594 C 1464.042969 346.902344 1464.863281 344.625 1465.683594 342.347656 C 1466.488281 340.101562 1467.296875 337.855469 1468.101562 335.609375 C 1468.171875 335.417969 1468.171875 335.417969 1468.238281 335.222656 C 1468.558594 334.335938 1468.875 333.449219 1469.191406 332.5625 C 1469.554688 331.550781 1469.917969 330.535156 1470.285156 329.519531 C 1470.328125 329.394531 1470.375 329.265625 1470.421875 329.136719 C 1471.238281 326.855469 1472.058594 324.578125 1472.875 322.296875 C 1473.683594 320.050781 1474.492188 317.804688 1475.296875 315.558594 C 1475.339844 315.433594 1475.386719 315.304688 1475.433594 315.175781 C 1475.75 314.289062 1476.070312 313.402344 1476.386719 312.515625 C 1476.75 311.5 1477.113281 310.484375 1477.476562 309.472656 C 1477.523438 309.34375 1477.566406 309.21875 1477.613281 309.085938 C 1478.433594 306.808594 1479.25 304.527344 1480.070312 302.25 C 1480.878906 300.003906 1481.683594 297.757812 1482.488281 295.511719 C 1482.535156 295.382812 1482.582031 295.257812 1482.628906 295.125 C 1482.945312 294.238281 1483.261719 293.355469 1483.578125 292.46875 C 1483.945312 291.453125 1484.308594 290.4375 1484.671875 289.421875 C 1484.714844 289.296875 1484.761719 289.167969 1484.808594 289.039062 C 1485.625 286.757812 1486.445312 284.480469 1487.265625 282.203125 C 1488.070312 279.957031 1488.878906 277.710938 1489.683594 275.464844 C 1489.726562 275.335938 1489.773438 275.210938 1489.820312 275.078125 C 1490.136719 274.191406 1490.457031 273.304688 1490.773438 272.417969 C 1491.136719 271.40625 1491.5 270.390625 1491.863281 269.375 C 1491.910156 269.25 1491.957031 269.121094 1492.003906 268.992188 C 1492.820312 266.710938 1493.636719 264.433594 1494.457031 262.152344 C 1495.265625 259.90625 1496.070312 257.660156 1496.875 255.414062 C 1496.921875 255.289062 1496.96875 255.160156 1497.015625 255.03125 C 1497.332031 254.144531 1497.648438 253.257812 1497.96875 252.371094 C 1498.332031 251.355469 1498.695312 250.34375 1499.058594 249.328125 C 1499.125 249.136719 1499.125 249.136719 1499.195312 248.941406 C 1500.011719 246.664062 1500.832031 244.382812 1501.652344 242.105469 C 1502.457031 239.859375 1503.265625 237.613281 1504.070312 235.367188 C 1504.117188 235.242188 1504.160156 235.113281 1504.207031 234.980469 C 1504.527344 234.097656 1504.84375 233.210938 1505.160156 232.324219 C 1505.523438 231.308594 1505.886719 230.292969 1506.253906 229.277344 C 1506.320312 229.089844 1506.320312 229.089844 1506.390625 228.894531 C 1507.207031 226.613281 1508.027344 224.335938 1508.84375 222.058594 C 1509.652344 219.8125 1510.457031 217.566406 1511.265625 215.320312 C 1511.308594 215.191406 1511.355469 215.066406 1511.402344 214.933594 C 1511.71875 214.046875 1512.039062 213.160156 1512.355469 212.273438 C 1512.71875 211.261719 1513.082031 210.246094 1513.445312 209.230469 C 1513.515625 209.039062 1513.515625 209.039062 1513.582031 208.847656 C 1514.402344 206.566406 1515.21875 204.289062 1516.039062 202.007812 C 1516.847656 199.761719 1517.652344 197.519531 1518.457031 195.269531 C 1518.503906 195.144531 1518.546875 195.015625 1518.597656 194.886719 C 1518.914062 194 1519.230469 193.113281 1519.546875 192.226562 C 1519.914062 191.210938 1520.277344 190.199219 1520.640625 189.183594 C 1520.707031 188.992188 1520.707031 188.992188 1520.777344 188.796875 C 1521.59375 186.519531 1522.414062 184.238281 1523.230469 181.960938 C 1524.039062 179.714844 1524.847656 177.46875 1525.652344 175.222656 C 1525.695312 175.097656 1525.742188 174.96875 1525.789062 174.839844 C 1526.105469 173.953125 1526.425781 173.066406 1526.742188 172.179688 C 1527.488281 170.09375 1528.234375 168.011719 1528.984375 165.929688 C 1529.007812 165.855469 1529.035156 165.78125 1529.0625 165.703125 C 1529.46875 164.578125 1529.871094 163.457031 1530.273438 162.332031 C 1530.359375 162.089844 1530.449219 161.84375 1530.535156 161.601562 C 1531.167969 159.839844 1531.804688 158.078125 1532.449219 156.320312 C 1535.613281 147.671875 1538.617188 138.921875 1540.777344 129.960938 C 1540.808594 129.828125 1540.808594 129.828125 1540.839844 129.695312 C 1541.382812 127.441406 1541.863281 125.175781 1542.289062 122.898438 C 1542.304688 122.808594 1542.320312 122.722656 1542.339844 122.632812 C 1542.382812 122.398438 1542.425781 122.160156 1542.472656 121.925781 C 1542.570312 121.472656 1542.570312 121.472656 1542.917969 121.453125 Z M 1588.773438 182.203125 C 1588.746094 182.292969 1588.71875 182.382812 1588.6875 182.476562 C 1587.5 186.316406 1586.308594 190.15625 1585.117188 193.996094 C 1584.339844 196.5 1583.5625 199.003906 1582.789062 201.507812 C 1582.761719 201.59375 1582.734375 201.679688 1582.707031 201.773438 C 1582.292969 203.109375 1581.875 204.449219 1581.460938 205.789062 C 1581.019531 207.214844 1580.578125 208.644531 1580.136719 210.070312 C 1580.109375 210.160156 1580.082031 210.246094 1580.054688 210.335938 C 1579.261719 212.890625 1578.46875 215.441406 1577.675781 217.996094 C 1576.941406 220.359375 1576.210938 222.726562 1575.476562 225.09375 C 1575.449219 225.179688 1575.421875 225.265625 1575.394531 225.359375 C 1574.980469 226.695312 1574.566406 228.035156 1574.148438 229.375 C 1573.707031 230.800781 1573.265625 232.230469 1572.824219 233.65625 C 1572.796875 233.746094 1572.769531 233.832031 1572.742188 233.921875 C 1571.949219 236.476562 1571.160156 239.027344 1570.367188 241.582031 C 1569.632812 243.945312 1568.898438 246.3125 1568.164062 248.679688 C 1568.136719 248.765625 1568.109375 248.851562 1568.082031 248.945312 C 1567.667969 250.28125 1567.253906 251.621094 1566.839844 252.960938 C 1566.394531 254.386719 1565.953125 255.816406 1565.511719 257.242188 C 1565.484375 257.332031 1565.457031 257.417969 1565.429688 257.507812 C 1564.636719 260.0625 1563.847656 262.613281 1563.054688 265.167969 C 1562.210938 267.882812 1561.371094 270.601562 1560.527344 273.316406 C 1560.417969 273.667969 1560.308594 274.023438 1560.199219 274.375 C 1560.171875 274.464844 1560.144531 274.550781 1560.117188 274.644531 C 1559.710938 275.953125 1559.304688 277.261719 1558.898438 278.566406 C 1558.722656 279.140625 1558.546875 279.710938 1558.367188 280.28125 C 1558.226562 280.734375 1558.085938 281.1875 1557.945312 281.644531 C 1557.605469 282.734375 1557.269531 283.828125 1556.933594 284.921875 C 1556.894531 285.046875 1556.855469 285.175781 1556.8125 285.304688 C 1556.710938 285.640625 1556.605469 285.980469 1556.503906 286.316406 C 1556.476562 286.410156 1556.445312 286.503906 1556.417969 286.601562 C 1556.308594 286.957031 1556.226562 287.257812 1556.226562 287.632812 C 1578.019531 287.632812 1599.8125 287.632812 1622.265625 287.632812 C 1622 286.652344 1622 286.652344 1621.710938 285.683594 C 1621.675781 285.570312 1621.640625 285.460938 1621.605469 285.34375 C 1621.566406 285.226562 1621.53125 285.109375 1621.492188 284.988281 C 1621.429688 284.792969 1621.429688 284.792969 1621.367188 284.597656 C 1621.234375 284.175781 1621.101562 283.757812 1620.96875 283.335938 C 1620.875 283.035156 1620.777344 282.734375 1620.683594 282.4375 C 1620.484375 281.808594 1620.285156 281.183594 1620.085938 280.554688 C 1619.800781 279.652344 1619.515625 278.75 1619.230469 277.84375 C 1618.808594 276.519531 1618.390625 275.195312 1617.972656 273.871094 C 1617.503906 272.394531 1617.035156 270.917969 1616.566406 269.441406 C 1616.335938 268.703125 1616.101562 267.96875 1615.867188 267.230469 C 1615.773438 266.9375 1615.679688 266.640625 1615.585938 266.347656 C 1615.542969 266.199219 1615.496094 266.054688 1615.449219 265.902344 C 1606.203125 236.714844 1606.203125 236.714844 1594.722656 200.453125 C 1594.628906 200.15625 1594.535156 199.863281 1594.441406 199.566406 C 1594.207031 198.832031 1593.976562 198.097656 1593.742188 197.359375 C 1593.316406 196.019531 1592.890625 194.675781 1592.464844 193.332031 C 1592.296875 192.796875 1592.128906 192.265625 1591.957031 191.730469 C 1591.839844 191.359375 1591.722656 190.984375 1591.601562 190.609375 C 1591.117188 189.078125 1590.632812 187.546875 1590.160156 186.007812 C 1590.101562 185.820312 1590.101562 185.820312 1590.042969 185.625 C 1589.863281 185.035156 1589.679688 184.449219 1589.503906 183.859375 C 1589.441406 183.652344 1589.378906 183.449219 1589.316406 183.246094 C 1589.285156 183.152344 1589.257812 183.058594 1589.230469 182.960938 C 1589.164062 182.746094 1589.085938 182.535156 1589.007812 182.320312 C 1588.929688 182.28125 1588.855469 182.242188 1588.773438 182.203125 Z M 1588.773438 182.203125 "/></g><path style=" stroke:none;fill-rule:nonzero;fill:#44403d;fill-opacity:1;" d="M 905.84375 121.46875 C 929.738281 121.46875 953.632812 121.46875 978.25 121.46875 C 977.976562 123.6875 977.707031 125.90625 977.425781 128.191406 C 977.1875 130.339844 977.1875 130.339844 976.976562 132.492188 C 976.964844 132.613281 976.953125 132.738281 976.941406 132.863281 C 976.335938 139.636719 975.984375 146.433594 975.757812 153.230469 C 975.753906 153.363281 975.75 153.5 975.746094 153.640625 C 975.714844 154.582031 975.6875 155.519531 975.664062 156.460938 C 975.65625 156.730469 975.648438 157 975.640625 157.273438 C 975.527344 161.550781 975.519531 165.828125 975.523438 170.105469 C 975.523438 171.175781 975.523438 172.242188 975.523438 173.3125 C 975.519531 175.308594 975.519531 177.304688 975.519531 179.300781 C 975.519531 181.320312 975.519531 183.339844 975.519531 185.359375 C 975.519531 185.550781 975.519531 185.550781 975.519531 185.746094 C 975.519531 186.269531 975.519531 186.792969 975.519531 187.3125 C 975.519531 192.746094 975.519531 198.175781 975.519531 203.605469 C 975.519531 204.1875 975.519531 204.773438 975.519531 205.355469 C 975.519531 205.5 975.519531 205.644531 975.519531 205.792969 C 975.519531 209.011719 975.519531 212.230469 975.519531 215.449219 C 975.519531 216.777344 975.519531 218.101562 975.519531 219.429688 C 975.519531 219.578125 975.519531 219.722656 975.519531 219.875 C 975.515625 228.277344 975.515625 236.679688 975.515625 245.082031 C 975.515625 245.394531 975.515625 245.710938 975.515625 246.023438 C 975.515625 247.519531 975.515625 249.015625 975.515625 250.511719 C 975.515625 250.988281 975.515625 251.460938 975.515625 251.933594 C 975.515625 252.332031 975.515625 252.726562 975.515625 253.121094 C 975.515625 260.582031 975.515625 268.046875 975.515625 275.511719 C 975.515625 275.589844 975.515625 275.667969 975.515625 275.746094 C 975.515625 278.199219 975.515625 280.652344 975.515625 283.105469 C 975.515625 285.625 975.511719 288.140625 975.511719 290.660156 C 975.511719 290.8125 975.511719 290.96875 975.511719 291.128906 C 975.511719 295.914062 975.511719 300.703125 975.511719 305.488281 C 975.511719 305.636719 975.511719 305.789062 975.511719 305.945312 C 975.511719 309.25 975.511719 312.554688 975.511719 315.859375 C 975.511719 317.042969 975.511719 318.226562 975.511719 319.410156 C 975.511719 319.703125 975.511719 320 975.511719 320.292969 C 975.511719 324.960938 975.511719 329.632812 975.507812 334.300781 C 975.507812 339.007812 975.507812 343.71875 975.507812 348.425781 C 975.507812 349.082031 975.507812 349.734375 975.507812 350.390625 C 975.507812 350.519531 975.507812 350.648438 975.507812 350.777344 C 975.511719 352.789062 975.507812 354.800781 975.507812 356.808594 C 975.507812 358.796875 975.507812 360.785156 975.507812 362.773438 C 975.507812 363.832031 975.507812 364.890625 975.507812 365.949219 C 975.503906 370.238281 975.539062 374.527344 975.648438 378.8125 C 975.652344 378.910156 975.652344 379.007812 975.65625 379.105469 C 975.710938 381.179688 975.773438 383.253906 975.855469 385.328125 C 975.855469 385.410156 975.859375 385.488281 975.863281 385.574219 C 976.097656 391.664062 976.5 397.746094 977.058594 403.816406 C 977.070312 403.953125 977.082031 404.089844 977.09375 404.230469 C 977.421875 407.824219 977.851562 411.410156 978.25 414.996094 C 955.289062 414.996094 932.328125 414.996094 908.671875 414.996094 C 908.671875 398.605469 908.671875 398.605469 908.789062 396.246094 C 908.488281 396.5 908.488281 396.5 908.179688 396.761719 C 907.492188 397.335938 906.789062 397.882812 906.078125 398.425781 C 905.808594 398.628906 905.539062 398.835938 905.269531 399.042969 C 904.207031 399.859375 903.140625 400.664062 902.050781 401.445312 C 901.617188 401.753906 901.183594 402.066406 900.753906 402.378906 C 899.496094 403.296875 898.21875 404.171875 896.917969 405.023438 C 896.820312 405.089844 896.722656 405.152344 896.621094 405.21875 C 895.074219 406.230469 893.519531 407.21875 891.925781 408.15625 C 891.75 408.261719 891.75 408.261719 891.570312 408.367188 C 889.636719 409.511719 887.667969 410.578125 885.660156 411.585938 C 885.441406 411.695312 885.222656 411.804688 885.007812 411.914062 C 876.257812 416.332031 866.828125 418.914062 828.714844 421.128906 C 828.609375 421.121094 828.5 421.113281 828.390625 421.105469 C 818.34375 420.371094 808.511719 418.507812 783.195312 408.039062 C 783.078125 407.96875 782.957031 407.902344 782.835938 407.828125 C 780.984375 406.746094 779.183594 405.597656 777.417969 404.382812 C 777.273438 404.285156 777.273438 404.285156 777.128906 404.1875 C 775.941406 403.367188 774.785156 402.503906 773.640625 401.617188 C 773.417969 401.445312 773.195312 401.273438 772.972656 401.097656 C 772.058594 400.394531 771.179688 399.65625 770.308594 398.898438 C 770.109375 398.726562 769.90625 398.554688 769.703125 398.382812 C 767.9375 396.898438 766.300781 395.28125 764.664062 393.652344 C 764.589844 393.578125 764.515625 393.503906 764.4375 393.425781 C 763.667969 392.65625 762.910156 391.886719 762.203125 391.058594 C 762.011719 390.847656 761.820312 390.636719 761.628906 390.429688 C 761.144531 389.902344 760.6875 389.355469 760.238281 388.800781 C 759.996094 388.503906 759.753906 388.214844 759.503906 387.925781 C 758.171875 386.375 756.96875 384.722656 755.785156 383.058594 C 755.609375 382.8125 755.429688 382.570312 755.253906 382.324219 C 753.621094 380.058594 752.15625 377.675781 750.765625 375.253906 C 750.667969 375.082031 750.667969 375.082031 750.566406 374.910156 C 748.71875 371.6875 747.066406 368.394531 745.574219 364.996094 C 745.542969 364.917969 745.507812 364.84375 745.472656 364.765625 C 743.039062 359.203125 741.085938 353.417969 739.5625 347.539062 C 739.539062 347.457031 739.515625 347.371094 739.492188 347.28125 C 736.71875 336.558594 735.335938 325.578125 734.84375 314.519531 C 734.839844 314.421875 734.835938 314.320312 734.832031 314.21875 C 734.773438 312.90625 734.742188 311.589844 734.726562 310.273438 C 734.722656 310.109375 734.722656 310.109375 734.722656 309.941406 C 734.585938 297.699219 735.46875 285.441406 750.527344 240.105469 C 750.652344 239.890625 750.78125 239.671875 750.90625 239.453125 C 752.1875 237.257812 753.539062 235.105469 755.007812 233.03125 C 755.066406 232.949219 755.125 232.867188 755.183594 232.785156 C 756.800781 230.507812 758.496094 228.296875 760.304688 226.171875 C 760.660156 225.757812 761.003906 225.335938 761.347656 224.910156 C 761.703125 224.472656 762.074219 224.066406 762.476562 223.675781 C 762.6875 223.46875 762.875 223.25 763.066406 223.027344 C 763.484375 222.542969 763.9375 222.09375 764.394531 221.644531 C 764.640625 221.394531 764.867188 221.144531 765.09375 220.875 C 765.484375 220.417969 765.925781 220.027344 766.375 219.628906 C 766.691406 219.34375 766.992188 219.050781 767.289062 218.746094 C 767.699219 218.332031 768.121094 217.933594 768.566406 217.554688 C 768.839844 217.316406 769.105469 217.074219 769.375 216.832031 C 769.878906 216.375 770.394531 215.941406 770.921875 215.515625 C 771.183594 215.304688 771.441406 215.09375 771.703125 214.878906 C 774.238281 212.789062 776.910156 210.882812 779.65625 209.089844 C 779.742188 209.035156 779.828125 208.976562 779.917969 208.917969 C 788.289062 203.484375 797.523438 199.660156 807.132812 197.0625 C 807.277344 197.023438 807.417969 196.984375 807.5625 196.945312 C 813.011719 195.492188 818.625 194.550781 824.234375 193.996094 C 824.359375 193.984375 824.359375 193.984375 824.484375 193.972656 C 829.414062 193.484375 834.375 193.335938 839.328125 193.40625 C 839.457031 193.40625 839.457031 193.40625 839.589844 193.410156 C 849.988281 193.550781 860.492188 194.847656 880.25 201.542969 C 880.367188 201.59375 880.484375 201.644531 880.605469 201.695312 C 881.277344 201.988281 881.945312 202.292969 882.609375 202.605469 C 882.769531 202.679688 882.769531 202.679688 882.933594 202.757812 C 885.925781 204.15625 888.867188 205.652344 891.703125 207.355469 C 892.046875 207.558594 892.390625 207.761719 892.738281 207.960938 C 894.769531 209.15625 896.726562 210.457031 898.675781 211.78125 C 898.863281 211.90625 899.050781 212.035156 899.242188 212.164062 C 901.25 213.519531 903.203125 214.945312 905.125 216.417969 C 905.664062 216.828125 906.207031 217.234375 906.75 217.640625 C 907.441406 218.15625 908.121094 218.6875 908.789062 219.234375 C 908.804688 218.460938 908.792969 217.695312 908.75 216.925781 C 908.652344 215.214844 908.652344 213.503906 908.648438 211.792969 C 908.648438 211.335938 908.648438 210.882812 908.648438 210.425781 C 908.644531 209.636719 908.644531 208.847656 908.640625 208.054688 C 908.640625 206.898438 908.636719 205.742188 908.632812 204.582031 C 908.628906 202.683594 908.625 200.785156 908.621094 198.882812 C 908.617188 198.769531 908.617188 198.65625 908.617188 198.539062 C 908.617188 198.082031 908.617188 197.625 908.617188 197.167969 C 908.605469 193.296875 908.597656 189.429688 908.585938 185.5625 C 908.585938 185.453125 908.585938 185.347656 908.585938 185.234375 C 908.570312 179.488281 908.550781 173.742188 908.5 167.996094 C 908.5 167.566406 908.496094 167.132812 908.492188 166.699219 C 908.402344 155.957031 908.085938 145.21875 906.003906 123.648438 C 905.992188 123.566406 905.980469 123.488281 905.972656 123.402344 C 905.941406 123.199219 905.910156 122.996094 905.882812 122.792969 C 905.835938 122.355469 905.84375 121.910156 905.84375 121.46875 Z M 821.695312 258.589844 C 821.535156 258.738281 821.375 258.882812 821.207031 259.027344 C 820.539062 259.597656 819.910156 260.210938 819.289062 260.832031 C 819.113281 261.007812 818.9375 261.183594 818.757812 261.355469 C 818.015625 262.097656 817.339844 262.871094 816.6875 263.691406 C 816.558594 263.84375 816.433594 263.996094 816.304688 264.148438 C 808.890625 273.058594 805.304688 284.617188 803.605469 316.167969 C 804.515625 325.894531 806.925781 335.421875 820.933594 355.324219 C 821.027344 355.414062 821.121094 355.5 821.21875 355.59375 C 822.128906 356.4375 823.121094 357.175781 824.117188 357.917969 C 824.1875 357.972656 824.257812 358.023438 824.328125 358.078125 C 832.792969 364.402344 843.898438 367.605469 854.425781 367.351562 C 854.515625 367.351562 854.609375 367.351562 854.703125 367.347656 C 862.578125 367.207031 870.429688 365.339844 877.425781 361.695312 C 877.675781 361.566406 877.925781 361.4375 878.179688 361.3125 C 882.121094 359.3125 885.683594 356.609375 888.914062 353.605469 C 889.101562 353.433594 889.289062 353.261719 889.476562 353.09375 C 890.324219 352.328125 891.113281 351.523438 891.878906 350.671875 C 892.035156 350.496094 892.195312 350.324219 892.355469 350.148438 C 895.941406 346.261719 898.777344 341.765625 901.125 337.042969 C 901.183594 336.929688 901.242188 336.8125 901.300781 336.695312 C 904.886719 329.550781 906.8125 321.617188 907.609375 313.695312 C 907.625 313.566406 907.636719 313.441406 907.652344 313.308594 C 908.019531 309.617188 908.070312 305.839844 907.847656 302.136719 C 907.839844 302.019531 907.839844 302.019531 907.832031 301.898438 C 907.191406 291.382812 904.320312 280.855469 893.222656 264.753906 C 893.167969 264.691406 893.109375 264.628906 893.054688 264.5625 C 892.300781 263.722656 891.515625 262.914062 890.71875 262.113281 C 890.628906 262.027344 890.542969 261.9375 890.453125 261.847656 C 889.902344 261.296875 889.332031 260.777344 888.742188 260.273438 C 888.570312 260.121094 888.570312 260.121094 888.398438 259.96875 C 885.679688 257.628906 882.691406 255.617188 879.542969 253.90625 C 879.441406 253.847656 879.335938 253.789062 879.230469 253.730469 C 872.832031 250.195312 865.578125 248.273438 858.316406 247.652344 C 858.132812 247.636719 858.132812 247.636719 857.941406 247.621094 C 846.589844 246.722656 834.898438 249.085938 821.695312 258.589844 Z M 821.695312 258.589844 "/><path style=" stroke:none;fill-rule:nonzero;fill:#44403d;fill-opacity:1;" d="M 1157.503906 197.179688 C 1157.585938 197.207031 1157.667969 197.234375 1157.753906 197.261719 C 1164.652344 199.503906 1171.324219 202.542969 1177.550781 206.261719 C 1177.664062 206.328125 1177.777344 206.394531 1177.894531 206.460938 C 1182.796875 209.367188 1187.457031 212.800781 1191.675781 216.636719 C 1191.90625 216.84375 1192.140625 217.046875 1192.375 217.25 C 1193.757812 218.460938 1195.0625 219.75 1196.363281 221.046875 C 1196.433594 221.117188 1196.507812 221.191406 1196.582031 221.265625 C 1197.984375 222.664062 1197.984375 222.664062 1198.613281 223.398438 C 1198.871094 223.703125 1199.140625 223.992188 1199.414062 224.28125 C 1199.917969 224.828125 1200.394531 225.386719 1200.859375 225.964844 C 1201.117188 226.285156 1201.386719 226.597656 1201.65625 226.910156 C 1202.316406 227.671875 1202.949219 228.453125 1203.558594 229.261719 C 1203.761719 229.53125 1203.964844 229.796875 1204.171875 230.0625 C 1205.148438 231.328125 1206.082031 232.609375 1206.972656 233.9375 C 1207.152344 234.207031 1207.332031 234.476562 1207.511719 234.742188 C 1209.523438 237.730469 1211.351562 240.820312 1213.050781 244 C 1213.105469 244.105469 1213.164062 244.210938 1213.222656 244.320312 C 1216.175781 249.859375 1218.578125 255.628906 1220.597656 261.570312 C 1220.625 261.65625 1220.65625 261.742188 1220.683594 261.828125 C 1221.726562 264.890625 1222.613281 267.988281 1223.425781 271.121094 C 1223.453125 271.230469 1223.484375 271.335938 1223.511719 271.449219 C 1226.339844 282.304688 1227.566406 293.460938 1229.40625 321.453125 C 1229.433594 322.699219 1229.507812 323.941406 1229.597656 325.183594 C 1229.609375 325.320312 1229.621094 325.453125 1229.628906 325.59375 C 1229.644531 325.769531 1229.644531 325.769531 1229.65625 325.945312 C 1229.679688 326.382812 1229.675781 326.820312 1229.675781 327.257812 C 1177.332031 327.257812 1124.992188 327.257812 1071.0625 327.257812 C 1072.171875 334.292969 1073.609375 341.308594 1076.953125 347.664062 C 1077.085938 347.917969 1077.21875 348.171875 1077.347656 348.429688 C 1078.664062 351.011719 1080.265625 353.464844 1082.148438 355.679688 C 1082.289062 355.851562 1082.289062 355.851562 1082.429688 356.027344 C 1083.210938 356.976562 1084.0625 357.851562 1084.925781 358.722656 C 1084.984375 358.78125 1085.039062 358.835938 1085.097656 358.894531 C 1085.882812 359.6875 1086.699219 360.414062 1087.570312 361.101562 C 1087.695312 361.203125 1087.820312 361.304688 1087.945312 361.40625 C 1096 367.71875 1106.5 370.644531 1116.644531 370.679688 C 1116.804688 370.679688 1116.960938 370.679688 1117.121094 370.679688 C 1117.625 370.683594 1118.128906 370.683594 1118.632812 370.683594 C 1118.71875 370.683594 1118.804688 370.683594 1118.890625 370.683594 C 1121.441406 370.683594 1123.960938 370.660156 1126.488281 370.300781 C 1126.660156 370.277344 1126.828125 370.253906 1127 370.230469 C 1132.1875 369.523438 1137.304688 368.164062 1142.054688 365.9375 C 1142.265625 365.84375 1142.472656 365.746094 1142.683594 365.652344 C 1145.917969 364.167969 1148.925781 362.238281 1151.726562 360.042969 C 1151.84375 359.949219 1151.957031 359.859375 1152.078125 359.765625 C 1152.785156 359.199219 1153.449219 358.597656 1154.113281 357.984375 C 1154.371094 357.746094 1154.632812 357.511719 1154.902344 357.285156 C 1155.929688 356.390625 1156.875 355.414062 1157.71875 354.347656 C 1157.992188 354.007812 1158.273438 353.679688 1158.558594 353.347656 C 1161.535156 349.769531 1163.339844 345.175781 1164.632812 340.761719 C 1164.667969 340.644531 1164.703125 340.53125 1164.738281 340.410156 C 1164.769531 340.308594 1164.796875 340.210938 1164.828125 340.105469 C 1164.863281 340.027344 1164.898438 339.953125 1164.933594 339.875 C 1165.382812 339.726562 1165.675781 339.839844 1166.113281 339.964844 C 1166.199219 339.988281 1166.285156 340.015625 1166.371094 340.039062 C 1166.65625 340.117188 1166.9375 340.199219 1167.21875 340.28125 C 1167.421875 340.339844 1167.621094 340.394531 1167.824219 340.453125 C 1168.253906 340.574219 1168.6875 340.699219 1169.117188 340.824219 C 1169.804688 341.019531 1170.488281 341.214844 1171.171875 341.410156 C 1171.992188 341.640625 1172.808594 341.875 1173.625 342.105469 C 1175.445312 342.628906 1177.269531 343.140625 1179.09375 343.652344 C 1179.605469 343.796875 1180.117188 343.941406 1180.625 344.085938 C 1180.710938 344.109375 1180.796875 344.132812 1180.882812 344.15625 C 1181.054688 344.207031 1181.222656 344.253906 1181.394531 344.300781 C 1181.734375 344.398438 1182.070312 344.492188 1182.410156 344.585938 C 1183.53125 344.902344 1184.652344 345.21875 1185.769531 345.535156 C 1185.902344 345.570312 1185.902344 345.570312 1186.035156 345.609375 C 1186.472656 345.730469 1186.910156 345.855469 1187.347656 345.976562 C 1188.132812 346.199219 1188.917969 346.421875 1189.703125 346.640625 C 1190.140625 346.765625 1190.574219 346.886719 1191.011719 347.011719 C 1191.183594 347.058594 1191.359375 347.109375 1191.535156 347.15625 C 1197.464844 348.828125 1203.394531 350.5 1209.328125 352.167969 C 1209.414062 352.195312 1209.5 352.21875 1209.589844 352.242188 C 1209.761719 352.292969 1209.9375 352.339844 1210.113281 352.390625 C 1210.546875 352.511719 1210.984375 352.636719 1211.421875 352.757812 C 1212.203125 352.980469 1212.984375 353.199219 1213.761719 353.417969 C 1214.195312 353.539062 1214.625 353.660156 1215.054688 353.78125 C 1215.140625 353.808594 1215.226562 353.832031 1215.3125 353.855469 C 1216.519531 354.195312 1217.730469 354.535156 1218.9375 354.875 C 1219.617188 355.066406 1220.300781 355.257812 1220.980469 355.449219 C 1221.539062 355.605469 1222.09375 355.757812 1222.648438 355.914062 C 1222.992188 356.011719 1223.335938 356.109375 1223.679688 356.203125 C 1223.835938 356.25 1223.996094 356.292969 1224.152344 356.335938 C 1224.949219 356.558594 1225.726562 356.789062 1226.492188 357.09375 C 1226.1875 358.117188 1225.738281 359.066406 1225.292969 360.035156 C 1225.207031 360.21875 1225.121094 360.402344 1225.039062 360.585938 C 1224.820312 361.058594 1224.601562 361.53125 1224.378906 362.003906 C 1224.257812 362.269531 1224.136719 362.535156 1224.011719 362.796875 C 1222.394531 366.292969 1220.726562 369.777344 1218.828125 373.132812 C 1218.761719 373.25 1218.695312 373.367188 1218.625 373.492188 C 1216.34375 377.527344 1213.839844 381.429688 1210.925781 385.042969 C 1210.835938 385.152344 1210.746094 385.265625 1210.65625 385.378906 C 1209.695312 386.5625 1208.714844 387.726562 1207.679688 388.847656 C 1207.445312 389.105469 1207.214844 389.367188 1206.988281 389.628906 C 1205.765625 391.027344 1204.460938 392.34375 1203.148438 393.660156 C 1203.082031 393.726562 1203.011719 393.796875 1202.941406 393.867188 C 1202.265625 394.546875 1201.59375 395.21875 1200.863281 395.839844 C 1200.5625 396.097656 1200.273438 396.371094 1199.980469 396.644531 C 1199.433594 397.148438 1198.875 397.625 1198.292969 398.089844 C 1197.984375 398.34375 1197.679688 398.605469 1197.378906 398.867188 C 1196.472656 399.65625 1195.53125 400.390625 1194.570312 401.113281 C 1194.289062 401.324219 1194.007812 401.539062 1193.726562 401.753906 C 1191.664062 403.320312 1189.523438 404.761719 1187.339844 406.152344 C 1187.242188 406.214844 1187.144531 406.277344 1187.042969 406.339844 C 1184.621094 407.878906 1182.113281 409.265625 1179.558594 410.570312 C 1179.316406 410.691406 1179.074219 410.816406 1178.832031 410.941406 C 1169.6875 415.679688 1159.671875 418.800781 1129.910156 423.25 C 1129.738281 423.261719 1129.738281 423.261719 1129.5625 423.273438 C 1123.066406 423.675781 1116.476562 423.660156 1109.976562 423.25 C 1109.859375 423.246094 1109.738281 423.238281 1109.613281 423.230469 C 1098.082031 422.503906 1086.683594 420.539062 1065.164062 412.570312 C 1064.800781 412.398438 1064.441406 412.226562 1064.078125 412.058594 C 1059.554688 409.933594 1055.210938 407.386719 1051.132812 404.5 C 1051.050781 404.441406 1050.96875 404.386719 1050.886719 404.328125 C 1048.953125 402.957031 1047.054688 401.535156 1045.234375 400.019531 C 1045.015625 399.84375 1044.796875 399.664062 1044.578125 399.488281 C 1044.050781 399.054688 1043.539062 398.605469 1043.035156 398.144531 C 1042.785156 397.921875 1042.539062 397.703125 1042.285156 397.484375 C 1040.707031 396.105469 1039.171875 394.675781 1037.6875 393.195312 C 1037.59375 393.101562 1037.5 393.007812 1037.40625 392.914062 C 1036.914062 392.421875 1036.445312 391.921875 1035.992188 391.398438 C 1035.6875 391.046875 1035.367188 390.710938 1035.046875 390.371094 C 1034.492188 389.777344 1033.964844 389.164062 1033.453125 388.527344 C 1033.207031 388.230469 1032.953125 387.945312 1032.691406 387.660156 C 1032.09375 387.003906 1031.554688 386.308594 1031.011719 385.609375 C 1030.855469 385.40625 1030.695312 385.203125 1030.535156 385.003906 C 1023.445312 376.097656 1017.96875 365.894531 1006.910156 289.886719 C 1008.195312 278.808594 1010.730469 267.847656 1022.160156 242.445312 C 1022.34375 242.132812 1022.527344 241.824219 1022.710938 241.511719 C 1024.050781 239.246094 1025.457031 237.027344 1027.023438 234.910156 C 1027.230469 234.628906 1027.4375 234.339844 1027.640625 234.050781 C 1028.78125 232.429688 1030.007812 230.878906 1031.265625 229.347656 C 1031.421875 229.15625 1031.578125 228.964844 1031.730469 228.773438 C 1032.242188 228.144531 1032.765625 227.535156 1033.308594 226.9375 C 1033.535156 226.691406 1033.753906 226.441406 1033.972656 226.191406 C 1035.429688 224.523438 1036.941406 222.914062 1038.503906 221.347656 C 1038.609375 221.246094 1038.710938 221.140625 1038.820312 221.035156 C 1039.335938 220.519531 1039.859375 220.019531 1040.414062 219.542969 C 1040.785156 219.21875 1041.140625 218.878906 1041.496094 218.539062 C 1042.101562 217.972656 1042.71875 217.429688 1043.367188 216.914062 C 1043.691406 216.648438 1044.003906 216.375 1044.320312 216.097656 C 1045.253906 215.273438 1046.226562 214.511719 1047.222656 213.761719 C 1047.472656 213.574219 1047.71875 213.386719 1047.964844 213.191406 C 1056.296875 206.726562 1065.828125 201.792969 1113.9375 191.335938 C 1114.066406 191.332031 1114.066406 191.332031 1114.199219 191.328125 C 1124.78125 191.035156 1135.402344 191.847656 1157.503906 197.179688 Z M 1111.277344 244.234375 C 1111.058594 244.257812 1111.058594 244.257812 1110.839844 244.277344 C 1100.476562 245.355469 1090.953125 249.078125 1082.148438 257.914062 C 1082.09375 257.976562 1082.039062 258.042969 1081.984375 258.105469 C 1077.535156 263.421875 1074.558594 269.6875 1072.617188 276.3125 C 1072.578125 276.441406 1072.578125 276.441406 1072.539062 276.574219 C 1072.242188 277.492188 1072.242188 277.492188 1072.121094 278.433594 C 1101.972656 278.433594 1131.820312 278.433594 1162.574219 278.433594 C 1162.015625 276.0625 1162.015625 276.0625 1161.367188 273.722656 C 1161.320312 273.578125 1161.277344 273.429688 1161.230469 273.277344 C 1159.46875 267.539062 1156.648438 262.078125 1152.667969 257.558594 C 1152.589844 257.46875 1152.507812 257.375 1152.425781 257.277344 C 1151.140625 255.808594 1149.746094 254.382812 1148.1875 253.195312 C 1148.035156 253.078125 1147.878906 252.957031 1147.726562 252.835938 C 1141.578125 248.035156 1134.21875 245.460938 1126.53125 244.441406 C 1126.398438 244.421875 1126.265625 244.40625 1126.128906 244.386719 C 1123.449219 244.054688 1120.761719 243.957031 1118.0625 243.96875 C 1117.917969 243.96875 1117.769531 243.96875 1117.621094 243.96875 C 1115.496094 243.976562 1113.390625 244.003906 1111.277344 244.234375 Z M 1111.277344 244.234375 "/><path style=" stroke:none;fill-rule:nonzero;fill:#44403d;fill-opacity:1;" d="M 309.941406 196.945312 C 310.023438 196.960938 310.109375 196.980469 310.191406 197 C 320.714844 199.367188 330.945312 203.898438 340.417969 211.996094 C 340.578125 212.144531 340.742188 212.292969 340.910156 212.433594 C 341.679688 213.089844 342.386719 213.804688 343.101562 214.523438 C 343.324219 214.742188 343.546875 214.964844 343.765625 215.1875 C 344.46875 215.886719 345.15625 216.585938 345.792969 217.347656 C 345.90625 217.476562 346.019531 217.605469 346.132812 217.738281 C 348.058594 219.964844 349.867188 222.292969 351.453125 224.777344 C 351.539062 224.910156 351.539062 224.910156 351.628906 225.050781 C 352.625 226.613281 353.542969 228.207031 354.402344 229.847656 C 354.460938 229.957031 354.519531 230.066406 354.578125 230.179688 C 359.609375 239.789062 361.765625 250.808594 362.621094 263 C 362.632812 263.167969 362.632812 263.167969 362.640625 263.335938 C 362.84375 266.519531 362.910156 269.699219 362.910156 272.890625 C 362.910156 273.402344 362.910156 273.917969 362.910156 274.429688 C 362.914062 275.324219 362.914062 276.222656 362.914062 277.117188 C 362.914062 278.449219 362.914062 279.785156 362.914062 281.117188 C 362.917969 283.363281 362.917969 285.609375 362.921875 287.855469 C 362.921875 291.070312 362.925781 294.289062 362.925781 297.507812 C 362.929688 298.800781 362.929688 300.097656 362.929688 301.390625 C 362.929688 301.535156 362.929688 301.679688 362.929688 301.828125 C 362.933594 305.25 362.9375 308.671875 362.9375 312.09375 C 362.9375 312.242188 362.9375 312.390625 362.941406 312.546875 C 362.941406 316.027344 362.945312 319.507812 362.945312 322.988281 C 362.945312 323.136719 362.945312 323.285156 362.945312 323.441406 C 362.949219 324.191406 362.949219 324.945312 362.949219 325.699219 C 362.949219 325.847656 362.949219 325.996094 362.949219 326.148438 C 362.949219 326.449219 362.949219 326.75 362.949219 327.046875 C 362.953125 332.035156 362.957031 337.019531 362.960938 342.007812 C 362.960938 342.714844 362.960938 343.421875 362.964844 344.132812 C 362.964844 344.269531 362.964844 344.410156 362.964844 344.554688 C 362.964844 346.769531 362.96875 348.988281 362.96875 351.207031 C 362.96875 353.449219 362.96875 355.691406 362.972656 357.933594 C 362.972656 359.140625 362.976562 360.347656 362.976562 361.558594 C 362.976562 366.3125 363.003906 371.0625 363.121094 375.816406 C 363.125 375.917969 363.125 376.019531 363.128906 376.121094 C 363.183594 378.273438 363.246094 380.425781 363.328125 382.578125 C 363.332031 382.707031 363.332031 382.707031 363.335938 382.835938 C 363.683594 392.191406 364.347656 401.535156 365.332031 410.84375 C 365.339844 410.925781 365.347656 411.007812 365.359375 411.09375 C 365.398438 411.480469 365.441406 411.863281 365.480469 412.25 C 365.503906 412.457031 365.503906 412.457031 365.527344 412.667969 C 365.542969 412.84375 365.542969 412.84375 365.5625 413.023438 C 365.625 413.679688 365.671875 414.339844 365.722656 414.996094 C 341.476562 414.996094 317.234375 414.996094 292.253906 414.996094 C 292.328125 413.941406 292.414062 412.898438 292.539062 411.847656 C 292.570312 411.558594 292.605469 411.269531 292.640625 410.980469 C 292.65625 410.828125 292.675781 410.675781 292.691406 410.519531 C 293.785156 401.058594 294.371094 391.566406 294.730469 381.621094 C 294.734375 381.503906 294.738281 381.382812 294.742188 381.261719 C 294.96875 374.878906 294.984375 368.488281 294.984375 362.101562 C 294.980469 361.097656 294.984375 360.09375 294.984375 359.085938 C 294.984375 357.007812 294.984375 354.925781 294.984375 352.847656 C 294.984375 351.242188 294.984375 349.632812 294.984375 348.027344 C 294.984375 347.5625 294.984375 347.09375 294.984375 346.628906 C 294.984375 346.453125 294.984375 346.453125 294.984375 346.277344 C 294.988281 343.023438 294.988281 339.773438 294.988281 336.523438 C 294.988281 336.402344 294.988281 336.28125 294.988281 336.152344 C 294.988281 335.535156 294.988281 334.917969 294.988281 334.300781 C 294.988281 334.179688 294.988281 334.058594 294.988281 333.929688 C 294.988281 333.683594 294.988281 333.433594 294.988281 333.1875 C 294.988281 329.328125 294.988281 325.464844 294.988281 321.605469 C 294.992188 317.246094 294.992188 312.886719 294.992188 308.527344 C 294.992188 308.0625 294.992188 307.59375 294.992188 307.128906 C 294.992188 307.015625 294.992188 306.902344 294.992188 306.78125 C 294.992188 304.949219 294.992188 303.121094 294.992188 301.289062 C 294.996094 299.445312 294.996094 297.601562 294.996094 295.757812 C 294.992188 294.761719 294.992188 293.769531 294.996094 292.773438 C 295.285156 276.113281 295.285156 276.113281 287.300781 260.980469 C 287.21875 260.890625 287.136719 260.800781 287.050781 260.710938 C 282.601562 256 275.195312 253.890625 268.917969 253.65625 C 268.578125 253.648438 268.238281 253.644531 267.898438 253.644531 C 267.773438 253.644531 267.648438 253.644531 267.519531 253.640625 C 267.117188 253.640625 266.714844 253.640625 266.316406 253.640625 C 266.179688 253.640625 266.042969 253.640625 265.898438 253.640625 C 263.8125 253.640625 261.769531 253.695312 259.703125 254.023438 C 259.574219 254.042969 259.445312 254.0625 259.308594 254.082031 C 255.058594 254.765625 250.933594 255.976562 247.019531 257.78125 C 246.753906 257.902344 246.484375 258.023438 246.214844 258.144531 C 240.78125 260.582031 235.855469 264.296875 231.507812 268.328125 C 231.285156 268.535156 231.0625 268.738281 230.835938 268.941406 C 230.089844 269.617188 229.367188 270.3125 228.652344 271.027344 C 228.5625 271.113281 228.472656 271.203125 228.382812 271.292969 C 227.902344 271.777344 227.441406 272.269531 226.996094 272.785156 C 226.691406 273.136719 226.371094 273.472656 226.050781 273.8125 C 225.503906 274.398438 224.980469 274.996094 224.480469 275.621094 C 224.222656 275.941406 223.957031 276.25 223.691406 276.558594 C 223.027344 277.320312 222.398438 278.101562 221.789062 278.910156 C 221.582031 279.179688 221.375 279.449219 221.167969 279.71875 C 220.253906 280.910156 219.359375 282.113281 218.503906 283.347656 C 218.289062 283.65625 218.070312 283.964844 217.855469 284.269531 C 216.9375 285.574219 216.023438 286.878906 215.214844 288.253906 C 215.007812 288.574219 215.007812 288.574219 214.722656 288.933594 C 213.582031 290.402344 213.667969 291.894531 213.6875 293.6875 C 213.6875 294.011719 213.683594 294.339844 213.683594 294.667969 C 213.679688 295.378906 213.683594 296.085938 213.6875 296.796875 C 213.695312 297.851562 213.695312 298.90625 213.691406 299.960938 C 213.691406 301.738281 213.695312 303.515625 213.703125 305.292969 C 213.707031 307.054688 213.710938 308.820312 213.714844 310.582031 C 213.714844 310.691406 213.714844 310.800781 213.714844 310.914062 C 213.714844 311.472656 213.714844 312.03125 213.714844 312.589844 C 213.714844 316.546875 213.722656 320.503906 213.734375 324.460938 C 213.746094 328.285156 213.753906 332.113281 213.757812 335.941406 C 213.757812 336.058594 213.757812 336.175781 213.757812 336.296875 C 213.757812 337.359375 213.757812 338.421875 213.757812 339.488281 C 213.765625 346.664062 213.777344 353.84375 213.792969 361.019531 C 213.792969 361.121094 213.792969 361.21875 213.792969 361.316406 C 213.796875 361.464844 213.796875 361.464844 213.796875 361.613281 C 213.796875 362.273438 213.796875 362.933594 213.800781 363.59375 C 213.8125 369.273438 213.859375 374.957031 214.050781 380.632812 C 214.054688 380.78125 214.058594 380.929688 214.066406 381.082031 C 214.410156 391.410156 215.144531 401.714844 216.328125 412.402344 C 216.339844 412.535156 216.355469 412.664062 216.371094 412.800781 C 216.398438 413.042969 216.425781 413.289062 216.453125 413.53125 C 216.464844 413.640625 216.476562 413.746094 216.488281 413.855469 C 216.5 413.949219 216.507812 414.042969 216.519531 414.136719 C 216.542969 414.421875 216.542969 414.710938 216.542969 414.996094 C 192.414062 414.996094 168.285156 414.996094 143.425781 414.996094 C 143.558594 413.273438 143.558594 413.273438 143.632812 412.621094 C 143.652344 412.472656 143.667969 412.324219 143.6875 412.171875 C 143.695312 412.097656 143.703125 412.019531 143.710938 411.941406 C 143.761719 411.515625 143.8125 411.089844 143.859375 410.664062 C 143.871094 410.574219 143.878906 410.484375 143.890625 410.390625 C 144.363281 406.273438 144.769531 402.152344 145.078125 398.015625 C 145.085938 397.871094 145.097656 397.726562 145.109375 397.578125 C 145.5625 391.402344 145.871094 385.199219 145.996094 379.003906 C 146.007812 378.414062 146.019531 377.820312 146.035156 377.226562 C 146.167969 371.429688 146.15625 365.628906 146.152344 359.832031 C 146.152344 358.375 146.152344 356.917969 146.152344 355.457031 C 146.152344 352.542969 146.152344 349.628906 146.152344 346.710938 C 146.152344 343.902344 146.152344 341.09375 146.152344 338.285156 C 146.152344 338.109375 146.152344 337.933594 146.152344 337.753906 C 146.152344 337.042969 146.152344 336.328125 146.152344 335.613281 C 146.152344 333.621094 146.152344 331.628906 146.152344 329.636719 C 146.152344 329.542969 146.152344 329.453125 146.152344 329.359375 C 146.152344 326.476562 146.152344 323.589844 146.152344 320.707031 C 146.152344 320.566406 146.152344 320.566406 146.152344 320.425781 C 146.152344 318.910156 146.152344 317.394531 146.152344 315.878906 C 146.152344 309.871094 146.152344 303.867188 146.152344 297.859375 C 146.152344 296.34375 146.152344 294.832031 146.152344 293.316406 C 146.152344 293.222656 146.152344 293.132812 146.152344 293.035156 C 146.152344 290.152344 146.152344 287.273438 146.152344 284.390625 C 146.152344 284.300781 146.152344 284.210938 146.152344 284.117188 C 146.152344 282.125 146.152344 280.132812 146.152344 278.140625 C 146.152344 277.429688 146.152344 276.714844 146.152344 276.003906 C 146.152344 275.828125 146.152344 275.648438 146.152344 275.472656 C 146.152344 272.667969 146.152344 269.859375 146.152344 267.054688 C 146.152344 264.144531 146.152344 261.238281 146.152344 258.328125 C 146.152344 256.800781 146.152344 255.277344 146.152344 253.753906 C 146.15625 247.667969 146.152344 241.589844 146.019531 235.507812 C 146.015625 235.398438 146.015625 235.285156 146.011719 235.171875 C 145.984375 233.941406 145.953125 232.714844 145.917969 231.484375 C 145.910156 231.320312 145.90625 231.15625 145.902344 230.992188 C 145.605469 221.273438 145.023438 211.550781 143.640625 201.917969 C 143.625 201.816406 143.613281 201.714844 143.597656 201.609375 C 143.570312 201.425781 143.542969 201.238281 143.515625 201.050781 C 143.453125 200.617188 143.425781 200.21875 143.425781 199.773438 C 166.621094 199.773438 189.8125 199.773438 213.710938 199.773438 C 213.710938 217.109375 213.710938 217.109375 213.476562 222.417969 C 213.476562 223 213.476562 223.585938 213.476562 224.1875 C 213.605469 224.066406 213.730469 223.945312 213.863281 223.820312 C 216.546875 221.285156 216.546875 221.285156 217.839844 220.175781 C 217.898438 220.125 217.957031 220.078125 218.015625 220.023438 C 218.433594 219.664062 218.855469 219.300781 219.277344 218.941406 C 219.414062 218.824219 219.550781 218.707031 219.6875 218.589844 C 220.457031 217.933594 221.234375 217.289062 222.035156 216.667969 C 222.476562 216.324219 222.914062 215.972656 223.347656 215.613281 C 224.46875 214.691406 225.625 213.832031 226.800781 212.984375 C 226.878906 212.925781 226.953125 212.871094 227.035156 212.8125 C 231.414062 209.636719 236.019531 206.835938 240.835938 204.375 C 240.921875 204.328125 241.007812 204.285156 241.097656 204.238281 C 249.714844 199.800781 259.128906 197.042969 279.753906 194.585938 C 279.894531 194.578125 280.035156 194.570312 280.179688 194.566406 C 290.136719 194.101562 300.207031 194.765625 309.941406 196.945312 Z M 309.941406 196.945312 "/><path style=" stroke:none;fill-rule:nonzero;fill:#44403d;fill-opacity:1;" d="M 556.886719 203.902344 C 557.007812 203.960938 557.125 204.019531 557.25 204.082031 C 559.28125 205.09375 561.214844 206.234375 563.136719 207.441406 C 563.238281 207.503906 563.339844 207.566406 563.445312 207.632812 C 565.84375 209.140625 568.160156 210.804688 570.332031 212.628906 C 570.453125 212.730469 570.578125 212.835938 570.703125 212.9375 C 571.472656 213.582031 572.222656 214.246094 572.960938 214.929688 C 573.21875 215.167969 573.480469 215.398438 573.742188 215.628906 C 574.945312 216.675781 576.085938 217.78125 577.214844 218.910156 C 577.277344 218.96875 577.339844 219.03125 577.402344 219.09375 C 578.097656 219.789062 578.773438 220.488281 579.410156 221.238281 C 579.53125 221.375 579.652344 221.511719 579.773438 221.644531 C 580.65625 222.644531 581.484375 223.679688 582.28125 224.746094 C 582.484375 225.019531 582.6875 225.289062 582.890625 225.558594 C 583.847656 226.828125 584.71875 228.132812 585.542969 229.492188 C 585.59375 229.574219 585.644531 229.65625 585.695312 229.742188 C 588.636719 234.585938 590.828125 239.738281 592.738281 245.058594 C 592.765625 245.140625 592.796875 245.222656 592.828125 245.304688 C 593.667969 247.640625 594.414062 250 595.125 252.378906 C 595.167969 252.511719 595.207031 252.644531 595.246094 252.78125 C 595.359375 253.160156 595.472656 253.539062 595.585938 253.914062 C 595.621094 254.03125 595.652344 254.144531 595.6875 254.261719 C 595.734375 254.421875 595.734375 254.421875 595.78125 254.582031 C 595.824219 254.71875 595.824219 254.71875 595.863281 254.859375 C 595.921875 255.082031 595.921875 255.082031 595.921875 255.320312 C 590.351562 255.925781 584.78125 256.53125 579.214844 257.140625 C 579.089844 257.152344 579.089844 257.152344 578.960938 257.167969 C 577.160156 257.363281 575.355469 257.558594 573.554688 257.757812 C 572.667969 257.851562 571.785156 257.949219 570.898438 258.046875 C 570.8125 258.054688 570.722656 258.066406 570.632812 258.074219 C 567.796875 258.382812 564.960938 258.691406 562.128906 259 C 559.207031 259.320312 556.285156 259.636719 553.363281 259.957031 C 552.945312 260 552.53125 260.046875 552.113281 260.089844 C 552.03125 260.101562 551.949219 260.109375 551.867188 260.117188 C 550.726562 260.242188 549.585938 260.367188 548.445312 260.492188 C 547.738281 260.570312 547.027344 260.644531 546.316406 260.722656 C 546.164062 260.738281 546.007812 260.757812 545.851562 260.773438 C 544.234375 260.949219 542.613281 261.125 540.992188 261.300781 C 540.789062 261.324219 540.789062 261.324219 540.578125 261.347656 C 540.039062 261.40625 539.503906 261.464844 538.964844 261.523438 C 537.457031 261.6875 535.945312 261.851562 534.4375 262.015625 C 533.785156 262.089844 533.136719 262.160156 532.484375 262.230469 C 532.078125 262.273438 531.671875 262.320312 531.269531 262.363281 C 530.84375 262.410156 530.421875 262.457031 530 262.503906 C 529.878906 262.515625 529.761719 262.53125 529.640625 262.542969 C 528.96875 262.617188 528.316406 262.644531 527.640625 262.632812 C 527.625 262.519531 527.625 262.519531 527.609375 262.410156 C 526.933594 257.550781 525.441406 252.796875 521.980469 249.1875 C 521.878906 249.074219 521.773438 248.964844 521.667969 248.851562 C 517.394531 244.296875 510.707031 242.894531 504.761719 242.230469 C 504.578125 242.207031 504.578125 242.207031 504.390625 242.1875 C 500.117188 241.71875 495.589844 241.777344 491.320312 242.230469 C 491.167969 242.246094 491.015625 242.261719 490.859375 242.277344 C 484.152344 242.992188 477.03125 244.542969 471.976562 249.304688 C 471.902344 249.375 471.828125 249.441406 471.75 249.515625 C 469.878906 251.289062 468.746094 253.972656 468.652344 256.53125 C 468.589844 259.53125 469.363281 262.238281 471.453125 264.460938 C 478.320312 271.472656 492.074219 273.277344 517.445312 279.085938 C 526.84375 281.125 536.253906 283.195312 563.84375 292.230469 C 563.921875 292.265625 563.996094 292.300781 564.070312 292.335938 C 566.429688 293.417969 568.75 294.546875 571.039062 295.769531 C 571.15625 295.832031 571.269531 295.890625 571.390625 295.957031 C 575.613281 298.207031 579.628906 300.832031 583.304688 303.90625 C 583.367188 303.957031 583.429688 304.011719 583.492188 304.0625 C 585.457031 305.714844 587.445312 307.460938 589.101562 309.429688 C 589.28125 309.640625 589.460938 309.847656 589.644531 310.050781 C 591.820312 312.496094 593.726562 315.210938 595.332031 318.058594 C 595.394531 318.164062 595.453125 318.273438 595.515625 318.382812 C 599.203125 324.96875 601.246094 332.160156 602.140625 339.625 C 602.171875 339.863281 602.203125 340.101562 602.230469 340.339844 C 602.890625 345.765625 602.875 351.667969 602.203125 357.089844 C 602.171875 357.34375 602.140625 357.59375 602.113281 357.847656 C 600.839844 368.992188 597.082031 380.078125 587.351562 392.757812 C 587.207031 392.917969 587.0625 393.082031 586.921875 393.246094 C 586.25 394.035156 585.515625 394.761719 584.78125 395.492188 C 584.550781 395.722656 584.320312 395.953125 584.089844 396.183594 C 583.375 396.898438 582.660156 397.597656 581.886719 398.25 C 581.753906 398.371094 581.617188 398.492188 581.480469 398.613281 C 580.472656 399.5 579.433594 400.328125 578.359375 401.132812 C 578.128906 401.308594 577.898438 401.484375 577.667969 401.660156 C 569.417969 408.007812 559.515625 412.285156 529.761719 419.476562 C 529.65625 419.492188 529.550781 419.507812 529.4375 419.523438 C 523.875 420.324219 518.277344 420.835938 512.664062 421.128906 C 512.492188 421.136719 512.492188 421.136719 512.316406 421.148438 C 504.636719 421.558594 496.875 421.554688 489.195312 421.128906 C 489.058594 421.121094 488.925781 421.113281 488.785156 421.105469 C 476.433594 420.421875 464.070312 418.757812 437.640625 409.730469 C 437.289062 409.5625 436.9375 409.398438 436.585938 409.234375 C 431.511719 406.851562 426.664062 403.90625 422.210938 400.492188 C 422.136719 400.433594 422.0625 400.378906 421.984375 400.320312 C 421 399.566406 420.054688 398.769531 419.117188 397.957031 C 418.90625 397.777344 418.695312 397.597656 418.484375 397.421875 C 417.714844 396.769531 416.980469 396.105469 416.277344 395.382812 C 416.027344 395.132812 415.777344 394.902344 415.507812 394.675781 C 415.007812 394.242188 414.554688 393.769531 414.105469 393.28125 C 413.980469 393.152344 413.980469 393.152344 413.855469 393.019531 C 413.691406 392.839844 413.527344 392.664062 413.363281 392.488281 C 413.152344 392.261719 412.941406 392.035156 412.730469 391.808594 C 412.109375 391.144531 411.507812 390.46875 410.9375 389.757812 C 410.726562 389.496094 410.515625 389.238281 410.300781 388.980469 C 408.011719 386.210938 405.992188 383.1875 404.167969 380.089844 C 404.113281 380 404.0625 379.910156 404.003906 379.816406 C 398.9375 371.292969 396.332031 361.703125 394.261719 352.082031 C 394.238281 351.972656 394.210938 351.863281 394.1875 351.746094 C 394.15625 351.597656 394.15625 351.597656 394.121094 351.441406 C 394.105469 351.355469 394.085938 351.265625 394.066406 351.175781 C 394.027344 350.960938 394.027344 350.960938 394.027344 350.726562 C 395.882812 350.476562 397.738281 350.253906 399.601562 350.046875 C 399.878906 350.015625 400.15625 349.984375 400.433594 349.953125 C 401.109375 349.875 401.785156 349.800781 402.464844 349.726562 C 403.277344 349.636719 404.085938 349.546875 404.898438 349.453125 C 406.859375 349.234375 408.820312 349.019531 410.777344 348.800781 C 411.707031 348.695312 412.632812 348.59375 413.5625 348.492188 C 416.738281 348.136719 419.914062 347.78125 423.09375 347.429688 C 423.289062 347.40625 423.488281 347.386719 423.6875 347.363281 C 423.785156 347.351562 423.886719 347.339844 423.988281 347.332031 C 424.488281 347.273438 424.984375 347.21875 425.484375 347.164062 C 425.632812 347.148438 425.632812 347.148438 425.785156 347.128906 C 429.007812 346.773438 432.230469 346.414062 435.453125 346.054688 C 438.859375 345.671875 442.269531 345.292969 445.679688 344.914062 C 446.054688 344.875 446.429688 344.832031 446.804688 344.789062 C 446.941406 344.773438 446.941406 344.773438 447.082031 344.757812 C 448.566406 344.59375 450.046875 344.429688 451.53125 344.261719 C 453.019531 344.097656 454.503906 343.933594 455.992188 343.765625 C 456.800781 343.675781 457.605469 343.585938 458.410156 343.496094 C 459.148438 343.414062 459.886719 343.332031 460.621094 343.25 C 460.890625 343.222656 461.15625 343.191406 461.425781 343.160156 C 461.785156 343.121094 462.148438 343.082031 462.511719 343.042969 C 462.617188 343.03125 462.71875 343.019531 462.828125 343.003906 C 462.925781 342.996094 463.023438 342.984375 463.121094 342.972656 C 463.246094 342.960938 463.246094 342.960938 463.371094 342.945312 C 463.625 342.941406 463.832031 342.988281 464.078125 343.058594 C 464.09375 343.140625 464.109375 343.222656 464.128906 343.308594 C 465.351562 349.125 467.425781 354.734375 471.558594 359.125 C 471.769531 359.355469 471.96875 359.582031 472.167969 359.824219 C 472.539062 360.265625 472.953125 360.613281 473.394531 360.984375 C 473.488281 361.070312 473.582031 361.152344 473.679688 361.242188 C 480.839844 367.472656 491.285156 369.242188 500.503906 369.265625 C 500.648438 369.265625 500.648438 369.265625 500.796875 369.265625 C 501.320312 369.265625 501.839844 369.269531 502.359375 369.269531 C 502.777344 369.269531 503.195312 369.269531 503.613281 369.273438 C 505.90625 369.289062 508.1875 369.253906 510.476562 369.078125 C 510.617188 369.066406 510.617188 369.066406 510.765625 369.054688 C 518.027344 368.488281 526.289062 367.074219 531.886719 362.046875 C 531.992188 361.953125 532.097656 361.855469 532.207031 361.757812 C 534.507812 359.582031 535.945312 356.539062 536.054688 353.363281 C 536.074219 351.722656 536.019531 350.179688 535.542969 348.601562 C 535.515625 348.519531 535.492188 348.4375 535.46875 348.355469 C 534.160156 344.21875 531.089844 341.339844 527.332031 339.375 C 527.121094 339.265625 526.910156 339.15625 526.699219 339.050781 C 526.609375 339.003906 526.523438 338.960938 526.433594 338.914062 C 524.929688 338.140625 523.34375 337.585938 521.746094 337.046875 C 521.628906 337.007812 521.515625 336.96875 521.394531 336.925781 C 513.542969 334.308594 505.164062 332.988281 497.0625 331.375 C 487.25 329.425781 477.457031 327.375 465.492188 324.425781 C 465.355469 324.394531 465.222656 324.359375 465.082031 324.324219 C 453.757812 321.496094 442.421875 318.109375 424.925781 307.5625 C 424.792969 307.464844 424.792969 307.464844 424.664062 307.367188 C 423.539062 306.527344 422.445312 305.652344 421.386719 304.730469 C 421.300781 304.65625 421.210938 304.582031 421.125 304.503906 C 420.894531 304.308594 420.667969 304.105469 420.441406 303.90625 C 420.359375 303.832031 420.273438 303.757812 420.1875 303.679688 C 419.417969 303 418.683594 302.289062 417.957031 301.5625 C 417.792969 301.402344 417.792969 301.402344 417.625 301.234375 C 416.902344 300.511719 416.246094 299.753906 415.609375 298.953125 C 415.496094 298.824219 415.386719 298.695312 415.273438 298.566406 C 413.820312 296.902344 412.582031 295.089844 411.480469 293.175781 C 411.390625 293.023438 411.390625 293.023438 411.300781 292.863281 C 406.589844 284.601562 403.933594 274.941406 403.34375 265.460938 C 403.332031 265.316406 403.324219 265.171875 403.3125 265.019531 C 403.214844 263.507812 403.203125 261.996094 403.203125 260.480469 C 403.203125 260.347656 403.203125 260.21875 403.203125 260.085938 C 403.207031 258.015625 403.253906 255.964844 403.460938 253.90625 C 403.476562 253.753906 403.492188 253.601562 403.507812 253.445312 C 404.546875 243.292969 407.847656 233.34375 413.839844 225.011719 C 413.902344 224.921875 413.96875 224.832031 414.035156 224.738281 C 414.816406 223.652344 415.613281 222.589844 416.492188 221.578125 C 416.765625 221.265625 417.023438 220.945312 417.28125 220.617188 C 418.417969 219.226562 419.707031 217.957031 420.972656 216.683594 C 421.070312 216.585938 421.167969 216.488281 421.269531 216.386719 C 421.839844 215.816406 422.425781 215.277344 423.035156 214.75 C 423.175781 214.628906 423.316406 214.503906 423.457031 214.382812 C 424.433594 213.527344 425.425781 212.707031 426.457031 211.921875 C 426.527344 211.867188 426.597656 211.8125 426.667969 211.757812 C 428.746094 210.160156 430.890625 208.675781 433.15625 207.355469 C 433.390625 207.21875 433.625 207.078125 433.855469 206.933594 C 435.210938 206.101562 436.609375 205.351562 438.015625 204.609375 C 438.132812 204.546875 438.25 204.484375 438.371094 204.421875 C 447.335938 199.738281 457.21875 196.863281 556.886719 203.902344 Z M 556.886719 203.902344 "/><path style=" stroke:none;fill-rule:nonzero;fill:#44403d;fill-opacity:1;" d="M 1429.40625 198.890625 C 1429.496094 198.910156 1429.589844 198.925781 1429.683594 198.945312 C 1430.292969 199.070312 1430.902344 199.195312 1431.511719 199.320312 C 1431.589844 199.335938 1431.671875 199.355469 1431.753906 199.371094 C 1431.972656 199.417969 1432.195312 199.460938 1432.417969 199.507812 C 1432.542969 199.535156 1432.667969 199.558594 1432.796875 199.585938 C 1433.105469 199.65625 1433.105469 199.65625 1433.460938 199.773438 C 1433.382812 200.402344 1433.25 201 1433.085938 201.609375 C 1433.0625 201.707031 1433.035156 201.804688 1433.007812 201.90625 C 1432.921875 202.238281 1432.832031 202.566406 1432.746094 202.894531 C 1432.683594 203.128906 1432.621094 203.363281 1432.558594 203.601562 C 1432.390625 204.238281 1432.21875 204.878906 1432.046875 205.519531 C 1431.90625 206.0625 1431.761719 206.601562 1431.617188 207.144531 C 1430.480469 211.433594 1429.332031 215.722656 1428.183594 220.011719 C 1427.246094 223.527344 1426.308594 227.042969 1425.371094 230.5625 C 1424.175781 235.066406 1422.972656 239.570312 1421.769531 244.074219 C 1420.984375 247.003906 1420.203125 249.933594 1419.421875 252.867188 C 1419.34375 253.164062 1419.261719 253.464844 1419.183594 253.765625 C 1418.835938 255.070312 1418.492188 256.375 1418.144531 257.679688 C 1418.003906 258.210938 1417.863281 258.742188 1417.71875 259.277344 C 1417.65625 259.523438 1417.589844 259.769531 1417.523438 260.015625 C 1417.433594 260.355469 1417.34375 260.695312 1417.253906 261.035156 C 1417.226562 261.132812 1417.203125 261.230469 1417.175781 261.328125 C 1416.996094 262.003906 1416.800781 262.671875 1416.597656 263.339844 C 1415.855469 263.257812 1415.167969 263.058594 1414.457031 262.847656 C 1414.191406 262.769531 1413.925781 262.691406 1413.660156 262.613281 C 1413.523438 262.570312 1413.382812 262.527344 1413.238281 262.488281 C 1410.167969 261.578125 1407.082031 260.710938 1403.976562 259.917969 C 1403.820312 259.878906 1403.820312 259.878906 1403.664062 259.839844 C 1399.113281 258.6875 1394.511719 257.765625 1389.847656 257.234375 C 1389.601562 257.207031 1389.351562 257.179688 1389.105469 257.148438 C 1386.414062 256.828125 1383.710938 256.816406 1381.003906 256.808594 C 1380.722656 256.808594 1380.441406 256.808594 1380.15625 256.804688 C 1378.171875 256.796875 1376.203125 256.835938 1374.226562 257.015625 C 1374.148438 257.023438 1374.066406 257.03125 1373.984375 257.039062 C 1362.699219 258.074219 1352.304688 262.390625 1343.953125 270.0625 C 1343.882812 270.121094 1343.816406 270.183594 1343.75 270.246094 C 1342.742188 271.164062 1341.792969 272.109375 1340.886719 273.128906 C 1340.738281 273.285156 1340.738281 273.285156 1340.589844 273.445312 C 1339.867188 274.222656 1339.207031 275.035156 1338.5625 275.875 C 1338.425781 276.054688 1338.28125 276.230469 1338.140625 276.410156 C 1336.535156 278.417969 1335.109375 280.632812 1333.925781 282.914062 C 1333.847656 283.066406 1333.769531 283.214844 1333.6875 283.363281 C 1330.523438 289.417969 1329.371094 296.179688 1328.535156 302.882812 C 1328.523438 302.976562 1328.511719 303.066406 1328.496094 303.164062 C 1328.457031 303.488281 1328.421875 303.816406 1328.382812 304.140625 C 1328.371094 304.257812 1328.371094 304.257812 1328.355469 304.375 C 1328.164062 305.992188 1328.117188 307.585938 1328.121094 309.214844 C 1328.121094 309.480469 1328.117188 309.746094 1328.117188 310.011719 C 1328.117188 310.738281 1328.117188 311.464844 1328.121094 312.1875 C 1328.121094 312.890625 1328.121094 313.597656 1328.121094 314.300781 C 1328.117188 315.738281 1328.117188 317.179688 1328.121094 318.617188 C 1328.121094 320.046875 1328.121094 321.476562 1328.121094 322.90625 C 1328.121094 322.992188 1328.121094 323.082031 1328.121094 323.175781 C 1328.121094 323.539062 1328.121094 323.898438 1328.121094 324.261719 C 1328.121094 327.660156 1328.121094 331.058594 1328.125 334.457031 C 1328.125 337.460938 1328.125 340.464844 1328.125 343.46875 C 1328.125 343.660156 1328.125 343.851562 1328.125 344.042969 C 1328.125 344.140625 1328.125 344.234375 1328.125 344.332031 C 1328.125 344.808594 1328.125 345.289062 1328.125 345.769531 C 1328.125 345.910156 1328.125 345.910156 1328.125 346.054688 C 1328.125 348.578125 1328.128906 351.101562 1328.128906 353.625 C 1328.128906 353.757812 1328.128906 353.757812 1328.128906 353.898438 C 1328.128906 354.257812 1328.128906 354.621094 1328.128906 354.984375 C 1328.128906 356.230469 1328.128906 357.476562 1328.128906 358.726562 C 1328.128906 360.335938 1328.128906 361.949219 1328.128906 363.5625 C 1328.132812 364.335938 1328.132812 365.113281 1328.132812 365.886719 C 1328.128906 371.367188 1328.191406 376.847656 1328.371094 382.324219 C 1328.375 382.476562 1328.378906 382.628906 1328.382812 382.785156 C 1328.707031 392.75 1329.433594 402.695312 1330.644531 412.589844 C 1330.660156 412.707031 1330.675781 412.828125 1330.6875 412.949219 C 1330.714844 413.167969 1330.742188 413.390625 1330.769531 413.609375 C 1330.78125 413.707031 1330.796875 413.804688 1330.808594 413.902344 C 1330.816406 413.988281 1330.828125 414.070312 1330.839844 414.15625 C 1330.863281 414.4375 1330.859375 414.714844 1330.859375 414.996094 C 1306.734375 414.996094 1282.605469 414.996094 1257.746094 414.996094 C 1257.820312 413.914062 1257.910156 412.839844 1258.035156 411.761719 C 1258.066406 411.457031 1258.101562 411.152344 1258.136719 410.847656 C 1258.15625 410.6875 1258.171875 410.527344 1258.191406 410.367188 C 1259.253906 400.910156 1259.925781 391.429688 1260.234375 381.917969 C 1260.242188 381.78125 1260.246094 381.644531 1260.25 381.507812 C 1260.285156 380.40625 1260.3125 379.304688 1260.339844 378.203125 C 1260.339844 378.101562 1260.34375 377.996094 1260.347656 377.890625 C 1260.488281 371.925781 1260.472656 365.960938 1260.472656 359.996094 C 1260.472656 358.53125 1260.472656 357.066406 1260.472656 355.597656 C 1260.472656 352.667969 1260.472656 349.734375 1260.472656 346.804688 C 1260.472656 343.980469 1260.472656 341.15625 1260.472656 338.332031 C 1260.472656 338.15625 1260.472656 337.976562 1260.472656 337.796875 C 1260.472656 337.082031 1260.472656 336.363281 1260.472656 335.644531 C 1260.472656 333.640625 1260.472656 331.636719 1260.472656 329.632812 C 1260.472656 329.542969 1260.472656 329.453125 1260.472656 329.355469 C 1260.472656 326.457031 1260.472656 323.558594 1260.472656 320.65625 C 1260.472656 320.5625 1260.472656 320.46875 1260.472656 320.371094 C 1260.472656 318.847656 1260.472656 317.324219 1260.472656 315.800781 C 1260.472656 309.761719 1260.472656 303.722656 1260.472656 297.683594 C 1260.472656 296.160156 1260.472656 294.640625 1260.472656 293.117188 C 1260.472656 293.023438 1260.472656 292.929688 1260.472656 292.832031 C 1260.472656 289.933594 1260.472656 287.039062 1260.472656 284.140625 C 1260.472656 284.050781 1260.472656 283.957031 1260.472656 283.863281 C 1260.472656 281.863281 1260.472656 279.859375 1260.472656 277.859375 C 1260.472656 277.140625 1260.472656 276.425781 1260.472656 275.707031 C 1260.472656 275.53125 1260.472656 275.351562 1260.472656 275.171875 C 1260.472656 272.351562 1260.472656 269.53125 1260.472656 266.710938 C 1260.472656 263.785156 1260.472656 260.859375 1260.472656 257.933594 C 1260.472656 256.402344 1260.472656 254.867188 1260.472656 253.332031 C 1260.472656 247.234375 1260.472656 241.136719 1260.339844 235.035156 C 1260.335938 234.925781 1260.335938 234.816406 1260.332031 234.703125 C 1260.304688 233.484375 1260.273438 232.265625 1260.234375 231.046875 C 1260.230469 230.886719 1260.226562 230.726562 1260.222656 230.566406 C 1259.925781 221.011719 1259.253906 211.476562 1257.960938 202.003906 C 1257.945312 201.894531 1257.929688 201.789062 1257.917969 201.679688 C 1257.890625 201.480469 1257.863281 201.285156 1257.835938 201.085938 C 1257.773438 200.640625 1257.746094 200.226562 1257.746094 199.773438 C 1280.9375 199.773438 1304.132812 199.773438 1328.03125 199.773438 C 1328.070312 208.84375 1328.109375 217.910156 1328.148438 227.253906 C 1329.183594 225.976562 1329.183594 225.976562 1330.21875 224.703125 C 1331.160156 223.554688 1332.128906 222.433594 1333.140625 221.34375 C 1333.375 221.089844 1333.597656 220.835938 1333.824219 220.574219 C 1334.296875 220.03125 1334.800781 219.523438 1335.308594 219.015625 C 1335.40625 218.917969 1335.5 218.824219 1335.601562 218.722656 C 1335.800781 218.523438 1336.003906 218.320312 1336.207031 218.117188 C 1336.511719 217.8125 1336.820312 217.503906 1337.125 217.195312 C 1337.324219 217 1337.523438 216.800781 1337.71875 216.605469 C 1337.808594 216.515625 1337.898438 216.421875 1337.992188 216.328125 C 1338.546875 215.78125 1339.113281 215.257812 1339.707031 214.75 C 1339.835938 214.640625 1339.964844 214.527344 1340.09375 214.414062 C 1343.8125 211.203125 1347.796875 208.308594 1352.089844 205.90625 C 1352.199219 205.84375 1352.308594 205.78125 1352.425781 205.71875 C 1356.1875 203.613281 1360.109375 201.898438 1364.1875 200.5 C 1364.445312 200.414062 1364.707031 200.324219 1364.964844 200.234375 C 1376 196.382812 1388.003906 195.464844 1429.40625 198.890625 Z M 1429.40625 198.890625 "/><path style=" stroke:none;fill-rule:nonzero;fill:#44403d;fill-opacity:1;" d="M 32.335938 199.773438 C 56.699219 199.773438 81.058594 199.773438 106.160156 199.773438 C 105.890625 202.324219 105.890625 202.324219 105.765625 203.261719 C 105.738281 203.480469 105.710938 203.699219 105.679688 203.917969 C 105.660156 204.085938 105.660156 204.085938 105.636719 204.257812 C 104.5 213.097656 103.953125 221.992188 103.675781 230.894531 C 103.667969 231.117188 103.660156 231.339844 103.65625 231.5625 C 103.617188 232.71875 103.589844 233.878906 103.566406 235.035156 C 103.5625 235.144531 103.558594 235.25 103.558594 235.363281 C 103.425781 241.351562 103.429688 247.339844 103.429688 253.328125 C 103.429688 254.847656 103.429688 256.363281 103.429688 257.882812 C 103.429688 261.03125 103.425781 264.175781 103.425781 267.320312 C 103.425781 267.667969 103.425781 268.011719 103.425781 268.359375 C 103.425781 268.445312 103.425781 268.527344 103.425781 268.617188 C 103.425781 270.53125 103.425781 272.445312 103.425781 274.359375 C 103.425781 275.148438 103.425781 275.941406 103.425781 276.734375 C 103.425781 276.820312 103.425781 276.910156 103.425781 277 C 103.425781 282.003906 103.425781 287.011719 103.425781 292.015625 C 103.425781 292.203125 103.425781 292.390625 103.425781 292.578125 C 103.425781 293.417969 103.425781 294.261719 103.425781 295.105469 C 103.425781 295.480469 103.425781 295.855469 103.425781 296.230469 C 103.425781 296.417969 103.425781 296.605469 103.425781 296.792969 C 103.425781 302.730469 103.425781 308.667969 103.421875 314.601562 C 103.421875 316.097656 103.421875 317.59375 103.421875 319.089844 C 103.421875 319.179688 103.421875 319.273438 103.421875 319.367188 C 103.421875 322.21875 103.421875 325.066406 103.421875 327.917969 C 103.421875 328.003906 103.421875 328.09375 103.421875 328.1875 C 103.421875 330.160156 103.421875 332.132812 103.421875 334.105469 C 103.421875 334.808594 103.421875 335.515625 103.421875 336.222656 C 103.421875 336.398438 103.421875 336.574219 103.421875 336.75 C 103.421875 339.519531 103.417969 342.292969 103.417969 345.0625 C 103.417969 347.863281 103.417969 350.660156 103.417969 353.460938 C 103.417969 355.046875 103.417969 356.628906 103.417969 358.214844 C 103.414062 363.699219 103.421875 369.179688 103.558594 374.660156 C 103.558594 374.761719 103.5625 374.863281 103.566406 374.964844 C 103.617188 377.117188 103.683594 379.269531 103.761719 381.421875 C 103.765625 381.550781 103.765625 381.550781 103.773438 381.679688 C 104.121094 391.261719 104.742188 400.839844 105.902344 411.953125 C 105.910156 412.035156 105.917969 412.117188 105.929688 412.203125 C 105.96875 412.582031 106.011719 412.960938 106.050781 413.34375 C 106.066406 413.476562 106.082031 413.609375 106.09375 413.742188 C 106.109375 413.859375 106.121094 413.972656 106.132812 414.089844 C 106.160156 414.390625 106.160156 414.695312 106.160156 414.996094 C 81.796875 414.996094 57.4375 414.996094 32.335938 414.996094 C 32.46875 413.273438 32.46875 413.273438 32.542969 412.621094 C 32.558594 412.472656 32.574219 412.324219 32.59375 412.171875 C 32.601562 412.097656 32.609375 412.019531 32.621094 411.941406 C 32.667969 411.511719 32.714844 411.082031 32.761719 410.652344 C 32.773438 410.5625 32.785156 410.46875 32.792969 410.375 C 33.820312 401.152344 34.5 391.914062 34.800781 382.636719 C 34.8125 382.273438 34.828125 381.910156 34.839844 381.546875 C 34.871094 380.496094 34.898438 379.449219 34.921875 378.398438 C 34.925781 378.191406 34.933594 377.980469 34.9375 377.773438 C 35.078125 371.875 35.066406 365.980469 35.0625 360.082031 C 35.0625 358.625 35.0625 357.171875 35.0625 355.714844 C 35.0625 352.804688 35.0625 349.890625 35.0625 346.980469 C 35.0625 344.175781 35.0625 341.371094 35.0625 338.566406 C 35.0625 338.390625 35.0625 338.214844 35.0625 338.035156 C 35.0625 337.324219 35.0625 336.613281 35.0625 335.898438 C 35.0625 333.910156 35.0625 331.921875 35.0625 329.929688 C 35.0625 329.839844 35.0625 329.75 35.0625 329.65625 C 35.0625 326.777344 35.0625 323.898438 35.0625 321.015625 C 35.0625 320.878906 35.0625 320.878906 35.0625 320.734375 C 35.0625 319.222656 35.0625 317.707031 35.0625 316.195312 C 35.0625 310.199219 35.0625 304.199219 35.0625 298.203125 C 35.0625 296.691406 35.0625 295.179688 35.0625 293.667969 C 35.0625 293.574219 35.0625 293.480469 35.0625 293.386719 C 35.0625 290.507812 35.0625 287.632812 35.0625 284.753906 C 35.0625 284.664062 35.0625 284.574219 35.0625 284.480469 C 35.0625 282.492188 35.0625 280.503906 35.0625 278.515625 C 35.0625 277.804688 35.0625 277.09375 35.0625 276.382812 C 35.0625 276.207031 35.0625 276.027344 35.0625 275.851562 C 35.0625 273.050781 35.0625 270.246094 35.0625 267.445312 C 35.0625 264.542969 35.0625 261.636719 35.0625 258.730469 C 35.0625 257.210938 35.0625 255.6875 35.0625 254.164062 C 35.066406 245.246094 35.066406 245.246094 34.929688 236.332031 C 34.925781 236.230469 34.925781 236.125 34.921875 236.015625 C 34.894531 234.847656 34.863281 233.675781 34.828125 232.507812 C 34.820312 232.351562 34.816406 232.199219 34.8125 232.039062 C 34.492188 222.03125 33.824219 212.039062 32.550781 202.105469 C 32.53125 201.933594 32.53125 201.933594 32.507812 201.757812 C 32.480469 201.546875 32.453125 201.339844 32.425781 201.128906 C 32.414062 201.035156 32.402344 200.941406 32.390625 200.847656 C 32.378906 200.769531 32.367188 200.6875 32.359375 200.605469 C 32.332031 200.328125 32.335938 200.050781 32.335938 199.773438 Z M 32.335938 199.773438 "/><path style=" stroke:none;fill-rule:nonzero;fill:#44403d;fill-opacity:1;" d="M 632.835938 199.773438 C 657.195312 199.773438 681.558594 199.773438 706.660156 199.773438 C 706.523438 200.976562 706.390625 202.175781 706.238281 203.375 C 705.109375 212.449219 704.507812 221.539062 704.183594 230.671875 C 704.175781 230.792969 704.171875 230.910156 704.167969 231.03125 C 704.136719 231.972656 704.105469 232.914062 704.089844 233.855469 C 704.085938 233.992188 704.085938 233.992188 704.082031 234.128906 C 704.078125 234.324219 704.074219 234.523438 704.070312 234.722656 C 704.0625 235.042969 704.058594 235.367188 704.050781 235.691406 C 703.921875 241.570312 703.929688 247.449219 703.929688 253.328125 C 703.929688 254.847656 703.929688 256.363281 703.929688 257.882812 C 703.925781 261.03125 703.925781 264.175781 703.925781 267.320312 C 703.925781 267.667969 703.925781 268.011719 703.925781 268.359375 C 703.925781 268.445312 703.925781 268.527344 703.925781 268.617188 C 703.925781 270.53125 703.925781 272.445312 703.925781 274.359375 C 703.925781 275.148438 703.925781 275.941406 703.925781 276.734375 C 703.925781 276.820312 703.925781 276.910156 703.925781 277 C 703.925781 282.003906 703.925781 287.011719 703.925781 292.015625 C 703.925781 292.203125 703.925781 292.390625 703.925781 292.578125 C 703.925781 293.417969 703.925781 294.261719 703.925781 295.105469 C 703.925781 295.480469 703.925781 295.855469 703.925781 296.230469 C 703.925781 296.417969 703.925781 296.605469 703.925781 296.792969 C 703.925781 302.730469 703.921875 308.667969 703.921875 314.601562 C 703.921875 316.097656 703.921875 317.59375 703.921875 319.089844 C 703.921875 319.179688 703.921875 319.273438 703.921875 319.367188 C 703.917969 322.21875 703.917969 325.066406 703.917969 327.917969 C 703.917969 328.003906 703.917969 328.09375 703.917969 328.1875 C 703.917969 330.160156 703.917969 332.132812 703.917969 334.105469 C 703.917969 334.808594 703.917969 335.515625 703.917969 336.222656 C 703.917969 336.398438 703.917969 336.574219 703.917969 336.75 C 703.917969 339.519531 703.917969 342.292969 703.917969 345.0625 C 703.917969 347.863281 703.917969 350.660156 703.917969 353.460938 C 703.917969 355.046875 703.917969 356.628906 703.917969 358.214844 C 703.914062 363.699219 703.921875 369.179688 704.054688 374.660156 C 704.058594 374.761719 704.0625 374.863281 704.0625 374.964844 C 704.117188 377.117188 704.183594 379.269531 704.261719 381.421875 C 704.265625 381.550781 704.265625 381.550781 704.269531 381.679688 C 704.621094 391.261719 705.242188 400.839844 706.402344 411.953125 C 706.410156 412.035156 706.417969 412.117188 706.425781 412.203125 C 706.46875 412.582031 706.507812 412.960938 706.550781 413.34375 C 706.566406 413.476562 706.578125 413.609375 706.59375 413.742188 C 706.605469 413.859375 706.617188 413.972656 706.632812 414.089844 C 706.65625 414.390625 706.660156 414.695312 706.660156 414.996094 C 682.296875 414.996094 657.933594 414.996094 632.835938 414.996094 C 632.96875 413.273438 632.96875 413.273438 633.039062 412.621094 C 633.058594 412.472656 633.074219 412.324219 633.089844 412.171875 C 633.101562 412.097656 633.109375 412.019531 633.117188 411.941406 C 633.167969 411.511719 633.214844 411.082031 633.261719 410.652344 C 633.273438 410.5625 633.28125 410.46875 633.292969 410.375 C 634.320312 401.152344 635 391.914062 635.300781 382.636719 C 635.3125 382.273438 635.324219 381.910156 635.335938 381.546875 C 635.371094 380.496094 635.398438 379.449219 635.421875 378.398438 C 635.425781 378.191406 635.429688 377.980469 635.4375 377.773438 C 635.578125 371.875 635.5625 365.980469 635.5625 360.082031 C 635.5625 358.625 635.5625 357.171875 635.5625 355.714844 C 635.5625 352.804688 635.5625 349.890625 635.5625 346.980469 C 635.5625 344.175781 635.5625 341.371094 635.5625 338.566406 C 635.5625 338.390625 635.5625 338.214844 635.5625 338.035156 C 635.5625 337.324219 635.5625 336.613281 635.5625 335.898438 C 635.5625 333.910156 635.5625 331.921875 635.5625 329.929688 C 635.5625 329.839844 635.5625 329.75 635.5625 329.65625 C 635.5625 326.777344 635.5625 323.898438 635.5625 321.015625 C 635.5625 320.878906 635.5625 320.878906 635.5625 320.734375 C 635.5625 319.222656 635.5625 317.707031 635.5625 316.195312 C 635.5625 310.199219 635.5625 304.199219 635.5625 298.203125 C 635.5625 296.691406 635.5625 295.179688 635.5625 293.667969 C 635.5625 293.574219 635.5625 293.480469 635.5625 293.386719 C 635.5625 290.507812 635.5625 287.632812 635.5625 284.753906 C 635.5625 284.664062 635.5625 284.574219 635.5625 284.480469 C 635.5625 282.492188 635.5625 280.503906 635.5625 278.515625 C 635.5625 277.804688 635.5625 277.09375 635.5625 276.382812 C 635.5625 276.207031 635.5625 276.027344 635.5625 275.851562 C 635.5625 273.050781 635.5625 270.246094 635.5625 267.445312 C 635.5625 264.542969 635.5625 261.636719 635.5625 258.730469 C 635.5625 257.210938 635.5625 255.6875 635.5625 254.164062 C 635.566406 245.246094 635.566406 245.246094 635.429688 236.332031 C 635.425781 236.230469 635.425781 236.125 635.421875 236.015625 C 635.394531 234.847656 635.363281 233.675781 635.324219 232.507812 C 635.320312 232.351562 635.316406 232.199219 635.3125 232.039062 C 634.992188 222.03125 634.320312 212.039062 633.050781 202.105469 C 633.027344 201.933594 633.027344 201.933594 633.007812 201.757812 C 632.980469 201.546875 632.953125 201.339844 632.925781 201.128906 C 632.914062 201.035156 632.898438 200.941406 632.886719 200.847656 C 632.878906 200.769531 632.867188 200.6875 632.855469 200.605469 C 632.832031 200.328125 632.835938 200.050781 632.835938 199.773438 Z M 632.835938 199.773438 "/><path style=" stroke:none;fill-rule:nonzero;fill:#44403d;fill-opacity:1;" d="M 633.894531 121.46875 C 657.558594 121.46875 681.21875 121.46875 705.597656 121.46875 C 705.597656 138.980469 705.597656 156.496094 705.597656 174.539062 C 681.933594 174.539062 658.273438 174.539062 633.894531 174.539062 C 633.894531 157.023438 633.894531 139.511719 633.894531 121.46875 Z M 633.894531 121.46875 "/><path style=" stroke:none;fill-rule:nonzero;fill:#44403d;fill-opacity:1;" d="M 33.398438 121.46875 C 57.058594 121.46875 80.71875 121.46875 105.097656 121.46875 C 105.097656 138.980469 105.097656 156.496094 105.097656 174.539062 C 81.4375 174.539062 57.777344 174.539062 33.398438 174.539062 C 33.398438 157.023438 33.398438 139.511719 33.398438 121.46875 Z M 33.398438 121.46875 "/></g></svg>